<svg width="270" height="277" viewBox="0 0 270 277" fill="none" xmlns="http://www.w3.org/2000/svg">
<rect y="19" width="270" height="258" rx="24" fill="#FAEFE2"/>
<path d="M31.7273 180.736H44.4233V182.368H31.7273V180.736ZM31.2473 186.472H44.9273V188.128H31.2473V186.472ZM31.1513 195.424H44.9993V197.08H31.1513V195.424ZM32.3273 183.568H44.0393V185.176H32.3273V183.568ZM34.5113 178.744H36.5273V187.192H34.5113V178.744ZM39.6233 178.744H41.6393V187.192H39.6233V178.744ZM37.0553 187.216H39.0473V195.904H37.0553V187.216ZM41.6153 189.304H43.6793V198.832C43.6793 199.344 43.6153 199.744 43.4873 200.032C43.3593 200.32 43.1193 200.544 42.7673 200.704C42.4153 200.848 41.9513 200.936 41.3753 200.968C40.7993 201 40.0953 201.016 39.2633 201.016C39.2153 200.744 39.1353 200.432 39.0233 200.08C38.9113 199.728 38.7913 199.424 38.6633 199.168C39.2233 199.184 39.7433 199.192 40.2233 199.192C40.7193 199.208 41.0393 199.208 41.1833 199.192C41.3433 199.192 41.4553 199.16 41.5193 199.096C41.5833 199.048 41.6153 198.952 41.6153 198.808V189.304ZM32.5673 189.304H42.5033V190.96H34.6073V201.04H32.5673V189.304ZM33.6233 192.424H42.4793V193.888H33.6233V192.424ZM24.9593 195.304L26.9513 195.76C26.6633 196.768 26.2713 197.744 25.7753 198.688C25.2793 199.632 24.7593 200.424 24.2153 201.064C24.0873 200.952 23.9113 200.816 23.6873 200.656C23.4793 200.512 23.2633 200.368 23.0393 200.224C22.8313 200.096 22.6473 199.984 22.4873 199.888C23.0313 199.312 23.5193 198.616 23.9513 197.8C24.3833 196.984 24.7193 196.152 24.9593 195.304ZM27.8873 196.024L29.5673 195.28C29.9673 195.872 30.3593 196.528 30.7433 197.248C31.1433 197.952 31.4313 198.56 31.6073 199.072L29.8313 199.936C29.7193 199.584 29.5593 199.184 29.3513 198.736C29.1433 198.272 28.9113 197.808 28.6553 197.344C28.3993 196.864 28.1433 196.424 27.8873 196.024ZM25.7273 185.92V188.632H28.7993V185.92H25.7273ZM25.7273 190.36V193.12H28.7993V190.36H25.7273ZM25.7273 181.48V184.192H28.7993V181.48H25.7273ZM23.7833 179.632H30.8153V194.944H23.7833V179.632ZM51.3353 180.136H58.1513V182.44H51.3353V180.136ZM57.0233 180.136H59.3513C59.3513 180.872 59.3753 181.728 59.4233 182.704C59.4873 183.664 59.6233 184.696 59.8313 185.8C60.0393 186.888 60.3593 188.016 60.7913 189.184C61.2233 190.352 61.7913 191.512 62.4953 192.664C63.2153 193.816 64.1193 194.936 65.2073 196.024C66.2953 197.096 67.6073 198.088 69.1433 199C68.9833 199.128 68.7833 199.304 68.5433 199.528C68.3033 199.768 68.0713 200.016 67.8473 200.272C67.6233 200.528 67.4473 200.752 67.3193 200.944C65.7513 199.984 64.4073 198.928 63.2873 197.776C62.1673 196.608 61.2233 195.376 60.4553 194.08C59.7033 192.784 59.0953 191.48 58.6313 190.168C58.1673 188.856 57.8153 187.584 57.5753 186.352C57.3513 185.12 57.1993 183.976 57.1193 182.92C57.0553 181.848 57.0233 180.92 57.0233 180.136ZM56.1833 185.104L58.7513 185.56C58.1913 187.976 57.4553 190.16 56.5433 192.112C55.6313 194.048 54.5273 195.752 53.2313 197.224C51.9513 198.696 50.4393 199.952 48.6953 200.992C48.5673 200.816 48.3753 200.616 48.1193 200.392C47.8633 200.168 47.5993 199.936 47.3273 199.696C47.0713 199.456 46.8393 199.272 46.6313 199.144C49.2393 197.8 51.3033 195.952 52.8233 193.6C54.3593 191.232 55.4793 188.4 56.1833 185.104ZM74.8553 182.152C75.7193 182.248 76.6953 182.32 77.7833 182.368C78.8873 182.416 80.0553 182.44 81.2873 182.44C82.0553 182.44 82.8393 182.424 83.6393 182.392C84.4393 182.36 85.2073 182.32 85.9433 182.272C86.6953 182.224 87.3673 182.168 87.9593 182.104V184.6C87.4153 184.648 86.7673 184.696 86.0153 184.744C85.2633 184.792 84.4713 184.832 83.6393 184.864C82.8233 184.88 82.0393 184.888 81.2873 184.888C80.0713 184.888 78.9353 184.864 77.8793 184.816C76.8233 184.768 75.8153 184.704 74.8553 184.624V182.152ZM76.2713 192.04C76.1273 192.488 76.0153 192.928 75.9353 193.36C75.8553 193.776 75.8153 194.2 75.8153 194.632C75.8153 195.48 76.2473 196.176 77.1113 196.72C77.9753 197.248 79.3353 197.512 81.1913 197.512C82.2793 197.512 83.3273 197.48 84.3353 197.416C85.3593 197.336 86.3113 197.224 87.1913 197.08C88.0713 196.936 88.8313 196.768 89.4713 196.576L89.4953 199.216C88.8713 199.36 88.1353 199.496 87.2873 199.624C86.4393 199.768 85.5033 199.872 84.4793 199.936C83.4713 200.016 82.3993 200.056 81.2633 200.056C79.5353 200.056 78.0793 199.864 76.8953 199.48C75.7273 199.112 74.8393 198.568 74.2313 197.848C73.6233 197.128 73.3193 196.24 73.3193 195.184C73.3193 194.528 73.3673 193.92 73.4633 193.36C73.5753 192.784 73.6873 192.264 73.7993 191.8L76.2713 192.04ZM88.6073 179.56C88.8153 179.832 89.0393 180.168 89.2793 180.568C89.5193 180.968 89.7513 181.368 89.9753 181.768C90.1993 182.168 90.3913 182.528 90.5513 182.848L88.9673 183.544C88.7273 183.048 88.4313 182.48 88.0793 181.84C87.7273 181.2 87.3833 180.656 87.0473 180.208L88.6073 179.56ZM91.3433 178.552C91.5513 178.84 91.7833 179.184 92.0393 179.584C92.2953 179.984 92.5353 180.384 92.7593 180.784C92.9993 181.184 93.1913 181.528 93.3353 181.816L91.7753 182.512C91.5193 181.984 91.2073 181.416 90.8393 180.808C90.4873 180.184 90.1433 179.648 89.8073 179.2L91.3433 178.552ZM113.591 184.816C113.287 185.008 112.959 185.2 112.607 185.392C112.271 185.568 111.911 185.752 111.527 185.944C111.127 186.152 110.647 186.4 110.087 186.688C109.527 186.96 108.919 187.264 108.263 187.6C107.607 187.92 106.951 188.264 106.295 188.632C105.655 189 105.047 189.368 104.471 189.736C103.415 190.44 102.575 191.168 101.951 191.92C101.327 192.672 101.015 193.496 101.015 194.392C101.015 195.32 101.463 196.048 102.359 196.576C103.255 197.104 104.599 197.368 106.391 197.368C107.255 197.368 108.159 197.336 109.103 197.272C110.047 197.192 110.959 197.088 111.839 196.96C112.735 196.832 113.503 196.68 114.143 196.504L114.119 199.24C113.495 199.336 112.783 199.432 111.983 199.528C111.183 199.624 110.319 199.696 109.391 199.744C108.479 199.792 107.511 199.816 106.487 199.816C105.335 199.816 104.263 199.728 103.271 199.552C102.295 199.376 101.447 199.088 100.727 198.688C100.007 198.288 99.4473 197.76 99.0473 197.104C98.6473 196.432 98.4473 195.616 98.4473 194.656C98.4473 193.728 98.6473 192.872 99.0473 192.088C99.4633 191.304 100.031 190.568 100.751 189.88C101.471 189.192 102.303 188.536 103.247 187.912C103.839 187.512 104.471 187.12 105.143 186.736C105.815 186.352 106.471 185.984 107.111 185.632C107.767 185.28 108.375 184.96 108.935 184.672C109.495 184.384 109.967 184.128 110.351 183.904C110.735 183.68 111.079 183.472 111.383 183.28C111.703 183.088 111.999 182.872 112.271 182.632L113.591 184.816ZM101.471 180.136C101.855 181.16 102.263 182.168 102.695 183.16C103.127 184.136 103.559 185.048 103.991 185.896C104.439 186.744 104.847 187.496 105.215 188.152L103.103 189.4C102.687 188.712 102.255 187.92 101.807 187.024C101.359 186.112 100.903 185.152 100.439 184.144C99.9753 183.136 99.5273 182.128 99.0953 181.12L101.471 180.136ZM128.711 182.536C129.415 182.648 130.207 182.728 131.087 182.776C131.983 182.824 132.903 182.84 133.847 182.824C134.791 182.808 135.695 182.776 136.559 182.728C137.423 182.68 138.167 182.616 138.791 182.536V184.984C138.103 185.048 137.327 185.104 136.463 185.152C135.599 185.184 134.703 185.2 133.775 185.2C132.863 185.2 131.967 185.184 131.087 185.152C130.207 185.104 129.423 185.048 128.735 184.984L128.711 182.536ZM130.079 192.52C129.983 192.936 129.903 193.312 129.839 193.648C129.791 193.984 129.767 194.32 129.767 194.656C129.767 194.928 129.823 195.184 129.935 195.424C130.063 195.664 130.263 195.872 130.535 196.048C130.823 196.224 131.207 196.368 131.687 196.48C132.183 196.576 132.791 196.624 133.511 196.624C134.599 196.624 135.615 196.576 136.559 196.48C137.519 196.368 138.495 196.2 139.487 195.976L139.535 198.544C138.783 198.688 137.903 198.808 136.895 198.904C135.903 198.984 134.759 199.024 133.463 199.024C131.431 199.024 129.927 198.696 128.951 198.04C127.991 197.368 127.511 196.448 127.511 195.28C127.511 194.848 127.543 194.4 127.607 193.936C127.671 193.456 127.775 192.92 127.919 192.328L130.079 192.52ZM124.535 180.808C124.487 180.952 124.423 181.144 124.343 181.384C124.279 181.608 124.215 181.84 124.151 182.08C124.103 182.304 124.063 182.488 124.031 182.632C123.951 183.032 123.855 183.52 123.743 184.096C123.647 184.656 123.543 185.272 123.431 185.944C123.335 186.6 123.239 187.272 123.143 187.96C123.063 188.632 122.991 189.288 122.927 189.928C122.879 190.568 122.855 191.152 122.855 191.68C122.855 192.096 122.863 192.52 122.879 192.952C122.911 193.368 122.951 193.8 122.999 194.248C123.143 193.928 123.287 193.592 123.431 193.24C123.575 192.872 123.719 192.512 123.863 192.16C124.007 191.808 124.143 191.488 124.271 191.2L125.471 192.16C125.263 192.752 125.039 193.408 124.799 194.128C124.559 194.848 124.343 195.536 124.151 196.192C123.975 196.832 123.847 197.352 123.767 197.752C123.735 197.912 123.703 198.104 123.671 198.328C123.639 198.536 123.631 198.712 123.647 198.856C123.647 198.968 123.647 199.104 123.647 199.264C123.663 199.44 123.679 199.6 123.695 199.744L121.511 199.888C121.271 199.056 121.063 197.96 120.887 196.6C120.711 195.24 120.623 193.752 120.623 192.136C120.623 191.24 120.663 190.336 120.743 189.424C120.823 188.496 120.919 187.6 121.031 186.736C121.143 185.872 121.255 185.08 121.367 184.36C121.495 183.64 121.591 183.04 121.655 182.56C121.703 182.256 121.743 181.928 121.775 181.576C121.823 181.224 121.855 180.888 121.871 180.568L124.535 180.808ZM152.759 179.968C152.679 180.336 152.607 180.672 152.543 180.976C152.495 181.28 152.447 181.576 152.399 181.864C152.351 182.264 152.279 182.792 152.183 183.448C152.103 184.088 152.007 184.808 151.895 185.608C151.783 186.408 151.679 187.232 151.583 188.08C151.487 188.928 151.391 189.76 151.295 190.576C151.199 191.376 151.127 192.112 151.079 192.784C151.031 193.44 151.007 193.976 151.007 194.392C151.007 195.48 151.319 196.328 151.943 196.936C152.583 197.544 153.551 197.848 154.847 197.848C156.015 197.848 157.015 197.688 157.847 197.368C158.695 197.048 159.343 196.6 159.791 196.024C160.239 195.448 160.463 194.784 160.463 194.032C160.463 193.216 160.247 192.4 159.815 191.584C159.399 190.768 158.767 189.984 157.919 189.232L160.583 188.68C161.383 189.624 161.983 190.544 162.383 191.44C162.783 192.32 162.983 193.28 162.983 194.32C162.983 195.504 162.639 196.544 161.951 197.44C161.279 198.336 160.335 199.032 159.119 199.528C157.903 200.024 156.463 200.272 154.799 200.272C153.631 200.272 152.583 200.088 151.655 199.72C150.727 199.352 149.991 198.768 149.447 197.968C148.919 197.168 148.655 196.104 148.655 194.776C148.655 194.28 148.695 193.616 148.775 192.784C148.855 191.952 148.951 191.04 149.063 190.048C149.191 189.056 149.319 188.048 149.447 187.024C149.591 185.984 149.711 185.008 149.807 184.096C149.919 183.168 149.999 182.376 150.047 181.72C150.095 181.24 150.119 180.864 150.119 180.592C150.119 180.32 150.103 180.064 150.071 179.824L152.759 179.968ZM144.695 183.064C145.383 183.288 146.143 183.472 146.975 183.616C147.807 183.76 148.655 183.872 149.519 183.952C150.383 184.016 151.191 184.048 151.943 184.048C152.871 184.048 153.743 184.024 154.559 183.976C155.375 183.912 156.111 183.832 156.767 183.736L156.695 185.992C155.943 186.056 155.199 186.112 154.463 186.16C153.727 186.208 152.863 186.232 151.871 186.232C151.135 186.232 150.335 186.192 149.471 186.112C148.623 186.032 147.775 185.92 146.927 185.776C146.079 185.616 145.295 185.448 144.575 185.272L144.695 183.064ZM144.143 189.04C144.959 189.312 145.799 189.528 146.663 189.688C147.527 189.848 148.383 189.96 149.231 190.024C150.095 190.072 150.911 190.096 151.679 190.096C152.463 190.096 153.271 190.072 154.103 190.024C154.951 189.976 155.783 189.904 156.599 189.808L156.527 192.064C155.791 192.144 155.055 192.208 154.319 192.256C153.583 192.288 152.823 192.304 152.039 192.304C150.599 192.304 149.175 192.224 147.767 192.064C146.359 191.888 145.111 191.648 144.023 191.344L144.143 189.04ZM173.879 179.968C174.423 180.128 175.119 180.304 175.967 180.496C176.815 180.688 177.703 180.88 178.631 181.072C179.559 181.248 180.439 181.408 181.271 181.552C182.103 181.68 182.783 181.768 183.311 181.816L182.759 184.144C182.279 184.08 181.711 183.992 181.055 183.88C180.399 183.752 179.695 183.616 178.943 183.472C178.191 183.328 177.447 183.184 176.711 183.04C175.991 182.896 175.335 182.752 174.743 182.608C174.151 182.464 173.663 182.344 173.279 182.248L173.879 179.968ZM173.663 184.528C173.583 184.896 173.495 185.36 173.399 185.92C173.319 186.48 173.231 187.064 173.135 187.672C173.055 188.28 172.975 188.864 172.895 189.424C172.815 189.968 172.751 190.424 172.703 190.792C173.823 189.88 175.007 189.208 176.255 188.776C177.519 188.344 178.831 188.128 180.191 188.128C181.503 188.128 182.631 188.368 183.575 188.848C184.519 189.312 185.247 189.944 185.759 190.744C186.287 191.528 186.551 192.4 186.551 193.36C186.551 194.432 186.311 195.424 185.831 196.336C185.351 197.232 184.591 197.992 183.551 198.616C182.511 199.224 181.159 199.656 179.495 199.912C177.847 200.168 175.855 200.2 173.519 200.008L172.799 197.536C175.263 197.84 177.319 197.848 178.967 197.56C180.631 197.272 181.879 196.76 182.711 196.024C183.543 195.272 183.959 194.368 183.959 193.312C183.959 192.72 183.783 192.2 183.431 191.752C183.095 191.288 182.631 190.928 182.039 190.672C181.447 190.4 180.767 190.264 179.999 190.264C178.527 190.264 177.175 190.536 175.943 191.08C174.727 191.608 173.719 192.352 172.919 193.312C172.711 193.552 172.543 193.776 172.415 193.984C172.303 194.176 172.199 194.376 172.103 194.584L169.895 194.056C169.991 193.608 170.087 193.072 170.183 192.448C170.295 191.808 170.399 191.128 170.495 190.408C170.591 189.672 170.679 188.936 170.759 188.2C170.839 187.448 170.911 186.728 170.975 186.04C171.039 185.336 171.087 184.72 171.119 184.192L173.663 184.528ZM197.351 179.848C198.007 179.976 198.759 180.104 199.607 180.232C200.471 180.36 201.351 180.48 202.247 180.592C203.159 180.704 204.023 180.8 204.839 180.88C205.671 180.96 206.383 181.016 206.975 181.048L206.663 183.28C206.039 183.232 205.319 183.168 204.503 183.088C203.703 182.992 202.863 182.888 201.983 182.776C201.103 182.664 200.231 182.544 199.367 182.416C198.503 182.288 197.703 182.16 196.967 182.032L197.351 179.848ZM207.599 187.024C207.343 187.216 207.087 187.416 206.831 187.624C206.575 187.832 206.359 188.016 206.183 188.176C205.927 188.4 205.599 188.696 205.199 189.064C204.799 189.416 204.383 189.8 203.951 190.216C203.519 190.616 203.119 190.992 202.751 191.344C202.383 191.68 202.111 191.952 201.935 192.16C202.047 192.144 202.191 192.152 202.367 192.184C202.559 192.2 202.719 192.232 202.847 192.28C203.263 192.344 203.599 192.52 203.855 192.808C204.127 193.096 204.343 193.48 204.503 193.96C204.583 194.168 204.663 194.424 204.743 194.728C204.839 195.016 204.927 195.312 205.007 195.616C205.103 195.904 205.191 196.168 205.271 196.408C205.399 196.824 205.607 197.136 205.895 197.344C206.199 197.552 206.623 197.656 207.167 197.656C207.743 197.656 208.311 197.64 208.871 197.608C209.431 197.56 209.959 197.496 210.455 197.416C210.951 197.336 211.391 197.256 211.775 197.176L211.631 199.696C211.295 199.744 210.847 199.792 210.287 199.84C209.727 199.904 209.151 199.952 208.559 199.984C207.967 200.032 207.463 200.056 207.047 200.056C206.007 200.056 205.175 199.904 204.551 199.6C203.927 199.312 203.479 198.776 203.207 197.992C203.127 197.752 203.039 197.472 202.943 197.152C202.847 196.816 202.751 196.488 202.655 196.168C202.575 195.832 202.503 195.56 202.439 195.352C202.295 194.92 202.103 194.608 201.863 194.416C201.623 194.208 201.351 194.104 201.047 194.104C200.759 194.104 200.471 194.192 200.183 194.368C199.911 194.528 199.639 194.744 199.367 195.016C199.191 195.192 198.967 195.424 198.695 195.712C198.423 195.984 198.119 196.304 197.783 196.672C197.463 197.024 197.127 197.4 196.775 197.8C196.423 198.184 196.071 198.584 195.719 199C195.367 199.4 195.047 199.792 194.759 200.176L192.479 198.592C192.655 198.432 192.863 198.248 193.103 198.04C193.359 197.832 193.623 197.6 193.895 197.344C194.071 197.152 194.367 196.848 194.783 196.432C195.199 196.016 195.687 195.528 196.247 194.968C196.807 194.408 197.399 193.808 198.023 193.168C198.663 192.528 199.295 191.896 199.919 191.272C200.559 190.648 201.151 190.064 201.695 189.52C202.239 188.96 202.703 188.48 203.087 188.08C202.735 188.096 202.319 188.12 201.839 188.152C201.359 188.184 200.855 188.224 200.327 188.272C199.815 188.304 199.303 188.344 198.791 188.392C198.295 188.44 197.831 188.48 197.399 188.512C196.983 188.544 196.623 188.576 196.319 188.608C195.919 188.624 195.551 188.656 195.215 188.704C194.895 188.752 194.599 188.8 194.327 188.848L194.111 186.208C194.383 186.224 194.703 186.24 195.071 186.256C195.455 186.272 195.855 186.28 196.271 186.28C196.527 186.264 196.927 186.248 197.471 186.232C198.015 186.2 198.631 186.168 199.319 186.136C200.023 186.088 200.727 186.04 201.431 185.992C202.151 185.944 202.823 185.896 203.447 185.848C204.071 185.8 204.575 185.752 204.959 185.704C205.167 185.672 205.391 185.632 205.631 185.584C205.887 185.536 206.071 185.488 206.183 185.44L207.599 187.024ZM218.657 181.048C218.961 181.08 219.281 181.104 219.617 181.12C219.969 181.136 220.289 181.144 220.577 181.144C220.817 181.144 221.201 181.144 221.729 181.144C222.273 181.128 222.881 181.112 223.553 181.096C224.241 181.08 224.921 181.064 225.593 181.048C226.265 181.016 226.865 180.984 227.393 180.952C227.937 180.92 228.337 180.896 228.593 180.88C229.025 180.848 229.353 180.816 229.577 180.784C229.817 180.752 230.001 180.712 230.129 180.664L231.449 182.392C231.209 182.552 230.961 182.712 230.705 182.872C230.449 183.032 230.193 183.216 229.937 183.424C229.633 183.648 229.233 183.96 228.737 184.36C228.257 184.744 227.737 185.176 227.177 185.656C226.617 186.12 226.065 186.576 225.521 187.024C224.977 187.472 224.489 187.872 224.057 188.224C224.537 188.064 225.017 187.96 225.497 187.912C225.977 187.848 226.457 187.816 226.937 187.816C228.265 187.816 229.457 188.072 230.513 188.584C231.569 189.096 232.401 189.784 233.009 190.648C233.617 191.512 233.921 192.512 233.921 193.648C233.921 194.912 233.585 196.04 232.913 197.032C232.257 198.024 231.297 198.8 230.033 199.36C228.785 199.92 227.265 200.2 225.473 200.2C224.369 200.2 223.401 200.048 222.569 199.744C221.737 199.44 221.089 199.016 220.625 198.472C220.177 197.912 219.953 197.272 219.953 196.552C219.953 195.96 220.113 195.408 220.433 194.896C220.769 194.368 221.233 193.952 221.825 193.648C222.433 193.328 223.129 193.168 223.913 193.168C225.001 193.168 225.905 193.392 226.625 193.84C227.361 194.272 227.921 194.848 228.305 195.568C228.705 196.288 228.921 197.072 228.953 197.92L226.769 198.232C226.721 197.272 226.441 196.488 225.929 195.88C225.433 195.272 224.761 194.968 223.913 194.968C223.401 194.968 222.977 195.104 222.641 195.376C222.321 195.648 222.161 195.968 222.161 196.336C222.161 196.864 222.425 197.28 222.953 197.584C223.497 197.888 224.193 198.04 225.041 198.04C226.401 198.04 227.561 197.872 228.521 197.536C229.481 197.184 230.209 196.68 230.705 196.024C231.201 195.352 231.449 194.544 231.449 193.6C231.449 192.848 231.225 192.176 230.777 191.584C230.329 190.992 229.713 190.536 228.929 190.216C228.145 189.88 227.249 189.712 226.241 189.712C225.281 189.712 224.401 189.824 223.601 190.048C222.817 190.256 222.081 190.568 221.393 190.984C220.705 191.384 220.025 191.888 219.353 192.496C218.697 193.088 218.017 193.768 217.313 194.536L215.561 192.76C216.041 192.376 216.569 191.944 217.145 191.464C217.721 190.984 218.297 190.504 218.873 190.024C219.465 189.528 220.017 189.064 220.529 188.632C221.057 188.184 221.497 187.816 221.849 187.528C222.185 187.256 222.593 186.928 223.073 186.544C223.553 186.144 224.049 185.728 224.561 185.296C225.073 184.864 225.561 184.456 226.025 184.072C226.489 183.672 226.873 183.336 227.177 183.064C226.921 183.08 226.569 183.096 226.121 183.112C225.673 183.128 225.177 183.152 224.633 183.184C224.105 183.2 223.569 183.224 223.025 183.256C222.481 183.272 221.985 183.296 221.537 183.328C221.089 183.344 220.745 183.36 220.505 183.376C220.217 183.392 219.913 183.416 219.593 183.448C219.289 183.464 219.001 183.488 218.729 183.52L218.657 181.048ZM99.836 216.144C99.836 216.544 99.972 216.888 100.244 217.176C100.516 217.448 100.852 217.584 101.252 217.584C101.652 217.584 101.988 217.448 102.26 217.176C102.548 216.888 102.692 216.544 102.692 216.144C102.692 215.744 102.548 215.408 102.26 215.136C101.988 214.848 101.652 214.704 101.252 214.704C100.852 214.704 100.516 214.848 100.244 215.136C99.972 215.408 99.836 215.744 99.836 216.144ZM98.564 216.144C98.564 215.648 98.684 215.2 98.924 214.8C99.18 214.384 99.508 214.056 99.908 213.816C100.308 213.576 100.756 213.456 101.252 213.456C101.748 213.456 102.196 213.576 102.596 213.816C103.012 214.056 103.34 214.384 103.58 214.8C103.836 215.2 103.964 215.648 103.964 216.144C103.964 216.64 103.836 217.096 103.58 217.512C103.34 217.912 103.012 218.232 102.596 218.472C102.196 218.712 101.748 218.832 101.252 218.832C100.756 218.832 100.308 218.712 99.908 218.472C99.508 218.232 99.18 217.912 98.924 217.512C98.684 217.096 98.564 216.64 98.564 216.144ZM94.868 215.304C94.852 215.416 94.828 215.592 94.796 215.832C94.764 216.056 94.732 216.296 94.7 216.552C94.684 216.792 94.676 217.008 94.676 217.2C94.676 217.632 94.676 218.128 94.676 218.688C94.676 219.248 94.676 219.8 94.676 220.344C94.676 220.888 94.676 221.376 94.676 221.808C94.676 222.128 94.676 222.592 94.676 223.2C94.676 223.792 94.676 224.464 94.676 225.216C94.676 225.952 94.676 226.72 94.676 227.52C94.676 228.304 94.676 229.072 94.676 229.824C94.676 230.56 94.676 231.216 94.676 231.792C94.676 232.368 94.676 232.816 94.676 233.136C94.676 233.792 94.5 234.296 94.148 234.648C93.796 235 93.22 235.176 92.42 235.176C92.052 235.176 91.652 235.168 91.22 235.152C90.804 235.136 90.388 235.112 89.972 235.08C89.556 235.064 89.164 235.04 88.796 235.008L88.58 232.632C89.108 232.728 89.62 232.8 90.116 232.848C90.612 232.88 91.012 232.896 91.316 232.896C91.636 232.896 91.86 232.832 91.988 232.704C92.132 232.56 92.212 232.328 92.228 232.008C92.228 231.816 92.228 231.464 92.228 230.952C92.228 230.44 92.228 229.832 92.228 229.128C92.228 228.424 92.228 227.688 92.228 226.92C92.228 226.136 92.228 225.4 92.228 224.712C92.228 224.008 92.228 223.4 92.228 222.888C92.228 222.36 92.228 222 92.228 221.808C92.228 221.536 92.228 221.12 92.228 220.56C92.228 219.984 92.228 219.392 92.228 218.784C92.228 218.16 92.228 217.624 92.228 217.176C92.228 216.888 92.204 216.552 92.156 216.168C92.124 215.784 92.084 215.496 92.036 215.304H94.868ZM83.66 219.264C83.996 219.296 84.34 219.328 84.692 219.36C85.06 219.392 85.428 219.408 85.796 219.408C86.004 219.408 86.396 219.408 86.972 219.408C87.564 219.408 88.276 219.408 89.108 219.408C89.94 219.408 90.828 219.408 91.772 219.408C92.732 219.408 93.692 219.408 94.652 219.408C95.612 219.408 96.508 219.408 97.34 219.408C98.172 219.408 98.884 219.408 99.476 219.408C100.068 219.408 100.476 219.408 100.7 219.408C101.004 219.408 101.356 219.4 101.756 219.384C102.172 219.352 102.532 219.312 102.836 219.264V221.76C102.5 221.744 102.14 221.736 101.756 221.736C101.372 221.72 101.028 221.712 100.724 221.712C100.5 221.712 100.092 221.712 99.5 221.712C98.908 221.712 98.196 221.712 97.364 221.712C96.532 221.712 95.636 221.712 94.676 221.712C93.732 221.712 92.78 221.712 91.82 221.712C90.876 221.712 89.988 221.712 89.156 221.712C88.324 221.712 87.612 221.712 87.02 221.712C86.444 221.712 86.044 221.712 85.82 221.712C85.452 221.712 85.076 221.72 84.692 221.736C84.324 221.736 83.98 221.752 83.66 221.784V219.264ZM89.42 225.288C89.164 225.8 88.844 226.368 88.46 226.992C88.076 227.6 87.66 228.216 87.212 228.84C86.78 229.448 86.356 230.024 85.94 230.568C85.524 231.096 85.148 231.544 84.812 231.912L82.748 230.496C83.148 230.128 83.564 229.688 83.996 229.176C84.428 228.664 84.844 228.128 85.244 227.568C85.66 226.992 86.044 226.424 86.396 225.864C86.748 225.288 87.044 224.752 87.284 224.256L89.42 225.288ZM99.572 224.232C99.892 224.616 100.236 225.08 100.604 225.624C100.988 226.152 101.372 226.712 101.756 227.304C102.14 227.896 102.5 228.472 102.836 229.032C103.172 229.592 103.46 230.088 103.7 230.52L101.492 231.768C101.236 231.272 100.94 230.736 100.604 230.16C100.284 229.568 99.94 228.976 99.572 228.384C99.22 227.792 98.86 227.232 98.492 226.704C98.14 226.176 97.812 225.728 97.508 225.36L99.572 224.232ZM107.324 225.048C109.436 224.488 111.372 223.824 113.132 223.056C114.908 222.272 116.46 221.464 117.788 220.632C118.636 220.12 119.46 219.544 120.26 218.904C121.076 218.264 121.844 217.6 122.564 216.912C123.284 216.224 123.916 215.56 124.46 214.92L126.476 216.84C125.772 217.56 125.012 218.272 124.196 218.976C123.38 219.68 122.516 220.36 121.604 221.016C120.708 221.656 119.788 222.264 118.844 222.84C117.964 223.384 116.964 223.936 115.844 224.496C114.724 225.04 113.54 225.568 112.292 226.08C111.044 226.576 109.78 227.024 108.5 227.424L107.324 225.048ZM117.356 221.88L120.02 221.184V232.056C120.02 232.376 120.02 232.728 120.02 233.112C120.036 233.48 120.052 233.824 120.068 234.144C120.1 234.464 120.14 234.712 120.188 234.888H117.212C117.228 234.712 117.252 234.464 117.284 234.144C117.316 233.824 117.332 233.48 117.332 233.112C117.348 232.728 117.356 232.376 117.356 232.056V221.88ZM135.092 216.12C135.524 216.408 136.02 216.768 136.58 217.2C137.14 217.616 137.708 218.064 138.284 218.544C138.876 219.024 139.436 219.488 139.964 219.936C140.492 220.384 140.916 220.784 141.236 221.136L139.34 223.08C139.036 222.76 138.636 222.376 138.14 221.928C137.644 221.464 137.108 220.992 136.532 220.512C135.972 220.016 135.412 219.552 134.852 219.12C134.292 218.672 133.788 218.296 133.34 217.992L135.092 216.12ZM132.62 232.176C133.964 231.968 135.204 231.696 136.34 231.36C137.476 231.008 138.516 230.616 139.46 230.184C140.42 229.736 141.284 229.28 142.052 228.816C143.332 228.032 144.508 227.128 145.58 226.104C146.668 225.08 147.62 224.024 148.436 222.936C149.252 221.848 149.9 220.792 150.38 219.768L151.844 222.384C151.268 223.424 150.556 224.464 149.708 225.504C148.876 226.544 147.932 227.544 146.876 228.504C145.82 229.448 144.668 230.304 143.42 231.072C142.62 231.568 141.74 232.048 140.78 232.512C139.836 232.976 138.812 233.392 137.708 233.76C136.62 234.128 135.46 234.424 134.228 234.648L132.62 232.176ZM161.348 231.792C161.348 231.536 161.348 231.072 161.348 230.4C161.348 229.712 161.348 228.904 161.348 227.976C161.348 227.032 161.348 226.056 161.348 225.048C161.348 224.024 161.348 223.032 161.348 222.072C161.348 221.112 161.348 220.264 161.348 219.528C161.348 218.792 161.348 218.256 161.348 217.92C161.348 217.536 161.332 217.096 161.3 216.6C161.268 216.088 161.212 215.632 161.132 215.232H164.084C164.052 215.616 164.012 216.056 163.964 216.552C163.932 217.048 163.916 217.504 163.916 217.92C163.916 218.464 163.916 219.152 163.916 219.984C163.916 220.8 163.916 221.688 163.916 222.648C163.916 223.608 163.916 224.576 163.916 225.552C163.916 226.528 163.916 227.448 163.916 228.312C163.916 229.16 163.916 229.896 163.916 230.52C163.916 231.144 163.916 231.568 163.916 231.792C163.916 232.048 163.924 232.36 163.94 232.728C163.956 233.096 163.98 233.472 164.012 233.856C164.044 234.224 164.076 234.56 164.108 234.864H161.156C161.22 234.448 161.268 233.952 161.3 233.376C161.332 232.784 161.348 232.256 161.348 231.792ZM163.364 221.496C164.148 221.72 165.028 222 166.004 222.336C166.98 222.656 167.964 223.008 168.956 223.392C169.948 223.76 170.892 224.128 171.788 224.496C172.684 224.864 173.444 225.2 174.068 225.504L172.988 228.12C172.316 227.752 171.556 227.384 170.708 227.016C169.876 226.632 169.02 226.264 168.14 225.912C167.26 225.56 166.404 225.24 165.572 224.952C164.756 224.664 164.02 224.416 163.364 224.208V221.496Z" fill="black"/>
<path d="M143.568 43.0768C142.249 42.8738 140.921 42.751 139.593 42.6922C138.274 42.6388 136.834 42.6068 135.279 42.6068C133.755 42.6068 132.24 42.6388 130.734 42.6922C129.237 42.751 127.855 42.8525 126.599 43.0127C126.171 43.0554 125.832 42.9593 125.583 42.735C125.333 42.4946 125.244 42.1154 125.315 41.6026C125.574 40.0537 126.051 38.3873 126.741 36.6034C127.441 34.8087 128.194 33.0729 129.005 31.3904C129.825 29.7133 130.511 28.2712 131.073 27.0748C131.594 25.9639 132.213 24.6767 132.926 23.2079C133.639 21.7444 134.268 20.1474 134.816 18.4222C135.359 16.7024 135.636 14.8704 135.636 12.9316C135.636 11.6657 135.337 10.6349 134.745 9.83372C134.147 9.03789 133.417 8.63731 132.552 8.63731C131.732 8.63731 130.93 8.95243 130.146 9.57734C129.37 10.1916 128.568 11.2117 127.739 12.6325C127.049 13.8182 126.732 13.7167 126.795 12.3334C126.83 10.7417 126.804 9.07528 126.723 7.33408C126.639 5.58219 126.55 3.95849 126.456 2.46298C126.358 1.38408 126.777 0.882016 127.704 0.967473C128.426 1.0102 129.094 0.978155 129.7 0.860651C130.315 0.732465 130.97 0.614961 131.661 0.497456C132.36 0.369269 133.221 0.305176 134.245 0.305176C137.49 0.305176 139.887 1.26658 141.447 3.18938C143.002 5.11217 143.782 8.06047 143.782 12.0343C143.782 13.7755 143.572 15.4686 143.158 17.119C142.739 18.7587 142.142 20.4839 141.357 22.2892C140.582 24.0998 139.633 26.1294 138.506 28.378C138.078 29.3074 137.694 30.3222 137.365 31.4332C137.044 32.5334 136.763 33.6551 136.527 34.8087C137.953 34.7393 139.183 34.4776 140.217 34.0183C141.259 33.5643 142.414 32.715 143.675 31.4759C144.067 31.0807 144.37 30.9525 144.584 31.0913C144.807 31.2355 144.905 31.5827 144.869 32.1382C144.7 35.3162 144.7 38.4834 144.869 41.6454C144.963 42.7136 144.53 43.1889 143.568 43.0768Z" fill="#F08300"/>
<path d="M84.6467 137.152C91.4918 137.434 98.252 139.159 96.9411 150.062C95.6515 160.787 87.4879 162.695 80.524 162.407C73.5601 162.119 70.5183 155.524 71.6295 148.451C72.7407 141.377 77.6828 136.864 84.6467 137.152Z" fill="#F08300" fill-opacity="0.75"/>
<path d="M84.4694 136.866C91.2921 137.148 95.9225 143.108 94.8117 150.179C93.7008 157.25 87.4078 162.826 80.5851 162.544C73.7496 162.018 70.895 156.458 71.2771 149.492C72.5109 142.078 75.5415 137.103 84.4694 136.866Z" fill="#FCC809"/>
<path d="M75.1355 148.477C75.6719 144.363 79.4262 141.091 83.5209 141.168C87.6157 141.245 90.5003 144.643 89.9639 148.757L89.2342 154.354C89.1638 154.894 88.6707 155.324 88.1328 155.314L75.252 155.07C74.7142 155.06 74.3353 154.614 74.4058 154.073L75.1355 148.477Z" fill="#F08300"/>
<path d="M76.6139 148.448C77.0487 145.113 80.0918 142.461 83.411 142.523C86.7302 142.586 89.0684 145.34 88.6336 148.675L87.8105 154.988C87.7637 155.347 87.4361 155.633 87.0787 155.626L76.353 155.423C75.9957 155.416 75.744 155.12 75.7908 154.761L76.6139 148.448Z" fill="#FCC809"/>
<ellipse cx="3.07852" cy="4.04818" rx="3.07852" ry="4.04818" transform="matrix(-0.994119 -0.0173822 -0.172142 0.996919 91.9626 149.241)" fill="#F08300"/>
<ellipse cx="3.07852" cy="4.04818" rx="3.07852" ry="4.04818" transform="matrix(-0.994119 -0.0173822 -0.172142 0.996919 91.9626 149.241)" fill="#F08300"/>
<ellipse cx="3.07852" cy="4.04818" rx="3.07852" ry="4.04818" transform="matrix(-0.994119 -0.0173822 -0.172142 0.996919 91.9626 149.241)" fill="#F08300"/>
<path d="M90.0741 153.218C89.6974 155.399 88.1494 156.888 87.1039 157.128C88.6572 157.155 90.2218 155.408 90.5985 153.227C90.9751 151.045 90.0213 149.255 88.468 149.228C89.6693 150.024 90.4508 151.036 90.0741 153.218Z" fill="white"/>
<ellipse cx="3.07538" cy="4.04955" rx="3.07538" ry="4.04955" transform="matrix(0.976098 0.117848 -0.205191 0.994308 73.6812 148.707)" fill="#F08300"/>
<ellipse cx="3.07538" cy="4.04955" rx="3.07538" ry="4.04955" transform="matrix(0.976098 0.117848 -0.205191 0.994308 73.6812 148.707)" fill="#F08300"/>
<ellipse cx="3.07538" cy="4.04955" rx="3.07538" ry="4.04955" transform="matrix(0.976098 0.117848 -0.205191 0.994308 73.6812 148.707)" fill="#F08300"/>
<path d="M73.9419 153.035C73.7712 155.203 74.817 156.72 75.7022 156.987C74.2974 156.97 73.297 155.197 73.4677 153.029C73.6384 150.86 74.9157 149.116 76.3205 149.133C75.0528 149.887 74.1127 150.866 73.9419 153.035Z" fill="white"/>
<path d="M111.064 113.098C120.215 110.48 129.848 109.801 132.612 124.765C135.331 139.485 125.342 145.57 116.032 148.234C106.722 150.898 99.9887 143.522 98.5398 133.701C97.0908 123.879 101.753 115.762 111.064 113.098Z" fill="#F08300" fill-opacity="0.75"/>
<path d="M110.712 112.798C119.833 110.189 128.402 116.032 129.85 125.851C131.298 135.669 125.291 145.778 116.169 148.388C106.93 150.68 100.871 144.59 98.5038 135.228C97.0765 124.904 99.0259 117.013 110.712 112.798Z" fill="#FCC809"/>
<path d="M103.199 132.31C102.201 126.587 105.8 120.581 111.236 118.894C116.673 117.206 121.889 120.477 122.887 126.199L124.212 133.8C124.342 134.544 123.874 135.325 123.167 135.545L106.04 140.861C105.333 141.08 104.655 140.655 104.525 139.911L103.199 132.31Z" fill="#F08300"/>
<path d="M105.135 131.605C104.327 126.967 107.243 122.098 111.65 120.731C116.057 119.363 120.285 122.014 121.094 126.652L122.595 135.26C122.681 135.754 122.37 136.273 121.9 136.419L107.643 140.844C107.173 140.989 106.723 140.707 106.636 140.213L105.135 131.605Z" fill="#FCC809"/>
<ellipse cx="4.29274" cy="5.58805" rx="4.29274" ry="5.58805" transform="matrix(-0.946114 0.295119 0.133086 1.00772 125.706 125.859)" fill="#F08300"/>
<ellipse cx="4.29274" cy="5.58805" rx="4.29274" ry="5.58805" transform="matrix(-0.946114 0.295119 0.133086 1.00772 125.706 125.859)" fill="#F08300"/>
<ellipse cx="4.29274" cy="5.58805" rx="4.29274" ry="5.58805" transform="matrix(-0.946114 0.295119 0.133086 1.00772 125.706 125.859)" fill="#F08300"/>
<path d="M124.852 131.934C125.254 134.978 123.824 137.619 122.543 138.393C124.605 137.75 125.95 134.761 125.548 131.717C125.146 128.673 123.149 126.727 121.087 127.37C123.001 127.896 124.45 128.89 124.852 131.934Z" fill="white"/>
<ellipse cx="4.28794" cy="5.59017" rx="4.28794" ry="5.59017" transform="matrix(0.958849 -0.194394 0.100703 1.01565 101.356 133.144)" fill="#F08300"/>
<ellipse cx="4.28794" cy="5.59017" rx="4.28794" ry="5.59017" transform="matrix(0.958849 -0.194394 0.100703 1.01565 101.356 133.144)" fill="#F08300"/>
<ellipse cx="4.28794" cy="5.59017" rx="4.28794" ry="5.59017" transform="matrix(0.958849 -0.194394 0.100703 1.01565 101.356 133.144)" fill="#F08300"/>
<path d="M103.484 138.741C104.152 141.679 106.158 143.223 107.436 143.189C105.575 143.78 103.524 141.878 102.855 138.941C102.187 136.004 103.154 133.144 105.015 132.553C103.652 134.101 102.815 135.804 103.484 138.741Z" fill="white"/>
<path d="M96.7517 87.1036C105.175 97.2955 111.51 109.541 94.8566 124.12C78.4752 138.461 65.3487 129.692 56.7792 119.323C48.2098 108.954 53.347 94.665 64.4864 85.579C75.6257 76.493 88.1823 76.7347 96.7517 87.1036Z" fill="#F08300" fill-opacity="0.75"/>
<path d="M96.9156 86.4199C105.311 96.5785 103.09 112.177 91.9545 121.26C80.8189 130.343 65.0653 129.776 56.6696 119.618C48.5935 109.071 52.5503 96.6112 62.6038 86.6469C74.3681 77.2226 85.0978 74.0407 96.9156 86.4199Z" fill="#FCC809"/>
<path d="M69.7836 89.9194C75.6672 84.8677 84.6235 85.6028 89.7882 91.5614C94.9529 97.52 94.37 106.446 88.4864 111.497L79.0438 119.605C78.2115 120.32 76.9443 120.216 76.2137 119.373L60.1568 100.847C59.4261 100.004 59.5086 98.7416 60.341 98.0269L69.7836 89.9194Z" fill="#F08300"/>
<path d="M71.571 92.1195C76.3401 88.0246 83.6 88.6205 87.7864 93.4505C91.9728 98.2804 91.5004 105.515 86.7313 109.61L76.3407 118.532C75.7877 119.007 74.9458 118.937 74.4604 118.377L61.0581 102.915C60.5726 102.355 60.6274 101.516 61.1804 101.041L71.571 92.1195Z" fill="#FCC809"/>
<ellipse cx="5.84477" cy="8.27746" rx="5.84477" ry="8.27746" transform="matrix(-0.661452 -0.760822 -0.777585 0.615438 89.5742 115.784)" fill="#F08300"/>
<ellipse cx="5.84477" cy="8.27746" rx="5.84477" ry="8.27746" transform="matrix(-0.661452 -0.760822 -0.777585 0.615438 89.5742 115.784)" fill="#F08300"/>
<ellipse cx="5.84477" cy="8.27746" rx="5.84477" ry="8.27746" transform="matrix(-0.661452 -0.760822 -0.777585 0.615438 89.5742 115.784)" fill="#F08300"/>
<path d="M81.6834 119.089C78.2041 121.843 74.1685 121.88 72.4932 120.751C74.4554 123.008 78.8665 122.605 82.3458 119.851C85.825 117.098 87.0549 113.036 85.0927 110.779C85.5462 113.694 85.1626 116.336 81.6834 119.089Z" fill="white"/>
<ellipse cx="5.84342" cy="8.27801" rx="5.84342" ry="8.27801" transform="matrix(0.576146 0.826461 -0.796856 0.590615 66.7747 88.8975)" fill="#F08300"/>
<ellipse cx="5.84342" cy="8.27801" rx="5.84342" ry="8.27801" transform="matrix(0.576146 0.826461 -0.796856 0.590615 66.7747 88.8975)" fill="#F08300"/>
<ellipse cx="5.84342" cy="8.27801" rx="5.84342" ry="8.27801" transform="matrix(0.576146 0.826461 -0.796856 0.590615 66.7747 88.8975)" fill="#F08300"/>
<path d="M61.1698 95.7979C57.9731 98.8263 57.2375 102.606 58.01 104.272C56.2257 102.242 57.3708 98.1408 60.5675 95.1124C63.7642 92.0839 67.8022 91.275 69.5865 93.3055C66.9208 92.6335 64.3666 92.7694 61.1698 95.7979Z" fill="white"/>
<path d="M150.585 128.704C150.585 127.936 151.017 127.504 151.785 127.504H154.377V117.352H152.289C151.521 117.352 151.089 116.92 151.089 116.152V115.792C151.089 115.072 151.449 114.664 152.169 114.472C153.201 114.232 154.017 113.896 154.809 113.488C155.313 113.2 155.721 113.08 156.297 113.08H157.449C158.217 113.08 158.649 113.512 158.649 114.28V127.504H160.665C161.433 127.504 161.865 127.936 161.865 128.704V129.76C161.865 130.528 161.433 130.96 160.665 130.96H151.785C151.017 130.96 150.585 130.528 150.585 129.76V128.704ZM165.402 114.28C165.402 113.512 165.834 113.08 166.602 113.08H171.69C175.602 113.08 178.842 114.496 178.842 118.912C178.842 123.16 175.578 125.032 171.786 125.032H169.698V129.76C169.698 130.528 169.266 130.96 168.498 130.96H166.602C165.834 130.96 165.402 130.528 165.402 129.76V114.28ZM169.698 121.648H171.57C173.658 121.648 174.666 120.664 174.666 118.912C174.666 117.112 173.514 116.488 171.45 116.488H169.698V121.648ZM192.751 118.36C192.751 117.592 193.183 117.16 193.951 117.16H204.295C205.063 117.16 205.495 117.592 205.495 118.36V118.96C205.495 119.728 205.063 120.16 204.295 120.16H193.951C193.183 120.16 192.751 119.728 192.751 118.96V118.36ZM192.751 125.416V124.816C192.751 124.048 193.183 123.616 193.951 123.616H204.295C205.063 123.616 205.495 124.048 205.495 124.816V125.416C205.495 126.184 205.063 126.616 204.295 126.616H193.951C193.183 126.616 192.751 126.184 192.751 125.416ZM220.312 128.704C220.312 127.936 220.744 127.504 221.512 127.504H224.104V117.352H222.016C221.248 117.352 220.816 116.92 220.816 116.152V115.792C220.816 115.072 221.176 114.664 221.896 114.472C222.928 114.232 223.744 113.896 224.536 113.488C225.04 113.2 225.448 113.08 226.024 113.08H227.176C227.944 113.08 228.376 113.512 228.376 114.28V127.504H230.392C231.16 127.504 231.592 127.936 231.592 128.704V129.76C231.592 130.528 231.16 130.96 230.392 130.96H221.512C220.744 130.96 220.312 130.528 220.312 129.76V128.704ZM251.041 119.896V114.4H246.049V119.896H251.041ZM234.745 131.056V112.144C234.745 111.376 235.177 110.944 235.945 110.944H253.177C253.945 110.944 254.377 111.376 254.377 112.144V128.344C254.377 130.12 254.041 131.056 252.985 131.632C252.145 132.088 251.065 132.232 249.601 132.28C248.857 132.28 248.449 131.92 248.257 131.224C248.161 130.888 248.041 130.528 247.921 130.192C247.609 129.328 247.945 128.848 248.857 128.872H250.441C250.873 128.872 251.041 128.728 251.041 128.296V123.352H238.081V131.056C238.081 131.824 237.649 132.256 236.881 132.256H235.945C235.177 132.256 234.745 131.824 234.745 131.056ZM238.081 119.896H242.737V114.4H238.081V119.896Z" fill="#FF0F0F"/>
</svg>
