<svg width="350" height="46" viewBox="0 0 350 46" fill="none" xmlns="http://www.w3.org/2000/svg">
<path d="M3.464 38.216C6.312 38.12 9.608 38.024 13.352 37.928C17.128 37.8 21.08 37.656 25.208 37.496C29.368 37.336 33.464 37.176 37.496 37.016L37.304 42.296C33.4 42.52 29.432 42.712 25.4 42.872C21.4 43.064 17.592 43.24 13.976 43.4C10.36 43.592 7.096 43.752 4.184 43.88L3.464 38.216ZM3.224 23.96H43.112V29.336H3.224V23.96ZM11.768 14.696H34.28V19.976H11.768V14.696ZM14.936 27.464L21.512 29.24C20.776 30.744 19.992 32.28 19.16 33.848C18.36 35.384 17.56 36.856 16.76 38.264C15.992 39.672 15.256 40.92 14.552 42.008L9.512 40.328C10.152 39.144 10.824 37.816 11.528 36.344C12.232 34.84 12.872 33.32 13.448 31.784C14.056 30.216 14.552 28.776 14.936 27.464ZM26.888 32.408L31.928 29.72C33.368 30.968 34.792 32.312 36.2 33.752C37.608 35.192 38.904 36.648 40.088 38.12C41.272 39.56 42.232 40.888 42.968 42.104L37.592 45.368C36.952 44.152 36.04 42.776 34.856 41.24C33.704 39.736 32.424 38.2 31.016 36.632C29.64 35.064 28.264 33.656 26.888 32.408ZM22.952 5.816C21.672 7.64 20.024 9.512 18.008 11.432C15.992 13.32 13.752 15.112 11.288 16.808C8.824 18.504 6.264 19.992 3.608 21.272C3.416 20.792 3.112 20.264 2.696 19.688C2.312 19.08 1.896 18.504 1.448 17.96C1.032 17.384 0.616 16.888 0.2 16.472C2.952 15.256 5.592 13.752 8.12 11.96C10.648 10.136 12.904 8.216 14.888 6.2C16.904 4.152 18.504 2.184 19.688 0.295998H25.736C27.016 2.056 28.44 3.72 30.008 5.288C31.576 6.856 33.24 8.296 35 9.608C36.76 10.888 38.568 12.04 40.424 13.064C42.312 14.056 44.216 14.904 46.136 15.608C45.432 16.312 44.76 17.144 44.12 18.104C43.48 19.064 42.904 19.976 42.392 20.84C39.992 19.72 37.56 18.344 35.096 16.712C32.632 15.08 30.328 13.32 28.184 11.432C26.072 9.544 24.328 7.672 22.952 5.816ZM61.352 6.2V9.32H80.84V6.2H61.352ZM55.544 1.736H86.936V13.784H55.544V1.736ZM59.096 25.208V27.272H82.664V25.208H59.096ZM59.096 30.92V32.984H82.664V30.92H59.096ZM59.096 19.544V21.56H82.664V19.544H59.096ZM53.384 15.608H88.664V36.92H53.384V15.608ZM62.696 35.912L67.784 39.512C66.504 40.28 65 41.032 63.272 41.768C61.576 42.504 59.816 43.176 57.992 43.784C56.2 44.424 54.488 44.936 52.856 45.32C52.312 44.712 51.608 44.008 50.744 43.208C49.912 42.408 49.16 41.736 48.488 41.192C50.184 40.808 51.928 40.328 53.72 39.752C55.512 39.176 57.208 38.552 58.808 37.88C60.408 37.208 61.704 36.552 62.696 35.912ZM73.208 39.8L78.296 36.2C79.992 36.616 81.784 37.144 83.672 37.784C85.56 38.392 87.384 39.016 89.144 39.656C90.936 40.264 92.488 40.824 93.8 41.336L88.712 45.416C87.464 44.84 85.944 44.2 84.152 43.496C82.392 42.824 80.552 42.168 78.632 41.528C76.744 40.888 74.936 40.312 73.208 39.8ZM119.288 11.144H135.8V15.848H119.288V11.144ZM111.032 38.984C112.472 38.76 114.136 38.488 116.024 38.168C117.944 37.848 119.976 37.512 122.12 37.16C124.264 36.776 126.392 36.392 128.504 36.008L128.984 41C126.2 41.64 123.4 42.264 120.584 42.872C117.768 43.512 115.208 44.072 112.904 44.552L111.032 38.984ZM116.024 2.36H121.592V40.28H116.024V2.36ZM119.288 2.36H138.44V24.824H119.288V19.88H132.728V7.304H119.288V2.36ZM129.272 21.512C129.88 24.392 130.712 27.064 131.768 29.528C132.824 31.96 134.168 34.104 135.8 35.96C137.432 37.816 139.432 39.256 141.8 40.28C141.384 40.664 140.936 41.128 140.456 41.672C139.976 42.248 139.512 42.84 139.064 43.448C138.648 44.088 138.312 44.664 138.056 45.176C135.464 43.8 133.288 42.008 131.528 39.8C129.8 37.56 128.376 34.968 127.256 32.024C126.136 29.08 125.224 25.848 124.52 22.328L129.272 21.512ZM136.232 25.16L140.744 28.28C139.432 29.56 138.04 30.824 136.568 32.072C135.128 33.288 133.8 34.328 132.584 35.192L129.032 32.456C129.8 31.816 130.616 31.08 131.48 30.248C132.376 29.416 133.24 28.552 134.072 27.656C134.904 26.76 135.624 25.928 136.232 25.16ZM98.552 2.264H110.504V7.448H103.928V45.32H98.552V2.264ZM108.92 2.264H109.928L110.744 2.072L114.68 4.328C114.232 5.736 113.752 7.224 113.24 8.792C112.728 10.36 112.216 11.912 111.704 13.448C111.192 14.984 110.68 16.376 110.168 17.624C111.736 19.48 112.744 21.24 113.192 22.904C113.672 24.536 113.912 26.056 113.912 27.464C113.912 29.064 113.736 30.376 113.384 31.4C113.032 32.424 112.456 33.224 111.656 33.8C111.272 34.088 110.824 34.312 110.312 34.472C109.832 34.632 109.336 34.76 108.824 34.856C108.376 34.92 107.848 34.952 107.24 34.952C106.664 34.952 106.072 34.952 105.464 34.952C105.432 34.216 105.304 33.352 105.08 32.36C104.888 31.368 104.6 30.52 104.216 29.816C104.664 29.848 105.064 29.864 105.416 29.864C105.8 29.864 106.136 29.864 106.424 29.864C106.68 29.864 106.92 29.832 107.144 29.768C107.4 29.672 107.64 29.56 107.864 29.432C108.152 29.208 108.36 28.872 108.488 28.424C108.648 27.944 108.712 27.368 108.68 26.696C108.68 25.576 108.44 24.296 107.96 22.856C107.512 21.384 106.568 19.848 105.128 18.248C105.48 17.16 105.832 15.96 106.184 14.648C106.568 13.336 106.92 12.024 107.24 10.712C107.592 9.368 107.912 8.12 108.2 6.968C108.52 5.784 108.76 4.808 108.92 4.04V2.264ZM153.704 14.696H180.248V20.216H153.704V14.696ZM167 26.216H183.176V31.64H167V26.216ZM163.976 17.912H169.976V41.096L163.976 40.376V17.912ZM152.504 22.856L158.504 23.48C157.864 28.376 156.776 32.696 155.24 36.44C153.704 40.184 151.56 43.24 148.808 45.608C148.488 45.256 148.04 44.824 147.464 44.312C146.888 43.8 146.28 43.304 145.64 42.824C145.032 42.344 144.504 41.96 144.056 41.672C146.648 39.752 148.6 37.176 149.912 33.944C151.224 30.68 152.088 26.984 152.504 22.856ZM157.16 28.904C157.896 31.08 158.856 32.856 160.04 34.232C161.256 35.576 162.648 36.6 164.216 37.304C165.816 37.976 167.56 38.44 169.448 38.696C171.336 38.952 173.336 39.08 175.448 39.08C175.96 39.08 176.648 39.08 177.512 39.08C178.408 39.08 179.384 39.08 180.44 39.08C181.528 39.08 182.632 39.08 183.752 39.08C184.872 39.048 185.912 39.032 186.872 39.032C187.832 39 188.632 38.968 189.272 38.936C188.984 39.416 188.696 40.008 188.408 40.712C188.152 41.384 187.912 42.088 187.688 42.824C187.464 43.56 187.304 44.232 187.208 44.84H184.76H175.16C172.376 44.84 169.816 44.648 167.48 44.264C165.144 43.88 163.032 43.176 161.144 42.152C159.288 41.16 157.624 39.72 156.152 37.832C154.712 35.944 153.48 33.48 152.456 30.44L157.16 28.904ZM163.88 0.295998H170.024V9.032H163.88V0.295998ZM146.408 5.144H187.64V17.192H181.736V10.568H152.072V17.192H146.408V5.144Z" fill="#F08300"/>
<path d="M204.952 15.016C204.931 15.1867 204.899 15.4533 204.856 15.816C204.813 16.1573 204.771 16.5093 204.728 16.872C204.707 17.2133 204.685 17.5227 204.664 17.8C204.621 18.4187 204.579 19.1013 204.536 19.848C204.515 20.5733 204.493 21.3307 204.472 22.12C204.451 22.888 204.429 23.6667 204.408 24.456C204.408 25.2453 204.408 26.0133 204.408 26.76C204.408 27.6347 204.419 28.6053 204.44 29.672C204.461 30.7173 204.483 31.7627 204.504 32.808C204.547 33.832 204.568 34.7707 204.568 35.624C204.589 36.4773 204.6 37.1387 204.6 37.608C204.6 38.9307 204.451 39.9547 204.152 40.68C203.875 41.4053 203.469 41.9067 202.936 42.184C202.403 42.4827 201.784 42.632 201.08 42.632C200.312 42.632 199.491 42.472 198.616 42.152C197.741 41.8533 196.92 41.4267 196.152 40.872C195.405 40.3173 194.787 39.6773 194.296 38.952C193.827 38.2053 193.592 37.4053 193.592 36.552C193.592 35.528 193.976 34.5147 194.744 33.512C195.533 32.488 196.568 31.5493 197.848 30.696C199.149 29.8427 200.547 29.16 202.04 28.648C203.469 28.1147 204.941 27.7307 206.456 27.496C207.971 27.24 209.336 27.112 210.552 27.112C212.195 27.112 213.677 27.3893 215 27.944C216.323 28.4773 217.379 29.2667 218.168 30.312C218.957 31.3573 219.352 32.616 219.352 34.088C219.352 35.3253 219.117 36.4667 218.648 37.512C218.179 38.5573 217.421 39.464 216.376 40.232C215.352 40.9787 213.987 41.5653 212.28 41.992C211.555 42.1413 210.829 42.248 210.104 42.312C209.4 42.3973 208.728 42.4613 208.088 42.504L206.616 38.376C207.341 38.376 208.035 38.3653 208.696 38.344C209.379 38.3013 209.997 38.2373 210.552 38.152C211.427 37.9813 212.216 37.7253 212.92 37.384C213.624 37.0427 214.179 36.5947 214.584 36.04C214.989 35.4853 215.192 34.824 215.192 34.056C215.192 33.3307 214.989 32.712 214.584 32.2C214.2 31.688 213.656 31.2933 212.952 31.016C212.248 30.7387 211.427 30.6 210.488 30.6C209.144 30.6 207.779 30.7387 206.392 31.016C205.027 31.2933 203.715 31.6773 202.456 32.168C201.517 32.5307 200.675 32.9573 199.928 33.448C199.181 33.9173 198.595 34.408 198.168 34.92C197.741 35.432 197.528 35.9227 197.528 36.392C197.528 36.648 197.603 36.8933 197.752 37.128C197.923 37.3413 198.136 37.5333 198.392 37.704C198.648 37.8747 198.904 38.0133 199.16 38.12C199.437 38.2053 199.672 38.248 199.864 38.248C200.163 38.248 200.408 38.1627 200.6 37.992C200.792 37.8 200.888 37.4373 200.888 36.904C200.888 36.328 200.867 35.5067 200.824 34.44C200.803 33.352 200.771 32.1467 200.728 30.824C200.707 29.5013 200.696 28.1893 200.696 26.888C200.696 25.992 200.696 25.0853 200.696 24.168C200.717 23.2507 200.728 22.376 200.728 21.544C200.728 20.712 200.728 19.976 200.728 19.336C200.749 18.696 200.76 18.1947 200.76 17.832C200.76 17.5973 200.749 17.2987 200.728 16.936C200.707 16.5733 200.675 16.2107 200.632 15.848C200.611 15.464 200.579 15.1867 200.536 15.016H204.952ZM214.072 18.472C214.883 18.856 215.789 19.3253 216.792 19.88C217.816 20.4347 218.787 20.9893 219.704 21.544C220.643 22.0773 221.389 22.5573 221.944 22.984L220.024 26.248C219.619 25.9067 219.085 25.5227 218.424 25.096C217.784 24.6693 217.08 24.232 216.312 23.784C215.565 23.336 214.84 22.92 214.136 22.536C213.432 22.1307 212.824 21.8107 212.312 21.576L214.072 18.472ZM194.456 20.232C195.395 20.3387 196.216 20.4133 196.92 20.456C197.645 20.4773 198.296 20.488 198.872 20.488C199.704 20.488 200.621 20.456 201.624 20.392C202.627 20.3067 203.651 20.2 204.696 20.072C205.741 19.9227 206.755 19.752 207.736 19.56C208.739 19.368 209.645 19.1547 210.456 18.92L210.552 22.888C209.656 23.1013 208.685 23.2933 207.64 23.464C206.595 23.6133 205.539 23.752 204.472 23.88C203.427 24.008 202.424 24.104 201.464 24.168C200.525 24.232 199.704 24.264 199 24.264C197.933 24.264 197.059 24.2533 196.376 24.232C195.693 24.2107 195.075 24.168 194.52 24.104L194.456 20.232ZM239.64 21.576V23.176H248.024V21.576H239.64ZM239.64 17.448V19.016H248.024V17.448H239.64ZM235.96 14.728H251.896V25.896H235.96V14.728ZM234.328 27.304H252.92V30.44H234.328V27.304ZM233.528 32.232H253.592V35.496H233.528V32.232ZM245.304 30.056H249.176V40.072C249.176 40.9467 249.069 41.6293 248.856 42.12C248.664 42.632 248.259 43.016 247.64 43.272C247.043 43.5493 246.328 43.7093 245.496 43.752C244.685 43.816 243.736 43.848 242.648 43.848C242.584 43.336 242.435 42.76 242.2 42.12C241.965 41.48 241.72 40.9147 241.464 40.424C242.125 40.4453 242.776 40.4667 243.416 40.488C244.077 40.488 244.515 40.488 244.728 40.488C244.963 40.4667 245.112 40.424 245.176 40.36C245.261 40.2747 245.304 40.1467 245.304 39.976V30.056ZM235.64 37.096L238.328 35.304C239.011 35.9227 239.725 36.6267 240.472 37.416C241.219 38.2053 241.795 38.9093 242.2 39.528L239.352 41.544C239.117 41.1387 238.787 40.68 238.36 40.168C237.955 39.656 237.507 39.1333 237.016 38.6C236.547 38.0453 236.088 37.544 235.64 37.096ZM231.256 20.872L234.616 22.28C233.848 23.6027 232.941 24.9253 231.896 26.248C230.851 27.5707 229.752 28.8293 228.6 30.024C227.448 31.1973 226.317 32.2213 225.208 33.096C225.101 32.7973 224.941 32.4027 224.728 31.912C224.536 31.4 224.312 30.888 224.056 30.376C223.821 29.864 223.597 29.4587 223.384 29.16C224.344 28.4773 225.304 27.6987 226.264 26.824C227.224 25.928 228.141 24.9787 229.016 23.976C229.891 22.952 230.637 21.9173 231.256 20.872ZM230.424 13.864L234.072 15.336C233.368 16.3173 232.547 17.3093 231.608 18.312C230.691 19.2933 229.72 20.2213 228.696 21.096C227.672 21.9707 226.648 22.7387 225.624 23.4C225.496 23.1013 225.315 22.7493 225.08 22.344C224.867 21.9387 224.632 21.5333 224.376 21.128C224.141 20.7227 223.928 20.392 223.736 20.136C224.568 19.624 225.411 19.016 226.264 18.312C227.117 17.608 227.907 16.872 228.632 16.104C229.379 15.3147 229.976 14.568 230.424 13.864ZM228.088 28.04L231.64 24.488L231.832 24.552V43.848H228.088V28.04ZM257.656 20.04C258.339 20.1253 259.064 20.1893 259.832 20.232C260.621 20.2533 261.315 20.264 261.912 20.264C263.235 20.264 264.568 20.1893 265.912 20.04C267.277 19.8907 268.589 19.6987 269.848 19.464C271.107 19.208 272.248 18.92 273.272 18.6L273.4 22.312C272.483 22.5467 271.384 22.792 270.104 23.048C268.845 23.2827 267.512 23.4853 266.104 23.656C264.696 23.8053 263.309 23.88 261.944 23.88C261.304 23.88 260.653 23.8693 259.992 23.848C259.331 23.8267 258.648 23.7947 257.944 23.752L257.656 20.04ZM270.104 15.24C269.976 15.7733 269.805 16.4667 269.592 17.32C269.379 18.1733 269.133 19.0693 268.856 20.008C268.6 20.9467 268.323 21.8747 268.024 22.792C267.555 24.328 266.936 25.96 266.168 27.688C265.4 29.416 264.568 31.1013 263.672 32.744C262.776 34.3867 261.869 35.848 260.952 37.128L257.08 35.144C257.805 34.248 258.52 33.256 259.224 32.168C259.928 31.08 260.589 29.96 261.208 28.808C261.827 27.656 262.381 26.5467 262.872 25.48C263.384 24.392 263.789 23.4107 264.088 22.536C264.493 21.4053 264.845 20.1467 265.144 18.76C265.464 17.352 265.645 16.0293 265.688 14.792L270.104 15.24ZM277.592 25.192C277.549 25.8747 277.528 26.5573 277.528 27.24C277.549 27.9013 277.571 28.584 277.592 29.288C277.613 29.7787 277.635 30.408 277.656 31.176C277.699 31.9227 277.741 32.7227 277.784 33.576C277.827 34.408 277.859 35.208 277.88 35.976C277.923 36.7227 277.944 37.32 277.944 37.768C277.944 38.7493 277.741 39.6453 277.336 40.456C276.931 41.2453 276.28 41.8747 275.384 42.344C274.509 42.8133 273.304 43.048 271.768 43.048C270.445 43.048 269.251 42.8453 268.184 42.44C267.117 42.056 266.264 41.48 265.624 40.712C264.984 39.9227 264.664 38.9413 264.664 37.768C264.664 36.7227 264.941 35.784 265.496 34.952C266.051 34.0987 266.851 33.4373 267.896 32.968C268.963 32.4773 270.243 32.232 271.736 32.232C273.613 32.232 275.341 32.4987 276.92 33.032C278.499 33.544 279.917 34.2053 281.176 35.016C282.435 35.8267 283.512 36.6373 284.408 37.448L282.264 40.872C281.688 40.36 281.027 39.784 280.28 39.144C279.555 38.504 278.733 37.9067 277.816 37.352C276.92 36.7973 275.939 36.3387 274.872 35.976C273.827 35.6133 272.696 35.432 271.48 35.432C270.563 35.432 269.827 35.6133 269.272 35.976C268.717 36.3387 268.44 36.808 268.44 37.384C268.44 37.9813 268.675 38.4613 269.144 38.824C269.635 39.1867 270.317 39.368 271.192 39.368C271.917 39.368 272.493 39.2507 272.92 39.016C273.347 38.76 273.645 38.408 273.816 37.96C273.987 37.4907 274.072 36.968 274.072 36.392C274.072 35.9013 274.051 35.208 274.008 34.312C273.965 33.416 273.912 32.424 273.848 31.336C273.805 30.248 273.763 29.16 273.72 28.072C273.677 26.984 273.635 26.024 273.592 25.192H277.592ZM283.096 26.888C282.477 26.376 281.709 25.832 280.792 25.256C279.875 24.68 278.925 24.136 277.944 23.624C276.984 23.0907 276.141 22.664 275.416 22.344L277.464 19.176C278.04 19.432 278.691 19.752 279.416 20.136C280.163 20.4987 280.909 20.8827 281.656 21.288C282.424 21.6933 283.128 22.0987 283.768 22.504C284.429 22.888 284.963 23.2293 285.368 23.528L283.096 26.888ZM301.144 16.648H316.568V20.136H301.144V16.648ZM299.256 22.856H317.976V26.44H299.256V22.856ZM299.928 29.32H317.688V32.84H299.928V29.32ZM306.872 13.768H310.68V24.84H306.872V13.768ZM310.648 26.024H314.456V39.592C314.456 40.552 314.339 41.3093 314.104 41.864C313.891 42.4187 313.464 42.856 312.824 43.176C312.163 43.4533 311.373 43.624 310.456 43.688C309.539 43.7733 308.483 43.816 307.288 43.816C307.203 43.2613 307.053 42.6213 306.84 41.896C306.627 41.1707 306.381 40.5413 306.104 40.008C306.893 40.0293 307.672 40.0507 308.44 40.072C309.208 40.072 309.72 40.072 309.976 40.072C310.232 40.0507 310.403 40.008 310.488 39.944C310.595 39.88 310.648 39.7413 310.648 39.528V26.024ZM301.048 34.568L303.896 32.808C304.387 33.2773 304.877 33.8 305.368 34.376C305.859 34.952 306.317 35.528 306.744 36.104C307.192 36.6587 307.533 37.1707 307.768 37.64L304.728 39.624C304.515 39.1547 304.205 38.632 303.8 38.056C303.395 37.4587 302.947 36.8613 302.456 36.264C301.987 35.6453 301.517 35.08 301.048 34.568ZM287.864 30.856C288.909 30.6213 290.093 30.3333 291.416 29.992C292.76 29.6507 294.168 29.2773 295.64 28.872C297.133 28.4453 298.616 28.0187 300.088 27.592L300.568 30.984C298.563 31.6027 296.515 32.232 294.424 32.872C292.355 33.4907 290.477 34.0453 288.792 34.536L287.864 30.856ZM293.592 13.832H297.112V43.88H293.592V13.832ZM289.368 15.464L292.6 16.008C292.451 17.416 292.269 18.8347 292.056 20.264C291.843 21.672 291.587 23.0053 291.288 24.264C290.989 25.5227 290.648 26.632 290.264 27.592C290.072 27.4213 289.805 27.2293 289.464 27.016C289.123 26.8027 288.781 26.5893 288.44 26.376C288.099 26.1413 287.8 25.96 287.544 25.832C287.885 24.9787 288.173 23.9867 288.408 22.856C288.664 21.7253 288.867 20.5307 289.016 19.272C289.187 17.992 289.304 16.7227 289.368 15.464ZM290.264 19.848H299.8V23.496H289.528L290.264 19.848ZM337.176 38.6L339.896 36.072C341.027 36.6053 342.179 37.1707 343.352 37.768C344.525 38.3653 345.635 38.9627 346.68 39.56C347.747 40.1573 348.643 40.6907 349.368 41.16L345.816 43.752C345.176 43.2613 344.376 42.7173 343.416 42.12C342.477 41.5227 341.464 40.9147 340.376 40.296C339.309 39.6773 338.243 39.112 337.176 38.6ZM319.992 32.84H349.976V36.456H319.992V32.84ZM325.048 25.064H344.76V28.584H325.048V25.064ZM329.816 13.704H333.4V34.44H329.816V13.704ZM336.504 13.704H340.152V34.472H336.504V13.704ZM323.16 17.48H347.096V34.184H343.192V21.032H326.872V34.184H323.16V17.48ZM329.432 36.104L332.952 38.472C332.12 39.1333 331.139 39.8053 330.008 40.488C328.899 41.1493 327.736 41.768 326.52 42.344C325.304 42.9413 324.141 43.4427 323.032 43.848C322.691 43.4427 322.221 42.9627 321.624 42.408C321.048 41.8747 320.515 41.4267 320.024 41.064C321.176 40.7013 322.349 40.2427 323.544 39.688C324.739 39.112 325.848 38.5147 326.872 37.896C327.917 37.256 328.771 36.6587 329.432 36.104Z" fill="black"/>
</svg>
