<svg width="368" height="94" viewBox="0 0 368 94" fill="none" xmlns="http://www.w3.org/2000/svg">
<g clip-path="url(#clip0_330_653)">
<path d="M19.4798 10.3799H23.4598V21.8399H13.7598V15.5599L10.0198 18.9499H0.299805L19.7098 1.41988L29.4498 1.37988L19.4698 10.3799H19.4798Z" fill="#F08300"/>
<path d="M61.3699 3.05012L58.7999 16.2601H49.0999L51.0899 6.17012H45.3599L48.4799 21.8401H38.7799L35.6599 6.17012H32.1899V3.05012H35.0399L34.6899 1.37012H44.3899L44.7399 3.05012H61.3799H61.3699Z" fill="#F08300"/>
<path d="M93.5596 3.04996V6.16996H83.6996V21.84H73.9996V6.16996H64.0996V3.04996H73.9996V0.709961H83.6996V3.04996H93.5596ZM65.3496 9.55996H72.2496L70.9996 21.84H64.0996L65.3496 9.55996ZM92.3596 9.55996L93.5696 21.84H86.6696L85.4596 9.55996H92.3596Z" fill="#F08300"/>
<path d="M109.35 5.97988H96.29V1.37988H109.35V5.97988ZM125.76 5.42988L117.03 21.8399H107.33L116.06 5.42988H125.76Z" fill="#F08300"/>
<path d="M160.9 1.38037L173.68 21.8404H163.98L155.64 8.51037L152.33 16.8504H144.65L150.85 1.38037H160.91H160.9Z" fill="#F08300"/>
<path d="M176.41 6.52002H179.88V16.3H176.41V6.52002ZM184.98 16.3H181.51V6.52002H184.98V16.3ZM197.3 7.15002L191.8 21.84H184.51L190.04 7.15002H197.29H197.3Z" fill="#F08300"/>
<path d="M209.69 8.47014H224.65V13.0701H209.69V21.8401H199.98V1.38014H209.69V8.47014ZM220.44 5.59014H217.71V0.640137H220.44V5.59014ZM224.84 0.640137V5.59014H222.07V0.640137H224.84Z" fill="#F08300"/>
<path d="M256.81 3.04996V6.16996H246.95V21.84H237.25V6.16996H227.35V3.04996H237.25V0.709961H246.95V3.04996H256.81ZM228.59 9.55996H235.49L234.24 21.84H227.34L228.59 9.55996ZM255.6 9.55996L256.81 21.84H249.91L248.7 9.55996H255.6Z" fill="#F08300"/>
<path d="M272.6 5.98037H259.54V1.38037H272.6V5.98037ZM289 5.43037L280.27 21.8404H270.56L279.29 5.43037H289Z" fill="#F08300"/>
<path d="M138.39 9.86029C138.39 11.4203 137.13 12.6703 135.58 12.6703C134.03 12.6703 132.77 11.4103 132.77 9.86029C132.77 8.31029 134.03 7.05029 135.58 7.05029C137.13 7.05029 138.39 8.36029 138.39 9.86029Z" fill="#F08300"/>
<path d="M307.91 0.22998V1.73998H316.8V4.54998H307.91V5.29998H315.3V13.84H312.59V14.72H317.51V17.51H312.59V19.77C312.59 22.79 311.13 23.16 307.31 23.16C307.21 22.16 306.96 20.97 306.48 20.07H308.62C308.9 20.07 309 19.92 309 19.67V17.51H302.52C303.08 18.09 303.98 18.97 304.56 19.52L302.25 21.68C301.42 20.7 300.95 20.22 298.96 18.44L299.94 17.51H295.09V14.72H309.01V13.84H297.25V5.29998H304.34V4.54998H295.49V1.72998H304.34V0.22998H307.93H307.91ZM300.65 8.43998H304.32V7.63998H300.65V8.43998ZM300.65 11.58H304.32V10.6H300.65V11.58ZM307.91 8.43998H311.8V7.63998H307.91V8.43998ZM307.91 10.6V11.58H311.8V10.6H307.91Z" fill="#F08300"/>
<path d="M330.5 0.680176V10.8802H324.42V23.1402H321.05V0.680176H330.5ZM324.42 4.65018H327.36V3.62018H324.42V4.65018ZM324.42 8.12018H327.36V7.01018H324.42V8.12018ZM341.81 0.700176V19.5402C341.81 21.7302 341.33 23.0802 336.38 23.1602C336.18 21.9802 335.83 20.8702 335.3 19.8702H338.04C338.27 19.8702 338.32 19.7202 338.32 19.5402V10.9002H332.16V0.700176H341.81ZM335.35 4.70018H338.31V3.59018H335.35V4.70018ZM335.35 8.12018H338.31V7.06018H335.35V8.12018Z" fill="#F08300"/>
<path d="M359.39 0V1.73H367.63V4.85H350.04C350.04 13.87 349.86 15.8 348.38 20.33C348.23 20.93 348.03 21.54 347.07 23.22C346.22 22.11 345.34 21.08 344.31 20.18C345.17 18.5 346.35 16.06 346.55 11.18C346.6 10.43 346.6 9.52 346.6 1.73H355.32V0H359.39ZM359.99 5.38V7.66H367.1V10.7H359.99V12.96H366.47V22.66H362.85V21.66H354.53V22.92H350.89V12.97H356.37V5.38H359.99ZM354.54 18.52H362.86V16.01H354.54V18.52Z" fill="#F08300"/>
<path d="M50.2698 73.3002H16.8498C17.1498 75.9902 17.8798 78.0002 19.0298 79.3202C20.6498 81.2202 22.7598 82.1702 25.3698 82.1702C27.0198 82.1702 28.5798 81.7502 30.0598 80.9102C30.9598 80.3802 31.9398 79.4402 32.9798 78.1002L49.3898 79.7002C46.8798 84.0602 43.8498 87.1802 40.3098 89.0702C36.7598 90.9602 31.6698 91.9102 25.0498 91.9102C19.2898 91.9102 14.7598 91.1002 11.4598 89.4702C8.15977 87.8502 5.41977 85.2602 3.25977 81.7302C1.08977 78.1902 0.00976562 74.0302 0.00976562 69.2502C0.00976562 62.4502 2.17977 56.9502 6.52977 52.7402C10.8698 48.5402 16.8798 46.4302 24.5398 46.4302C30.7498 46.4302 35.6598 47.3702 39.2498 49.2602C42.8398 51.1502 45.5798 53.8802 47.4698 57.4602C49.3498 61.0402 50.2898 65.6902 50.2898 71.4302V73.3102L50.2698 73.3002ZM33.4198 65.3102C33.0898 62.0902 32.2198 59.7802 30.7998 58.3902C29.3798 57.0002 27.5198 56.3002 25.2198 56.3002C22.5498 56.3002 20.4298 57.3502 18.8298 59.4502C17.8098 60.7602 17.1698 62.7102 16.8898 65.3102H33.4098H33.4198Z" fill="#F08300"/>
<path d="M142.07 67.0101H150.61V91.6401H129.78V78.1501L121.75 85.4301H100.91L142.58 47.7701L163.5 47.6201L142.08 67.0101H142.07Z" fill="#F08300"/>
<path d="M230.41 51.2803L224.89 79.6504H204.05L208.32 57.9704H196.02L202.71 91.6303H181.88L175.18 57.9704H167.73V51.2803H173.84L173.09 47.6104H193.93L194.69 51.2803H230.42H230.41Z" fill="#F08300"/>
<path d="M331.81 57.5504H303.78V47.6104H331.81V57.5504ZM367.03 56.3804L348.29 91.6104L327.46 91.6303L346.21 56.3804H367.04H367.03Z" fill="#F08300"/>
<path d="M55.3396 63.6402H71.4996L76.7696 47.6602L81.8496 63.6402H97.6496L84.9396 73.2602L89.6596 88.5202L76.7696 79.2602L63.6896 88.5202L68.4096 73.4502L55.3296 63.6402H55.3396ZM65.8696 66.7302L72.4096 71.8102L69.8696 79.6202L76.7696 74.7202L83.1296 79.6202L80.5896 71.8102L87.1296 66.7302H79.3196L76.7796 59.1002L73.8796 66.7302H65.8896H65.8696Z" fill="#F08300"/>
<path d="M298.73 51.2801V57.9301H277.59V91.6101H256.67V57.9301H235.46V51.2801H256.67V46.3101H277.59V51.2801H298.73Z" fill="#F08300"/>
<path d="M266.74 29.4702C266.92 29.4702 267.24 29.4502 267.91 29.4302C272.79 29.2902 292.9 29.9902 299.13 51.3902L299.95 51.4402L300.57 57.0102L299.47 57.2902C299.62 58.5902 299.78 60.6702 299.78 63.3302C300.05 63.1602 300.37 63.1002 300.71 63.1502C301.43 63.2502 301.98 63.6502 301.75 65.1502C301.57 66.2502 301.28 69.0002 301.06 70.6002C302.09 72.6602 302.67 75.4402 302.21 79.2402C300.74 91.4402 288.88 91.4102 288.88 91.4102C288.88 91.4102 288.13 93.5602 285.64 92.9302C283.15 92.3002 283 92.0002 285.53 76.5202C288.05 61.0502 289.23 61.7702 291.02 61.9202C293.78 62.1502 293.66 64.4402 294.05 64.8302C294.18 64.9602 295.26 65.2402 296.6 65.9902C296.69 64.4802 296.85 60.6602 296.53 57.3502L295.75 57.1902L295.15 52.1202L295.62 51.9302C294.67 48.2102 288.94 34.7902 270.03 34.6302C269.43 34.6302 268.39 34.6102 267.65 34.6002C267.19 34.6002 266.88 34.6002 266.65 34.6002" fill="#F08300"/>
<path d="M267.6 29.4702C267.42 29.4702 267.39 29.4902 266.72 29.4702C261.84 29.3302 241.4 30.0402 235.16 51.4402L234.34 51.4802L233.72 57.0502L234.81 57.3302C234.67 58.6302 234.5 60.7102 234.5 63.3702C234.23 63.2002 233.91 63.1402 233.56 63.1902C232.84 63.2902 232.29 63.6902 232.52 65.1902C232.69 66.2902 232.98 69.0402 233.2 70.6402C232.17 72.7002 231.59 75.4802 232.05 79.2802C233.52 91.4802 245.38 91.4502 245.38 91.4502C245.38 91.4502 246.13 93.6002 248.62 92.9702C251.11 92.3402 251.25 92.0402 248.73 76.5602C246.21 61.0902 245.03 61.8102 243.25 61.9602C240.49 62.1902 240.61 64.4802 240.22 64.8702C240.09 65.0002 239.01 65.2802 237.67 66.0302C237.58 64.5202 237.42 60.7002 237.74 57.3902L238.52 57.2302L239.13 52.1602L238.66 51.9702C239.61 48.2502 245.35 34.8302 264.26 34.6702C264.86 34.6702 265.88 34.6102 266.61 34.6002C267.07 34.6002 267.44 34.5902 267.67 34.5902" fill="#F08300"/>
</g>
<defs>
<clipPath id="clip0_330_653">
<rect width="367.63" height="93.1" fill="white"/>
</clipPath>
</defs>
</svg>
