<svg xmlns="http://www.w3.org/2000/svg" xmlns:xlink="http://www.w3.org/1999/xlink" width="370" zoomAndPan="magnify" viewBox="0 0 277.5 52.499999" height="70" preserveAspectRatio="xMidYMid meet" version="1.0"><defs><g/><clipPath id="77d7901a22"><path d="M 1.0625 2 L 13 2 L 13 11 L 1.0625 11 Z M 1.0625 2 " clip-rule="nonzero"/></clipPath><clipPath id="9fa608b5e7"><path d="M 26 1.484375 L 39 1.484375 L 39 11 L 26 11 Z M 26 1.484375 " clip-rule="nonzero"/></clipPath><clipPath id="c7d9f607f1"><path d="M 81 1.484375 L 92 1.484375 L 92 11 L 81 11 Z M 81 1.484375 " clip-rule="nonzero"/></clipPath><clipPath id="e206b17fdb"><path d="M 92 1.484375 L 105 1.484375 L 105 11 L 92 11 Z M 92 1.484375 " clip-rule="nonzero"/></clipPath><clipPath id="cb16184b00"><path d="M 119 1.484375 L 129 1.484375 L 129 11 L 119 11 Z M 119 1.484375 " clip-rule="nonzero"/></clipPath><clipPath id="68afb80140"><path d="M 130 1.484375 L 139 1.484375 L 139 11 L 130 11 Z M 130 1.484375 " clip-rule="nonzero"/></clipPath><clipPath id="e16c322664"><path d="M 139 1.484375 L 148.753906 1.484375 L 148.753906 11 L 139 11 Z M 139 1.484375 " clip-rule="nonzero"/></clipPath><clipPath id="27b9274b0f"><path d="M 1.0625 20 L 22 20 L 22 39 L 1.0625 39 Z M 1.0625 20 " clip-rule="nonzero"/></clipPath><clipPath id="4c14110e18"><path d="M 123 20 L 148.753906 20 L 148.753906 39 L 123 39 Z M 123 20 " clip-rule="nonzero"/></clipPath><clipPath id="08a3bd7dba"><path d="M 94 13 L 109 13 L 109 39.011719 L 94 39.011719 Z M 94 13 " clip-rule="nonzero"/></clipPath><clipPath id="6c11bbbd02"><path d="M 1.0625 42 L 9 42 L 9 49 L 1.0625 49 Z M 1.0625 42 " clip-rule="nonzero"/></clipPath></defs><g clip-path="url(#77d7901a22)"><path fill="#f08300" d="M 8.886719 5.671875 L 10.484375 5.671875 L 10.484375 10.289062 L 6.589844 10.289062 L 6.589844 7.757812 L 5.085938 9.125 L 1.183594 9.125 L 8.980469 2.058594 L 12.894531 2.042969 L 8.882812 5.671875 Z M 8.886719 5.671875 " fill-opacity="1" fill-rule="nonzero"/></g><path fill="#f08300" d="M 25.714844 2.714844 L 24.683594 8.039062 L 20.785156 8.039062 L 21.585938 3.972656 L 19.285156 3.972656 L 20.539062 10.289062 L 16.640625 10.289062 L 15.386719 3.972656 L 13.992188 3.972656 L 13.992188 2.714844 L 15.136719 2.714844 L 14.996094 2.039062 L 18.894531 2.039062 L 19.035156 2.714844 L 25.71875 2.714844 Z M 25.714844 2.714844 " fill-opacity="1" fill-rule="nonzero"/><g clip-path="url(#9fa608b5e7)"><path fill="#f08300" d="M 38.648438 2.714844 L 38.648438 3.972656 L 34.6875 3.972656 L 34.6875 10.289062 L 30.789062 10.289062 L 30.789062 3.972656 L 26.8125 3.972656 L 26.8125 2.714844 L 30.789062 2.714844 L 30.789062 1.773438 L 34.6875 1.773438 L 34.6875 2.714844 Z M 27.316406 5.339844 L 30.085938 5.339844 L 29.585938 10.289062 L 26.8125 10.289062 Z M 38.167969 5.339844 L 38.652344 10.289062 L 35.878906 10.289062 L 35.394531 5.339844 Z M 38.167969 5.339844 " fill-opacity="1" fill-rule="nonzero"/></g><path fill="#f08300" d="M 44.992188 3.898438 L 39.746094 3.898438 L 39.746094 2.042969 L 44.992188 2.042969 Z M 51.585938 3.675781 L 48.078125 10.289062 L 44.179688 10.289062 L 47.6875 3.675781 Z M 51.585938 3.675781 " fill-opacity="1" fill-rule="nonzero"/><path fill="#f08300" d="M 65.703125 2.042969 L 70.835938 10.289062 L 66.9375 10.289062 L 63.589844 4.917969 L 62.257812 8.277344 L 59.171875 8.277344 L 61.664062 2.042969 L 65.707031 2.042969 Z M 65.703125 2.042969 " fill-opacity="1" fill-rule="nonzero"/><path fill="#f08300" d="M 71.933594 4.113281 L 73.328125 4.113281 L 73.328125 8.054688 L 71.933594 8.054688 Z M 75.375 8.054688 L 73.980469 8.054688 L 73.980469 4.113281 L 75.375 4.113281 Z M 80.324219 4.367188 L 78.117188 10.289062 L 75.1875 10.289062 L 77.410156 4.367188 Z M 80.324219 4.367188 " fill-opacity="1" fill-rule="nonzero"/><g clip-path="url(#c7d9f607f1)"><path fill="#f08300" d="M 85.304688 4.898438 L 91.3125 4.898438 L 91.3125 6.753906 L 85.304688 6.753906 L 85.304688 10.289062 L 81.402344 10.289062 L 81.402344 2.042969 L 85.304688 2.042969 Z M 89.621094 3.738281 L 88.523438 3.738281 L 88.523438 1.746094 L 89.621094 1.746094 Z M 91.390625 1.746094 L 91.390625 3.738281 L 90.277344 3.738281 L 90.277344 1.746094 Z M 91.390625 1.746094 " fill-opacity="1" fill-rule="nonzero"/></g><g clip-path="url(#e206b17fdb)"><path fill="#f08300" d="M 104.234375 2.714844 L 104.234375 3.972656 L 100.273438 3.972656 L 100.273438 10.289062 L 96.375 10.289062 L 96.375 3.972656 L 92.398438 3.972656 L 92.398438 2.714844 L 96.375 2.714844 L 96.375 1.773438 L 100.273438 1.773438 L 100.273438 2.714844 Z M 92.894531 5.339844 L 95.667969 5.339844 L 95.164062 10.289062 L 92.394531 10.289062 Z M 103.746094 5.339844 L 104.234375 10.289062 L 101.460938 10.289062 L 100.976562 5.339844 Z M 103.746094 5.339844 " fill-opacity="1" fill-rule="nonzero"/></g><path fill="#f08300" d="M 110.578125 3.898438 L 105.332031 3.898438 L 105.332031 2.042969 L 110.578125 2.042969 Z M 117.164062 3.675781 L 113.660156 10.289062 L 109.757812 10.289062 L 113.265625 3.675781 Z M 117.164062 3.675781 " fill-opacity="1" fill-rule="nonzero"/><path fill="#f08300" d="M 56.660156 5.460938 C 56.660156 6.089844 56.152344 6.59375 55.53125 6.59375 C 54.90625 6.59375 54.402344 6.085938 54.402344 5.460938 C 54.402344 4.835938 54.90625 4.328125 55.53125 4.328125 C 56.152344 4.328125 56.660156 4.855469 56.660156 5.460938 Z M 56.660156 5.460938 " fill-opacity="1" fill-rule="nonzero"/><g clip-path="url(#cb16184b00)"><path fill="#f08300" d="M 124.761719 1.578125 L 124.761719 2.1875 L 128.332031 2.1875 L 128.332031 3.320312 L 124.761719 3.320312 L 124.761719 3.621094 L 127.730469 3.621094 L 127.730469 7.066406 L 126.644531 7.066406 L 126.644531 7.417969 L 128.621094 7.417969 L 128.621094 8.542969 L 126.644531 8.542969 L 126.644531 9.453125 C 126.644531 10.671875 126.054688 10.820312 124.519531 10.820312 C 124.480469 10.417969 124.378906 9.9375 124.1875 9.574219 L 125.046875 9.574219 C 125.160156 9.574219 125.199219 9.515625 125.199219 9.414062 L 125.199219 8.542969 L 122.597656 8.542969 C 122.820312 8.777344 123.183594 9.132812 123.417969 9.355469 L 122.488281 10.226562 C 122.15625 9.828125 121.964844 9.636719 121.167969 8.917969 L 121.5625 8.542969 L 119.613281 8.542969 L 119.613281 7.417969 L 125.203125 7.417969 L 125.203125 7.066406 L 120.480469 7.066406 L 120.480469 3.621094 L 123.328125 3.621094 L 123.328125 3.320312 L 119.773438 3.320312 L 119.773438 2.183594 L 123.328125 2.183594 L 123.328125 1.578125 L 124.769531 1.578125 Z M 121.847656 4.886719 L 123.320312 4.886719 L 123.320312 4.566406 L 121.847656 4.566406 Z M 121.847656 6.152344 L 123.320312 6.152344 L 123.320312 5.757812 L 121.847656 5.757812 Z M 124.761719 4.886719 L 126.324219 4.886719 L 126.324219 4.566406 L 124.761719 4.566406 Z M 124.761719 5.757812 L 124.761719 6.152344 L 126.324219 6.152344 L 126.324219 5.757812 Z M 124.761719 5.757812 " fill-opacity="1" fill-rule="nonzero"/></g><g clip-path="url(#68afb80140)"><path fill="#f08300" d="M 133.835938 1.761719 L 133.835938 5.871094 L 131.394531 5.871094 L 131.394531 10.8125 L 130.042969 10.8125 L 130.042969 1.761719 Z M 131.394531 3.359375 L 132.578125 3.359375 L 132.578125 2.945312 L 131.394531 2.945312 Z M 131.394531 4.757812 L 132.578125 4.757812 L 132.578125 4.3125 L 131.394531 4.3125 Z M 138.382812 1.769531 L 138.382812 9.363281 C 138.382812 10.246094 138.1875 10.789062 136.199219 10.820312 C 136.121094 10.347656 135.980469 9.898438 135.765625 9.496094 L 136.867188 9.496094 C 136.960938 9.496094 136.980469 9.433594 136.980469 9.363281 L 136.980469 5.878906 L 134.503906 5.878906 L 134.503906 1.769531 Z M 135.785156 3.378906 L 136.976562 3.378906 L 136.976562 2.933594 L 135.785156 2.933594 Z M 135.785156 4.757812 L 136.976562 4.757812 L 136.976562 4.332031 L 135.785156 4.332031 Z M 135.785156 4.757812 " fill-opacity="1" fill-rule="nonzero"/></g><g clip-path="url(#e16c322664)"><path fill="#f08300" d="M 145.445312 1.484375 L 145.445312 2.183594 L 148.753906 2.183594 L 148.753906 3.441406 L 141.6875 3.441406 C 141.6875 7.078125 141.617188 7.855469 141.019531 9.679688 C 140.960938 9.921875 140.878906 10.167969 140.496094 10.84375 C 140.152344 10.398438 139.800781 9.984375 139.386719 9.621094 C 139.730469 8.941406 140.207031 7.960938 140.285156 5.992188 C 140.304688 5.691406 140.304688 5.324219 140.304688 2.183594 L 143.808594 2.183594 L 143.808594 1.484375 Z M 145.683594 3.65625 L 145.683594 4.574219 L 148.542969 4.574219 L 148.542969 5.800781 L 145.683594 5.800781 L 145.683594 6.710938 L 148.289062 6.710938 L 148.289062 10.621094 L 146.835938 10.621094 L 146.835938 10.214844 L 143.492188 10.214844 L 143.492188 10.722656 L 142.03125 10.722656 L 142.03125 6.714844 L 144.230469 6.714844 L 144.230469 3.65625 Z M 143.496094 8.949219 L 146.839844 8.949219 L 146.839844 7.9375 L 143.496094 7.9375 Z M 143.496094 8.949219 " fill-opacity="1" fill-rule="nonzero"/></g><g clip-path="url(#27b9274b0f)"><path fill="#f08300" d="M 21.257812 31.03125 L 7.832031 31.03125 C 7.949219 32.117188 8.246094 32.925781 8.707031 33.457031 C 9.355469 34.222656 10.203125 34.605469 11.253906 34.605469 C 11.917969 34.605469 12.542969 34.4375 13.136719 34.097656 C 13.5 33.886719 13.894531 33.507812 14.3125 32.964844 L 20.902344 33.609375 C 19.894531 35.367188 18.679688 36.625 17.253906 37.386719 C 15.828125 38.148438 13.785156 38.53125 11.125 38.53125 C 8.8125 38.53125 6.992188 38.207031 5.664062 37.546875 C 4.339844 36.894531 3.238281 35.851562 2.371094 34.429688 C 1.5 33.003906 1.066406 31.324219 1.066406 29.398438 C 1.066406 26.65625 1.9375 24.441406 3.683594 22.742188 C 5.429688 21.050781 7.84375 20.199219 10.921875 20.199219 C 13.414062 20.199219 15.386719 20.578125 16.828125 21.339844 C 18.273438 22.101562 19.371094 23.203125 20.132812 24.648438 C 20.886719 26.089844 21.265625 27.964844 21.265625 30.277344 L 21.265625 31.035156 Z M 14.488281 27.8125 C 14.355469 26.511719 14.003906 25.582031 13.433594 25.019531 C 12.863281 24.460938 12.117188 24.179688 11.191406 24.179688 C 10.121094 24.179688 9.269531 24.601562 8.625 25.449219 C 8.214844 25.976562 7.960938 26.761719 7.847656 27.8125 Z M 14.488281 27.8125 " fill-opacity="1" fill-rule="nonzero"/></g><path fill="#f08300" d="M 58.136719 28.496094 L 61.566406 28.496094 L 61.566406 38.421875 L 53.199219 38.421875 L 53.199219 32.984375 L 49.972656 35.921875 L 41.601562 35.921875 L 58.34375 20.742188 L 66.746094 20.679688 L 58.140625 28.496094 Z M 58.136719 28.496094 " fill-opacity="1" fill-rule="nonzero"/><path fill="#f08300" d="M 93.628906 22.15625 L 91.410156 33.589844 L 83.039062 33.589844 L 84.753906 24.851562 L 79.8125 24.851562 L 82.5 38.417969 L 74.128906 38.417969 L 71.4375 24.851562 L 68.445312 24.851562 L 68.445312 22.15625 L 70.902344 22.15625 L 70.597656 20.675781 L 78.972656 20.675781 L 79.277344 22.15625 L 93.632812 22.15625 Z M 93.628906 22.15625 " fill-opacity="1" fill-rule="nonzero"/><g clip-path="url(#4c14110e18)"><path fill="#f08300" d="M 134.363281 24.683594 L 123.101562 24.683594 L 123.101562 20.675781 L 134.363281 20.675781 Z M 148.511719 24.210938 L 140.984375 38.410156 L 132.617188 38.417969 L 140.148438 24.210938 L 148.519531 24.210938 Z M 148.511719 24.210938 " fill-opacity="1" fill-rule="nonzero"/></g><path fill="#f08300" d="M 23.292969 27.136719 L 29.785156 27.136719 L 31.902344 20.695312 L 33.945312 27.136719 L 40.292969 27.136719 L 35.183594 31.015625 L 37.082031 37.164062 L 31.902344 33.433594 L 26.648438 37.164062 L 28.542969 31.089844 L 23.289062 27.136719 Z M 27.523438 28.382812 L 30.152344 30.429688 L 29.132812 33.578125 L 31.902344 31.601562 L 34.457031 33.578125 L 33.4375 30.429688 L 36.066406 28.382812 L 32.925781 28.382812 L 31.90625 25.308594 L 30.742188 28.382812 Z M 27.523438 28.382812 " fill-opacity="1" fill-rule="nonzero"/><path fill="#f08300" d="M 121.074219 22.15625 L 121.074219 24.835938 L 112.582031 24.835938 L 112.582031 38.410156 L 104.175781 38.410156 L 104.175781 24.835938 L 95.65625 24.835938 L 95.65625 22.15625 L 104.175781 22.15625 L 104.175781 20.152344 L 112.582031 20.152344 L 112.582031 22.15625 Z M 121.074219 22.15625 " fill-opacity="1" fill-rule="nonzero"/><path fill="#f08300" d="M 108.222656 13.363281 C 108.296875 13.363281 108.421875 13.355469 108.691406 13.347656 C 110.652344 13.292969 118.730469 13.574219 121.234375 22.199219 L 121.566406 22.21875 L 121.8125 24.464844 L 121.371094 24.578125 C 121.433594 25.101562 121.496094 25.941406 121.496094 27.011719 C 121.605469 26.945312 121.734375 26.917969 121.871094 26.941406 C 122.160156 26.980469 122.378906 27.140625 122.289062 27.746094 C 122.214844 28.191406 122.097656 29.296875 122.011719 29.941406 C 122.425781 30.773438 122.65625 31.894531 122.472656 33.425781 C 121.882812 38.34375 117.117188 38.332031 117.117188 38.332031 C 117.117188 38.332031 116.816406 39.195312 115.816406 38.941406 C 114.816406 38.6875 114.753906 38.570312 115.769531 32.328125 C 116.785156 26.09375 117.257812 26.382812 117.976562 26.445312 C 119.085938 26.535156 119.039062 27.460938 119.195312 27.617188 C 119.246094 27.667969 119.679688 27.78125 120.21875 28.085938 C 120.253906 27.476562 120.320312 25.9375 120.191406 24.601562 L 119.878906 24.539062 L 119.636719 22.496094 L 119.824219 22.417969 C 119.445312 20.917969 117.140625 15.507812 109.542969 15.445312 C 109.304688 15.445312 108.886719 15.4375 108.589844 15.433594 C 108.402344 15.433594 108.277344 15.433594 108.1875 15.433594 " fill-opacity="1" fill-rule="nonzero"/><g clip-path="url(#08a3bd7dba)"><path fill="#f08300" d="M 108.566406 13.363281 C 108.496094 13.363281 108.484375 13.371094 108.214844 13.363281 C 106.253906 13.308594 98.042969 13.59375 95.535156 22.21875 L 95.207031 22.234375 L 94.957031 24.480469 L 95.394531 24.59375 C 95.339844 25.117188 95.269531 25.957031 95.269531 27.027344 C 95.160156 26.960938 95.035156 26.9375 94.894531 26.957031 C 94.601562 26.996094 94.382812 27.15625 94.476562 27.761719 C 94.542969 28.207031 94.660156 29.3125 94.75 29.957031 C 94.335938 30.789062 94.101562 31.910156 94.285156 33.441406 C 94.875 38.359375 99.640625 38.347656 99.640625 38.347656 C 99.640625 38.347656 99.941406 39.214844 100.941406 38.960938 C 101.945312 38.707031 102 38.585938 100.988281 32.34375 C 99.976562 26.109375 99.5 26.398438 98.785156 26.460938 C 97.675781 26.554688 97.726562 27.476562 97.570312 27.632812 C 97.515625 27.6875 97.082031 27.796875 96.542969 28.101562 C 96.507812 27.492188 96.445312 25.953125 96.570312 24.617188 L 96.886719 24.554688 L 97.128906 22.511719 L 96.941406 22.433594 C 97.324219 20.933594 99.628906 15.523438 107.226562 15.460938 C 107.46875 15.460938 107.878906 15.4375 108.171875 15.433594 C 108.355469 15.433594 108.503906 15.429688 108.597656 15.429688 " fill-opacity="1" fill-rule="nonzero"/></g><g clip-path="url(#6c11bbbd02)"><g fill="#545454" fill-opacity="1"><g transform="translate(1.061324, 48.797043)"><g><path d="M 5.765625 -4.125 L 5.765625 -2.140625 L 4.234375 -2.140625 L 4.234375 -4.125 Z M 6.375 -1.59375 L 6.375 -4.125 L 7.5625 -4.125 L 7.5625 -4.6875 L 6.375 -4.6875 L 6.375 -6.546875 L 5.765625 -6.546875 L 5.765625 -4.6875 L 4.234375 -4.6875 L 4.234375 -6.640625 L 3.65625 -6.640625 L 3.65625 -4.6875 L 2.203125 -4.6875 L 2.203125 -6.453125 L 1.59375 -6.453125 L 1.59375 -4.6875 L 0.4375 -4.6875 L 0.4375 -4.125 L 1.59375 -4.125 L 1.59375 0.09375 L 7.34375 0.09375 L 7.34375 -0.484375 L 2.203125 -0.484375 L 2.203125 -4.125 L 3.65625 -4.125 L 3.65625 -1.59375 Z M 6.375 -1.59375 "/></g></g></g></g><g fill="#545454" fill-opacity="1"><g transform="translate(9.041827, 48.797043)"><g><path d="M 2.5 -1.703125 C 2.5 -1.109375 2.359375 -0.328125 0.96875 0.1875 C 1.09375 0.296875 1.28125 0.515625 1.375 0.65625 C 2.921875 0.046875 3.09375 -0.921875 3.09375 -1.671875 L 3.09375 -2.15625 L 2.5 -2.15625 Z M 1.859375 -4.59375 L 3.6875 -4.59375 L 3.6875 -3.734375 L 1.859375 -3.734375 Z M 1.859375 -5.921875 L 3.6875 -5.921875 L 3.6875 -5.0625 L 1.859375 -5.0625 Z M 6.109375 -5.0625 L 4.265625 -5.0625 L 4.265625 -5.921875 L 6.109375 -5.921875 Z M 6.109375 -3.734375 L 4.265625 -3.734375 L 4.265625 -4.59375 L 6.109375 -4.59375 Z M 6.71875 -3.234375 L 6.71875 -6.421875 L 1.28125 -6.421875 L 1.28125 -3.234375 L 2.859375 -3.234375 C 2.265625 -2.609375 1.296875 -2.078125 0.390625 -1.8125 C 0.515625 -1.6875 0.6875 -1.484375 0.78125 -1.328125 C 1.828125 -1.6875 2.9375 -2.390625 3.578125 -3.234375 L 4.46875 -3.234375 C 4.765625 -2.828125 5.171875 -2.46875 5.609375 -2.15625 L 5.015625 -2.15625 L 5.015625 0.59375 L 5.625 0.59375 L 5.625 -2.15625 C 6.125 -1.8125 6.6875 -1.53125 7.265625 -1.359375 C 7.34375 -1.515625 7.515625 -1.734375 7.65625 -1.859375 C 6.703125 -2.09375 5.75 -2.609375 5.15625 -3.234375 Z M 6.71875 -3.234375 "/></g></g></g><g fill="#545454" fill-opacity="1"><g transform="translate(17.022329, 48.797043)"><g><path d="M 4.28125 -2.5625 L 4.28125 -4.671875 L 6.578125 -4.671875 L 6.578125 -2.5625 Z M 1.375 -2.5625 L 1.375 -4.671875 L 3.671875 -4.671875 L 3.671875 -2.5625 Z M 4.28125 -5.265625 L 4.28125 -6.6875 L 3.671875 -6.6875 L 3.671875 -5.265625 L 0.796875 -5.265625 L 0.796875 -1.484375 L 1.375 -1.484375 L 1.375 -1.984375 L 3.671875 -1.984375 L 3.671875 0.609375 L 4.28125 0.609375 L 4.28125 -1.984375 L 6.578125 -1.984375 L 6.578125 -1.53125 L 7.171875 -1.53125 L 7.171875 -5.265625 Z M 4.28125 -5.265625 "/></g></g></g><g fill="#545454" fill-opacity="1"><g transform="translate(25.002831, 48.797043)"><g><path d="M 2.15625 -1.125 C 1.828125 -1.125 1.359375 -1.5625 1.359375 -2.5625 C 1.359375 -3.609375 2.28125 -4.921875 3.796875 -5.109375 C 3.71875 -4.390625 3.5625 -3.640625 3.359375 -2.984375 C 2.953125 -1.640625 2.515625 -1.125 2.15625 -1.125 Z M 4.25 0.203125 C 6.125 -0.046875 7.21875 -1.15625 7.21875 -2.8125 C 7.21875 -4.40625 6.046875 -5.71875 4.1875 -5.71875 C 2.265625 -5.71875 0.734375 -4.21875 0.734375 -2.5 C 0.734375 -1.203125 1.4375 -0.390625 2.140625 -0.390625 C 2.875 -0.390625 3.5 -1.21875 4 -2.84375 C 4.203125 -3.578125 4.359375 -4.390625 4.46875 -5.125 C 5.796875 -5 6.5625 -4.03125 6.5625 -2.828125 C 6.5625 -1.46875 5.578125 -0.703125 4.5625 -0.484375 C 4.375 -0.453125 4.125 -0.40625 3.875 -0.390625 Z M 4.25 0.203125 "/></g></g></g><g fill="#545454" fill-opacity="1"><g transform="translate(32.983333, 48.797043)"><g><path d="M 6.34375 -6.234375 C 5.90625 -5.671875 5.0625 -4.96875 4.25 -4.46875 C 3.375 -3.921875 2.015625 -3.3125 0.671875 -3 L 1.046875 -2.375 C 2.09375 -2.6875 3.1875 -3.15625 4.046875 -3.625 L 4.046875 -0.609375 C 4.046875 -0.296875 4.03125 0.09375 4 0.25 L 4.78125 0.25 C 4.75 0.09375 4.734375 -0.296875 4.734375 -0.609375 L 4.734375 -4.03125 C 5.5625 -4.546875 6.328125 -5.203125 6.875 -5.75 Z M 6.34375 -6.234375 "/></g></g></g><g fill="#545454" fill-opacity="1"><g transform="translate(40.963835, 48.797043)"><g><path d="M 6.859375 -5.359375 C 6.765625 -5.3125 6.625 -5.265625 6.5 -5.25 C 6.203125 -5.171875 4.515625 -4.859375 3.140625 -4.59375 L 2.828125 -5.71875 C 2.765625 -5.96875 2.71875 -6.171875 2.703125 -6.34375 L 1.96875 -6.15625 C 2.046875 -6 2.109375 -5.828125 2.1875 -5.5625 C 2.234375 -5.390625 2.34375 -4.984375 2.484375 -4.46875 L 1.3125 -4.25 C 1.015625 -4.203125 0.796875 -4.171875 0.515625 -4.15625 L 0.6875 -3.46875 C 0.953125 -3.53125 1.734375 -3.6875 2.65625 -3.875 C 3.03125 -2.484375 3.5 -0.71875 3.625 -0.296875 C 3.6875 -0.09375 3.734375 0.171875 3.765625 0.34375 L 4.515625 0.171875 C 4.453125 -0.015625 4.34375 -0.28125 4.296875 -0.453125 C 4.171875 -0.890625 3.703125 -2.578125 3.3125 -4.015625 C 4.6875 -4.28125 6.125 -4.578125 6.359375 -4.609375 C 6.0625 -4.109375 5.296875 -3.125 4.640625 -2.59375 L 5.296875 -2.296875 C 5.953125 -2.9375 6.9375 -4.25 7.3125 -5.03125 Z M 6.859375 -5.359375 "/></g></g></g><g fill="#545454" fill-opacity="1"><g transform="translate(48.944338, 48.797043)"><g><path d="M 2.171875 -3.3125 C 1.859375 -2.65625 1.1875 -1.703125 0.640625 -1.21875 L 1.203125 -0.84375 C 1.65625 -1.328125 2.390625 -2.359375 2.734375 -3.03125 Z M 6.5625 -4.265625 C 6.75 -4.265625 6.984375 -4.265625 7.203125 -4.25 L 7.203125 -4.90625 C 7 -4.890625 6.734375 -4.875 6.546875 -4.875 L 4.4375 -4.875 L 4.4375 -5.6875 C 4.4375 -5.859375 4.46875 -6.140625 4.484375 -6.265625 L 3.734375 -6.265625 C 3.765625 -6.140625 3.796875 -5.875 3.796875 -5.6875 L 3.796875 -4.875 L 1.578125 -4.875 C 1.328125 -4.875 1.125 -4.890625 0.890625 -4.921875 L 0.890625 -4.234375 C 1.109375 -4.265625 1.328125 -4.265625 1.578125 -4.265625 L 3.796875 -4.265625 L 3.796875 -4.203125 C 3.796875 -3.828125 3.796875 -1.109375 3.796875 -0.671875 C 3.796875 -0.453125 3.703125 -0.375 3.484375 -0.375 C 3.28125 -0.375 2.921875 -0.390625 2.5625 -0.453125 L 2.625 0.171875 C 2.953125 0.21875 3.421875 0.234375 3.75 0.234375 C 4.234375 0.234375 4.4375 0.015625 4.4375 -0.40625 L 4.4375 -4.265625 Z M 5.53125 -3.015625 C 5.953125 -2.5 6.546875 -1.515625 6.859375 -0.890625 L 7.453125 -1.21875 C 7.125 -1.78125 6.5 -2.796875 6.0625 -3.3125 Z M 5.53125 -3.015625 "/></g></g></g><g fill="#545454" fill-opacity="1"><g transform="translate(56.92484, 48.797043)"><g><path d="M 1.8125 -5.859375 L 1.359375 -5.359375 C 1.953125 -4.96875 2.953125 -4.109375 3.34375 -3.703125 L 3.84375 -4.203125 C 3.40625 -4.640625 2.375 -5.484375 1.8125 -5.859375 Z M 1.125 -0.5 L 1.546875 0.15625 C 2.875 -0.09375 3.890625 -0.578125 4.6875 -1.09375 C 5.890625 -1.84375 6.8125 -2.9375 7.375 -3.921875 L 6.984375 -4.609375 C 6.515625 -3.625 5.546875 -2.4375 4.3125 -1.671875 C 3.5625 -1.203125 2.515625 -0.703125 1.125 -0.5 Z M 1.125 -0.5 "/></g></g></g><g fill="#545454" fill-opacity="1"><g transform="translate(64.905342, 48.797043)"><g><path d="M 3.140625 -3.03125 C 3.140625 -2.5625 3.515625 -2.1875 4 -2.1875 C 4.46875 -2.1875 4.84375 -2.5625 4.84375 -3.03125 C 4.84375 -3.5 4.46875 -3.875 4 -3.875 C 3.515625 -3.875 3.140625 -3.5 3.140625 -3.03125 Z M 3.140625 -3.03125 "/></g></g></g><g fill="#545454" fill-opacity="1"><g transform="translate(72.885844, 48.797043)"><g><path d="M 0.5 -2.25 L 1.09375 -1.640625 C 1.21875 -1.796875 1.390625 -2.046875 1.546875 -2.265625 C 1.90625 -2.703125 2.578125 -3.578125 2.96875 -4.046875 C 3.234375 -4.375 3.34375 -4.375 3.671875 -4.109375 C 4.03125 -3.8125 4.6875 -3.09375 5.234375 -2.46875 C 5.75 -1.890625 6.46875 -1.09375 7.03125 -0.375 L 7.546875 -0.9375 C 6.96875 -1.625 6.15625 -2.5 5.625 -3.078125 C 5.109375 -3.625 4.453125 -4.328125 3.96875 -4.734375 C 3.390625 -5.203125 3.0625 -5.15625 2.640625 -4.640625 C 2.125 -4.046875 1.4375 -3.15625 1.0625 -2.78125 C 0.84375 -2.578125 0.703125 -2.421875 0.5 -2.25 Z M 0.5 -2.25 "/></g></g></g><g fill="#545454" fill-opacity="1"><g transform="translate(80.866347, 48.797043)"><g><path d="M 3.859375 -4.59375 L 3.28125 -4.40625 C 3.4375 -4.046875 3.8125 -3.03125 3.890625 -2.671875 L 4.484375 -2.875 C 4.390625 -3.21875 4 -4.28125 3.859375 -4.59375 Z M 6.0625 -4.375 C 5.9375 -3.34375 5.53125 -2.328125 4.953125 -1.640625 C 4.296875 -0.8125 3.296875 -0.203125 2.359375 0.0625 L 2.890625 0.59375 C 3.78125 0.25 4.765625 -0.375 5.5 -1.296875 C 6.0625 -2.015625 6.40625 -2.875 6.625 -3.75 C 6.65625 -3.859375 6.6875 -3.984375 6.75 -4.15625 Z M 2 -4.203125 L 1.40625 -3.96875 C 1.578125 -3.6875 2 -2.59375 2.125 -2.171875 L 2.734375 -2.390625 C 2.578125 -2.8125 2.15625 -3.859375 2 -4.203125 Z M 2 -4.203125 "/></g></g></g><g fill="#545454" fill-opacity="1"><g transform="translate(88.846849, 48.797043)"><g><path d="M 6.953125 -4.96875 C 6.765625 -5.328125 6.40625 -5.875 6.203125 -6.140625 L 5.765625 -5.9375 C 6.03125 -5.578125 6.296875 -5.15625 6.5 -4.75 Z M 5.96875 -4.546875 C 5.78125 -4.921875 5.453125 -5.453125 5.234375 -5.75 L 4.796875 -5.546875 C 5.0625 -5.1875 5.3125 -4.75 5.515625 -4.328125 Z M 3.109375 -5.25 C 3.109375 -5.484375 3.125 -5.828125 3.15625 -6.078125 L 2.375 -6.078125 C 2.421875 -5.828125 2.4375 -5.46875 2.4375 -5.25 L 2.4375 -0.59375 C 2.4375 -0.296875 2.421875 0.09375 2.390625 0.34375 L 3.15625 0.34375 C 3.125 0.09375 3.109375 -0.34375 3.109375 -0.59375 L 3.109375 -3.21875 C 4 -2.953125 5.375 -2.421875 6.234375 -1.953125 L 6.515625 -2.625 C 5.671875 -3.046875 4.15625 -3.609375 3.109375 -3.9375 Z M 3.109375 -5.25 "/></g></g></g><g fill="#545454" fill-opacity="1"><g transform="translate(96.827351, 48.797043)"><g><path d="M 2.171875 -3.3125 C 1.859375 -2.65625 1.1875 -1.703125 0.640625 -1.21875 L 1.203125 -0.84375 C 1.65625 -1.328125 2.390625 -2.359375 2.734375 -3.03125 Z M 6.5625 -4.265625 C 6.75 -4.265625 6.984375 -4.265625 7.203125 -4.25 L 7.203125 -4.90625 C 7 -4.890625 6.734375 -4.875 6.546875 -4.875 L 4.4375 -4.875 L 4.4375 -5.6875 C 4.4375 -5.859375 4.46875 -6.140625 4.484375 -6.265625 L 3.734375 -6.265625 C 3.765625 -6.140625 3.796875 -5.875 3.796875 -5.6875 L 3.796875 -4.875 L 1.578125 -4.875 C 1.328125 -4.875 1.125 -4.890625 0.890625 -4.921875 L 0.890625 -4.234375 C 1.109375 -4.265625 1.328125 -4.265625 1.578125 -4.265625 L 3.796875 -4.265625 L 3.796875 -4.203125 C 3.796875 -3.828125 3.796875 -1.109375 3.796875 -0.671875 C 3.796875 -0.453125 3.703125 -0.375 3.484375 -0.375 C 3.28125 -0.375 2.921875 -0.390625 2.5625 -0.453125 L 2.625 0.171875 C 2.953125 0.21875 3.421875 0.234375 3.75 0.234375 C 4.234375 0.234375 4.4375 0.015625 4.4375 -0.40625 L 4.4375 -4.265625 Z M 5.53125 -3.015625 C 5.953125 -2.5 6.546875 -1.515625 6.859375 -0.890625 L 7.453125 -1.21875 C 7.125 -1.78125 6.5 -2.796875 6.0625 -3.3125 Z M 5.53125 -3.015625 "/></g></g></g><g fill="#545454" fill-opacity="1"><g transform="translate(104.807853, 48.797043)"><g><path d="M 1.8125 -5.859375 L 1.359375 -5.359375 C 1.953125 -4.96875 2.953125 -4.109375 3.34375 -3.703125 L 3.84375 -4.203125 C 3.40625 -4.640625 2.375 -5.484375 1.8125 -5.859375 Z M 1.125 -0.5 L 1.546875 0.15625 C 2.875 -0.09375 3.890625 -0.578125 4.6875 -1.09375 C 5.890625 -1.84375 6.8125 -2.9375 7.375 -3.921875 L 6.984375 -4.609375 C 6.515625 -3.625 5.546875 -2.4375 4.3125 -1.671875 C 3.5625 -1.203125 2.515625 -0.703125 1.125 -0.5 Z M 1.125 -0.5 "/></g></g></g><g fill="#545454" fill-opacity="1"><g transform="translate(112.788355, 48.797043)"><g><path d="M 7.78125 -5.671875 C 7.625 -5.96875 7.3125 -6.46875 7.109375 -6.75 L 6.6875 -6.578125 C 6.90625 -6.28125 7.171875 -5.828125 7.34375 -5.484375 Z M 6.875 -5.34375 C 6.71875 -5.65625 6.421875 -6.15625 6.21875 -6.4375 L 5.796875 -6.265625 C 6.015625 -5.953125 6.28125 -5.46875 6.4375 -5.15625 Z M 2.65625 -6.25 C 2.65625 -5.71875 2.5625 -5.109375 2.453125 -4.53125 C 1.96875 -4.5 1.515625 -4.453125 1.25 -4.453125 C 1 -4.4375 0.796875 -4.4375 0.546875 -4.453125 L 0.609375 -3.75 C 0.8125 -3.796875 1.140625 -3.828125 1.328125 -3.84375 C 1.53125 -3.875 1.90625 -3.90625 2.328125 -3.953125 C 2.046875 -2.890625 1.46875 -1.125 0.65625 -0.046875 L 1.3125 0.21875 C 2.140625 -1.109375 2.6875 -2.875 2.96875 -4.015625 C 3.3125 -4.046875 3.625 -4.078125 3.8125 -4.078125 C 4.328125 -4.078125 4.65625 -3.9375 4.65625 -3.21875 C 4.65625 -2.375 4.53125 -1.34375 4.28125 -0.8125 C 4.109375 -0.46875 3.875 -0.40625 3.59375 -0.40625 C 3.375 -0.40625 2.953125 -0.46875 2.625 -0.578125 L 2.71875 0.09375 C 2.984375 0.15625 3.359375 0.203125 3.65625 0.203125 C 4.171875 0.203125 4.5625 0.078125 4.8125 -0.453125 C 5.140625 -1.109375 5.265625 -2.359375 5.265625 -3.296875 C 5.265625 -4.375 4.6875 -4.640625 3.984375 -4.640625 C 3.796875 -4.640625 3.46875 -4.625 3.09375 -4.59375 C 3.1875 -5.015625 3.25 -5.484375 3.3125 -5.703125 C 3.328125 -5.875 3.375 -6.03125 3.40625 -6.1875 Z M 5.53125 -5 C 6.078125 -4.359375 6.703125 -2.984375 6.953125 -2.15625 L 7.5625 -2.46875 C 7.296875 -3.203125 6.609375 -4.640625 6.109375 -5.28125 Z M 5.53125 -5 "/></g></g></g><g fill="#545454" fill-opacity="1"><g transform="translate(120.768858, 48.797043)"><g><path d="M 7.421875 -5.53125 C 7.296875 -5.796875 6.984375 -6.21875 6.703125 -6.5 L 6.296875 -6.28125 C 6.578125 -5.953125 6.859375 -5.515625 7 -5.25 Z M 2.21875 -5.6875 C 2.09375 -5.96875 1.84375 -6.390625 1.609375 -6.71875 L 1.15625 -6.484375 C 1.359375 -6.140625 1.625 -5.703125 1.734375 -5.40625 Z M 2.359375 -1.6875 L 2.359375 -0.375 L 1.25 -0.375 L 1.25 -1.6875 Z M 2.875 -2.1875 L 0.734375 -2.1875 L 0.734375 0.5 L 1.25 0.5 L 1.25 0.125 L 2.875 0.125 Z M 0.75 -2.765625 L 2.859375 -2.765625 L 2.859375 -3.234375 L 0.75 -3.234375 Z M 2.859375 -4.28125 L 0.75 -4.28125 L 0.75 -3.8125 L 2.859375 -3.8125 Z M 0.40625 -4.84375 L 3.015625 -4.84375 L 3.015625 -5.328125 L 0.40625 -5.328125 Z M 4.515625 -2.890625 L 5.375 -2.890625 L 5.375 -3.4375 L 3.140625 -3.4375 L 3.140625 -2.890625 L 3.96875 -2.890625 L 3.96875 -0.796875 C 3.609375 -0.703125 3.296875 -0.625 3.015625 -0.5625 L 3.171875 0.015625 C 3.890625 -0.1875 4.8125 -0.453125 5.6875 -0.71875 L 5.640625 -1.21875 C 5.265625 -1.125 4.875 -1.015625 4.515625 -0.921875 Z M 7.65625 -4.5625 L 7.65625 -5.125 L 6.109375 -5.125 C 6.09375 -5.609375 6.078125 -6.125 6.09375 -6.65625 L 5.515625 -6.65625 C 5.515625 -6.125 5.53125 -5.625 5.546875 -5.125 L 3.203125 -5.125 L 3.203125 -4.5625 L 5.5625 -4.5625 C 5.6875 -1.65625 6.0625 0.625 6.953125 0.625 C 7.453125 0.625 7.609375 0.25 7.703125 -0.9375 C 7.5625 -1 7.375 -1.140625 7.25 -1.265625 C 7.21875 -0.375 7.15625 0.046875 7.03125 0.046875 C 6.609375 0.046875 6.234375 -1.890625 6.125 -4.5625 Z M 7.65625 -4.5625 "/></g></g></g><g fill="#545454" fill-opacity="1"><g transform="translate(128.74936, 48.797043)"><g><path d="M 5.59375 -3.15625 L 4.859375 -3.15625 L 4.859375 -4.234375 L 5.59375 -4.234375 Z M 6.03125 -4.234375 L 6.765625 -4.234375 L 6.765625 -3.15625 L 6.03125 -3.15625 Z M 4.4375 -3.15625 L 3.734375 -3.15625 L 3.734375 -4.234375 L 4.4375 -4.234375 Z M 3.234375 -4.703125 L 3.234375 -2.6875 L 7.28125 -2.6875 L 7.28125 -4.703125 L 5.453125 -4.703125 C 5.46875 -4.90625 5.5 -5.125 5.515625 -5.34375 L 7.59375 -5.34375 L 7.59375 -5.890625 L 5.546875 -5.890625 C 5.5625 -6.125 5.5625 -6.390625 5.578125 -6.625 L 5 -6.640625 C 5 -6.40625 4.984375 -6.140625 4.984375 -5.890625 L 3.109375 -5.890625 L 3.109375 -5.34375 L 4.953125 -5.34375 C 4.9375 -5.125 4.921875 -4.90625 4.890625 -4.703125 Z M 4.609375 -2.375 C 5.046875 -2.09375 5.53125 -1.6875 5.75 -1.390625 L 6.125 -1.703125 C 5.90625 -2 5.40625 -2.40625 4.984375 -2.671875 Z M 1.328125 -2.53125 L 2.15625 -2.53125 L 2.15625 -1.484375 C 1.875 -1.40625 1.578125 -1.34375 1.328125 -1.296875 Z M 2.15625 -5.796875 L 2.15625 -4.671875 L 1.328125 -4.671875 L 1.328125 -5.796875 Z M 1.328125 -4.171875 L 2.15625 -4.171875 L 2.15625 -3.03125 L 1.328125 -3.03125 Z M 3.03125 -1.234375 L 3 -1.671875 L 2.65625 -1.59375 L 2.65625 -5.796875 L 3.015625 -5.796875 L 3.015625 -6.34375 L 0.40625 -6.34375 L 0.40625 -5.796875 L 0.84375 -5.796875 L 0.84375 -1.203125 C 0.65625 -1.15625 0.484375 -1.125 0.328125 -1.078125 L 0.453125 -0.53125 C 0.9375 -0.65625 1.53125 -0.828125 2.15625 -1 L 2.15625 0.609375 L 2.65625 0.609375 L 2.65625 -1.140625 Z M 3.3125 0.0625 C 3.671875 -0.40625 3.828125 -1.171875 3.9375 -1.828125 L 3.5 -1.921875 C 3.421875 -1.3125 3.203125 -0.578125 2.875 -0.15625 Z M 5.0625 -0.09375 C 4.828125 -0.09375 4.796875 -0.125 4.796875 -0.296875 L 4.796875 -1.96875 L 4.28125 -1.96875 L 4.28125 -0.296875 C 4.28125 0.21875 4.421875 0.34375 5 0.34375 L 5.90625 0.34375 C 6.375 0.34375 6.515625 0.140625 6.578125 -0.75 C 6.421875 -0.78125 6.21875 -0.859375 6.109375 -0.9375 C 6.09375 -0.1875 6.046875 -0.09375 5.84375 -0.09375 Z M 6.4375 -1.84375 C 6.796875 -1.296875 7.171875 -0.5625 7.28125 -0.09375 L 7.75 -0.28125 C 7.609375 -0.75 7.234375 -1.46875 6.859375 -2 Z M 6.4375 -1.84375 "/></g></g></g><g fill="#545454" fill-opacity="1"><g transform="translate(136.729862, 48.797043)"><g><path d="M 3.140625 -3.03125 C 3.140625 -2.5625 3.515625 -2.1875 4 -2.1875 C 4.46875 -2.1875 4.84375 -2.5625 4.84375 -3.03125 C 4.84375 -3.5 4.46875 -3.875 4 -3.875 C 3.515625 -3.875 3.140625 -3.5 3.140625 -3.03125 Z M 3.140625 -3.03125 "/></g></g></g><g fill="#545454" fill-opacity="1"><g transform="translate(144.710364, 48.797043)"><g><path d="M 5.15625 -5.84375 L 6.515625 -5.84375 L 6.515625 -5.015625 L 5.15625 -5.015625 Z M 3.3125 -5.84375 L 4.640625 -5.84375 L 4.640625 -5.015625 L 3.3125 -5.015625 Z M 1.5 -5.84375 L 2.796875 -5.84375 L 2.796875 -5.015625 L 1.5 -5.015625 Z M 0.953125 -6.3125 L 0.953125 -4.546875 L 7.09375 -4.546875 L 7.09375 -6.3125 Z M 2.015625 -2.6875 L 6.03125 -2.6875 L 6.03125 -2.09375 L 2.015625 -2.09375 Z M 2.015625 -1.703125 L 6.03125 -1.703125 L 6.03125 -1.078125 L 2.015625 -1.078125 Z M 2.015625 -3.671875 L 6.03125 -3.671875 L 6.03125 -3.078125 L 2.015625 -3.078125 Z M 1.421875 -4.09375 L 1.421875 -0.671875 L 6.640625 -0.671875 L 6.640625 -4.09375 Z M 4.65625 -0.265625 C 5.5625 0.015625 6.453125 0.375 6.984375 0.625 L 7.59375 0.296875 C 7 0.046875 6.015625 -0.3125 5.125 -0.59375 Z M 2.796875 -0.59375 C 2.21875 -0.28125 1.25 0.015625 0.421875 0.1875 C 0.5625 0.28125 0.765625 0.515625 0.859375 0.625 C 1.671875 0.421875 2.671875 0.046875 3.328125 -0.34375 Z M 2.796875 -0.59375 "/></g></g></g><g fill="#545454" fill-opacity="1"><g transform="translate(152.690866, 48.797043)"><g><path d="M 1.515625 -2.46875 L 2.84375 -2.46875 L 2.84375 -1.421875 C 2.375 -1.359375 1.9375 -1.28125 1.515625 -1.21875 Z M 2.84375 -5.765625 L 2.84375 -4.65625 L 1.515625 -4.65625 L 1.515625 -5.765625 Z M 1.515625 -4.140625 L 2.84375 -4.140625 L 2.84375 -2.984375 L 1.515625 -2.984375 Z M 4.140625 -1.125 L 4.109375 -1.640625 L 3.4375 -1.53125 L 3.4375 -5.765625 L 4.015625 -5.765625 L 4.015625 -6.3125 L 0.40625 -6.3125 L 0.40625 -5.765625 L 0.9375 -5.765625 L 0.9375 -1.140625 C 0.734375 -1.109375 0.515625 -1.078125 0.34375 -1.046875 L 0.46875 -0.46875 C 1.140625 -0.59375 1.984375 -0.734375 2.84375 -0.890625 L 2.84375 0.59375 L 3.4375 0.59375 L 3.4375 -1 Z M 6.765625 -5.21875 C 6.59375 -4.046875 6.265625 -3.015625 5.828125 -2.15625 C 5.40625 -3.046875 5.15625 -4.078125 4.96875 -5.21875 Z M 7.03125 -5.796875 L 6.9375 -5.78125 L 4.046875 -5.78125 L 4.046875 -5.21875 L 4.421875 -5.21875 C 4.65625 -3.828125 4.984375 -2.578125 5.484375 -1.5625 C 5.015625 -0.796875 4.453125 -0.21875 3.828125 0.171875 C 3.96875 0.265625 4.125 0.46875 4.21875 0.609375 C 4.796875 0.203125 5.328125 -0.328125 5.796875 -1 C 6.203125 -0.34375 6.6875 0.171875 7.28125 0.546875 C 7.375 0.40625 7.5625 0.203125 7.703125 0.09375 C 7.0625 -0.28125 6.546875 -0.84375 6.125 -1.546875 C 6.75 -2.625 7.171875 -4 7.390625 -5.703125 Z M 7.03125 -5.796875 "/></g></g></g><g fill="#545454" fill-opacity="1"><g transform="translate(160.671369, 48.797043)"><g><path d="M 3.140625 -3.03125 C 3.140625 -2.5625 3.515625 -2.1875 4 -2.1875 C 4.46875 -2.1875 4.84375 -2.5625 4.84375 -3.03125 C 4.84375 -3.5 4.46875 -3.875 4 -3.875 C 3.515625 -3.875 3.140625 -3.5 3.140625 -3.03125 Z M 3.140625 -3.03125 "/></g></g></g><g fill="#545454" fill-opacity="1"><g transform="translate(168.651871, 48.797043)"><g><path d="M 2.390625 -4.875 L 1.203125 -4.875 L 1.203125 -5.890625 L 2.390625 -5.890625 Z M 2.390625 -3.390625 L 1.203125 -3.390625 L 1.203125 -4.40625 L 2.390625 -4.40625 Z M 2.390625 -1.875 L 1.203125 -1.875 L 1.203125 -2.921875 L 2.390625 -2.921875 Z M 2.9375 -6.375 L 0.6875 -6.375 L 0.6875 -1.390625 L 2.9375 -1.390625 Z M 1.078125 -1.21875 C 0.921875 -0.640625 0.640625 -0.078125 0.28125 0.296875 C 0.40625 0.375 0.625 0.53125 0.734375 0.609375 C 1.078125 0.1875 1.421875 -0.453125 1.609375 -1.109375 Z M 2.078125 -1.03125 C 2.328125 -0.640625 2.609375 -0.109375 2.71875 0.21875 L 3.1875 0 C 3.0625 -0.328125 2.78125 -0.84375 2.515625 -1.234375 Z M 5.59375 -1.15625 L 5.59375 -1.75 L 6.625 -1.75 L 6.625 -1.15625 Z M 4.09375 -1.75 L 5.0625 -1.75 L 5.0625 -1.15625 L 4.09375 -1.15625 Z M 5.0625 -2.734375 L 5.0625 -2.171875 L 4.09375 -2.171875 L 4.09375 -2.734375 Z M 6.625 -2.734375 L 6.625 -2.171875 L 5.59375 -2.171875 L 5.59375 -2.734375 Z M 4.75 -4.625 L 5.9375 -4.625 L 5.9375 -4.09375 L 4.75 -4.09375 Z M 4.75 -5.546875 L 5.9375 -5.546875 L 5.9375 -5.0625 L 4.75 -5.0625 Z M 7.640625 -1.15625 L 7.15625 -1.15625 L 7.15625 -3.1875 L 5.59375 -3.1875 L 5.59375 -3.65625 L 7.609375 -3.65625 L 7.609375 -4.09375 L 6.46875 -4.09375 L 6.46875 -4.625 L 7.3125 -4.625 L 7.3125 -5.0625 L 6.46875 -5.0625 L 6.46875 -5.546875 L 7.4375 -5.546875 L 7.4375 -5.984375 L 6.46875 -5.984375 L 6.46875 -6.671875 L 5.9375 -6.671875 L 5.9375 -5.984375 L 4.75 -5.984375 L 4.75 -6.671875 L 4.21875 -6.671875 L 4.21875 -5.984375 L 3.25 -5.984375 L 3.25 -5.546875 L 4.21875 -5.546875 L 4.21875 -5.0625 L 3.46875 -5.0625 L 3.46875 -4.625 L 4.21875 -4.625 L 4.21875 -4.09375 L 3.078125 -4.09375 L 3.078125 -3.65625 L 5.0625 -3.65625 L 5.0625 -3.1875 L 3.5625 -3.1875 L 3.5625 -1.15625 L 3.046875 -1.15625 L 3.046875 -0.703125 L 3.5625 -0.703125 L 3.5625 0.609375 L 4.09375 0.609375 L 4.09375 -0.703125 L 6.625 -0.703125 L 6.625 -0.015625 C 6.625 0.09375 6.578125 0.125 6.484375 0.125 C 6.375 0.125 5.984375 0.125 5.578125 0.125 C 5.640625 0.25 5.71875 0.46875 5.734375 0.59375 C 6.3125 0.59375 6.671875 0.59375 6.90625 0.515625 C 7.09375 0.4375 7.15625 0.28125 7.15625 -0.015625 L 7.15625 -0.703125 L 7.640625 -0.703125 Z M 7.640625 -1.15625 "/></g></g></g><g fill="#545454" fill-opacity="1"><g transform="translate(176.632373, 48.797043)"><g><path d="M 2.375 -6 C 2.890625 -5.640625 3.296875 -5.1875 3.640625 -4.703125 C 3.125 -2.453125 2.140625 -0.84375 0.359375 0.078125 C 0.515625 0.1875 0.796875 0.4375 0.890625 0.5625 C 2.5 -0.390625 3.515625 -1.84375 4.125 -3.921875 C 5 -2.328125 5.546875 -0.484375 7.375 0.53125 C 7.40625 0.34375 7.546875 0.03125 7.671875 -0.125 C 5.015625 -1.703125 5.265625 -4.6875 2.734375 -6.5 Z M 2.375 -6 "/></g></g></g><g fill="#545454" fill-opacity="1"><g transform="translate(184.612875, 48.797043)"><g><path d="M 5.84375 -4.140625 L 5.4375 -3.96875 C 5.671875 -3.640625 5.90625 -3.21875 6.09375 -2.84375 L 6.5 -3.03125 C 6.328125 -3.390625 6.03125 -3.875 5.84375 -4.140625 Z M 6.71875 -4.484375 L 6.3125 -4.296875 C 6.578125 -3.953125 6.796875 -3.5625 7 -3.1875 L 7.40625 -3.375 C 7.21875 -3.734375 6.90625 -4.21875 6.71875 -4.484375 Z M 0.65625 -5.25 L 0.734375 -4.546875 C 1.59375 -4.734375 3.75 -4.9375 4.4375 -5.015625 C 3.71875 -4.578125 2.96875 -3.578125 2.96875 -2.34375 C 2.96875 -0.578125 4.640625 0.203125 6.09375 0.265625 L 6.328125 -0.40625 C 5.046875 -0.453125 3.609375 -0.9375 3.609375 -2.484375 C 3.609375 -3.421875 4.28125 -4.625 5.40625 -4.984375 C 5.828125 -5.109375 6.5 -5.109375 6.96875 -5.109375 L 6.96875 -5.75 C 6.4375 -5.71875 5.6875 -5.6875 4.828125 -5.609375 C 3.375 -5.484375 1.890625 -5.34375 1.359375 -5.296875 C 1.21875 -5.28125 0.96875 -5.265625 0.65625 -5.25 Z M 0.65625 -5.25 "/></g></g></g><g fill="#545454" fill-opacity="1"><g transform="translate(192.593378, 48.797043)"><g><path d="M 1.6875 -2.140625 C 1.59375 -1.859375 1.5 -1.484375 1.5 -1.15625 C 1.5 -0.15625 2.328125 0.328125 3.75 0.328125 C 4.390625 0.328125 5.15625 0.265625 5.65625 0.171875 L 5.671875 -0.46875 C 5.109375 -0.34375 4.359375 -0.28125 3.71875 -0.28125 C 2.59375 -0.28125 2.109375 -0.671875 2.109375 -1.28125 C 2.109375 -1.484375 2.203125 -1.84375 2.296875 -2.078125 Z M 6.71875 -4.296875 C 6.359375 -4.171875 5.890625 -4.03125 5.265625 -3.90625 C 5.125 -4.203125 5.015625 -4.453125 4.953125 -4.625 L 4.8125 -4.953125 C 5.34375 -5.03125 5.875 -5.15625 6.28125 -5.28125 L 6.15625 -5.859375 C 5.703125 -5.6875 5.140625 -5.5625 4.59375 -5.484375 C 4.46875 -5.78125 4.375 -6.078125 4.296875 -6.359375 L 3.578125 -6.203125 C 3.6875 -6.03125 3.75 -5.890625 3.875 -5.640625 C 3.90625 -5.578125 3.9375 -5.5 3.96875 -5.40625 C 3.21875 -5.34375 2.328125 -5.359375 1.390625 -5.46875 L 1.421875 -4.890625 C 2.40625 -4.796875 3.40625 -4.796875 4.203125 -4.875 C 4.265625 -4.75 4.3125 -4.59375 4.390625 -4.46875 L 4.65625 -3.8125 C 3.71875 -3.703125 2.546875 -3.6875 1.34375 -3.796875 L 1.359375 -3.21875 C 2.59375 -3.140625 3.875 -3.15625 4.90625 -3.296875 C 5.09375 -2.875 5.265625 -2.453125 5.421875 -2.140625 C 5.171875 -2.171875 4.796875 -2.21875 4.421875 -2.265625 L 4.359375 -1.765625 C 4.859375 -1.703125 5.5 -1.625 5.90625 -1.546875 L 6.21875 -1.9375 C 5.984375 -2.359375 5.734375 -2.890625 5.5 -3.390625 C 6.03125 -3.5 6.484375 -3.609375 6.84375 -3.734375 Z M 6.71875 -4.296875 "/></g></g></g><g fill="#545454" fill-opacity="1"><g transform="translate(200.57388, 48.797043)"><g><path d="M 3.984375 -0.265625 C 3.390625 -0.265625 2.9375 -0.484375 2.9375 -0.875 C 2.9375 -1.15625 3.203125 -1.359375 3.5625 -1.359375 C 4.171875 -1.359375 4.546875 -0.9375 4.609375 -0.3125 C 4.421875 -0.28125 4.203125 -0.265625 3.984375 -0.265625 Z M 5.609375 -6 C 5.53125 -5.984375 5.40625 -5.96875 5.1875 -5.9375 C 4.765625 -5.90625 2.890625 -5.84375 2.484375 -5.84375 C 2.328125 -5.84375 2.09375 -5.84375 1.921875 -5.875 L 1.9375 -5.203125 C 2.109375 -5.234375 2.296875 -5.25 2.46875 -5.25 C 2.875 -5.28125 4.4375 -5.34375 4.859375 -5.359375 C 4.46875 -5.015625 3.484375 -4.1875 3.046875 -3.8125 C 2.578125 -3.4375 1.5625 -2.59375 0.90625 -2.046875 L 1.375 -1.578125 C 2.375 -2.59375 3.09375 -3.140625 4.40625 -3.140625 C 5.390625 -3.140625 6.1875 -2.578125 6.1875 -1.796875 C 6.1875 -1.15625 5.828125 -0.703125 5.203125 -0.46875 C 5.09375 -1.203125 4.5625 -1.859375 3.5625 -1.859375 C 2.828125 -1.859375 2.34375 -1.359375 2.34375 -0.828125 C 2.34375 -0.171875 3.015625 0.3125 4.09375 0.3125 C 5.75 0.3125 6.8125 -0.515625 6.8125 -1.796875 C 6.8125 -2.859375 5.875 -3.671875 4.546875 -3.671875 C 4.203125 -3.671875 3.84375 -3.609375 3.484375 -3.5 C 4.09375 -4.015625 5.15625 -4.9375 5.546875 -5.234375 C 5.65625 -5.328125 5.84375 -5.453125 5.984375 -5.546875 Z M 5.609375 -6 "/></g></g></g><g fill="#545454" fill-opacity="1"><g transform="translate(208.554382, 48.797043)"><g><path d="M 1.65625 -0.875 C 2.109375 -0.546875 2.640625 -0.078125 2.890625 0.25 L 3.359375 -0.109375 C 3.09375 -0.4375 2.5625 -0.890625 2.09375 -1.1875 Z M 1.78125 -3.484375 L 3.6875 -3.484375 L 3.6875 -2.84375 L 1.78125 -2.84375 Z M 1.78125 -4.5625 L 3.6875 -4.5625 L 3.6875 -3.90625 L 1.78125 -3.90625 Z M 6.21875 -4.5625 L 6.21875 -3.90625 L 4.25 -3.90625 L 4.25 -4.5625 Z M 6.21875 -2.84375 L 4.25 -2.84375 L 4.25 -3.484375 L 6.21875 -3.484375 Z M 7.546875 -1.78125 L 5.75 -1.78125 L 5.75 -2.390625 L 6.796875 -2.390625 L 6.796875 -4.984375 L 4.25 -4.984375 L 4.25 -5.53125 L 7.375 -5.53125 L 7.375 -6.046875 L 4.25 -6.046875 L 4.25 -6.671875 L 3.6875 -6.671875 L 3.6875 -6.046875 L 0.640625 -6.046875 L 0.640625 -5.53125 L 3.6875 -5.53125 L 3.6875 -4.984375 L 1.21875 -4.984375 L 1.21875 -2.390625 L 5.171875 -2.390625 L 5.171875 -1.78125 L 0.4375 -1.78125 L 0.4375 -1.28125 L 5.171875 -1.28125 L 5.171875 -0.03125 C 5.171875 0.078125 5.125 0.109375 4.984375 0.125 C 4.859375 0.125 4.375 0.125 3.84375 0.109375 C 3.921875 0.265625 4.015625 0.484375 4.046875 0.625 C 4.71875 0.625 5.15625 0.625 5.40625 0.546875 C 5.671875 0.46875 5.75 0.3125 5.75 -0.015625 L 5.75 -1.28125 L 7.546875 -1.28125 Z M 7.546875 -1.78125 "/></g></g></g><g fill="#545454" fill-opacity="1"><g transform="translate(216.534884, 48.797043)"><g><path d="M 3.03125 -5.796875 L 3.03125 -5.109375 L 1.34375 -5.109375 L 1.34375 -5.796875 Z M 1.34375 -3.890625 L 1.34375 -4.65625 L 3.03125 -4.65625 L 3.03125 -3.890625 Z M 3.59375 -6.3125 L 0.765625 -6.3125 L 0.765625 0.609375 L 1.34375 0.609375 L 1.34375 -3.390625 L 3.59375 -3.390625 Z M 4.90625 -3.875 L 4.90625 -4.65625 L 6.671875 -4.65625 L 6.671875 -3.875 Z M 6.671875 -5.796875 L 6.671875 -5.109375 L 4.90625 -5.109375 L 4.90625 -5.796875 Z M 7.28125 -6.3125 L 4.328125 -6.3125 L 4.328125 -3.390625 L 6.671875 -3.390625 L 6.671875 -0.203125 C 6.671875 -0.046875 6.625 -0.015625 6.46875 0 C 6.3125 0.015625 5.765625 0.015625 5.21875 -0.015625 C 5.3125 0.15625 5.40625 0.4375 5.4375 0.59375 C 6.15625 0.59375 6.625 0.578125 6.90625 0.484375 C 7.171875 0.390625 7.28125 0.203125 7.28125 -0.203125 Z M 7.28125 -6.3125 "/></g></g></g><g fill="#545454" fill-opacity="1"><g transform="translate(224.515386, 48.797043)"><g><path d="M 6.28125 -0.328125 L 2.921875 -0.328125 L 2.921875 -1.765625 L 6.28125 -1.765625 Z M 4.671875 -4.875 L 4.078125 -4.875 L 4.078125 -2.3125 L 2.34375 -2.3125 L 2.34375 0.515625 L 2.921875 0.515625 L 2.921875 0.1875 L 6.28125 0.1875 L 6.28125 0.5 L 6.875 0.5 L 6.875 -2.3125 L 4.671875 -2.3125 L 4.671875 -3.390625 L 7.265625 -3.390625 L 7.265625 -3.921875 L 4.671875 -3.921875 Z M 4.8125 -5.703125 C 4.6875 -6 4.5 -6.375 4.296875 -6.65625 L 3.734375 -6.515625 C 3.890625 -6.28125 4.03125 -5.96875 4.140625 -5.703125 L 1.03125 -5.703125 L 1.03125 -3.640625 C 1.03125 -2.484375 0.953125 -0.875 0.28125 0.28125 C 0.421875 0.34375 0.6875 0.515625 0.796875 0.609375 C 1.515625 -0.59375 1.625 -2.40625 1.625 -3.640625 L 1.625 -5.140625 L 7.5 -5.140625 L 7.5 -5.703125 Z M 4.8125 -5.703125 "/></g></g></g></svg>