<?xml version="1.0" encoding="UTF-8"?><svg id="_レイヤー_1" xmlns="http://www.w3.org/2000/svg" viewBox="0 0 220 55.71"><defs><style>.cls-1{fill:#333;}</style></defs><g><g><g><path class="cls-1" d="m11.66,6.21h2.38v6.86h-5.81v-3.76l-2.24,2.03H.18L11.8.85l5.83-.02-5.97,5.39Z"/><path class="cls-1" d="m36.73,1.83l-1.54,7.91h-5.81l1.19-6.04h-3.43l1.87,9.38h-5.81l-1.87-9.38h-2.08v-1.87h1.7l-.21-1h5.81l.21,1h9.96Z"/><path class="cls-1" d="m55.99,1.83v1.87h-5.9v9.38h-5.81V3.69h-5.92v-1.87h5.92V.43h5.81v1.4h5.9Zm-16.89,3.9h4.13l-.75,7.35h-4.13l.75-7.35Zm16.16,0l.72,7.35h-4.13l-.72-7.35h4.13Z"/><path class="cls-1" d="m65.44,3.58h-7.81V.82h7.81v2.75Zm9.82-.33l-5.22,9.82h-5.81l5.22-9.82h5.81Z"/></g><g><path class="cls-1" d="m96.28.82l7.65,12.24h-5.81l-4.99-7.98-1.98,4.99h-4.59l3.71-9.26h6.02Z"/><path class="cls-1" d="m105.57,3.9h2.08v5.85h-2.08V3.9Zm5.13,5.85h-2.07V3.9h2.07v5.85Zm7.37-5.48l-3.29,8.79h-4.36l3.31-8.79h4.34Z"/><path class="cls-1" d="m125.49,5.07h8.95v2.75h-8.95v5.25h-5.81V.82h5.81v4.25Zm6.43-1.72h-1.63V.38h1.63v2.96Zm2.64-2.96v2.96h-1.66V.38h1.66Z"/><path class="cls-1" d="m153.68,1.83v1.87h-5.9v9.38h-5.81V3.69h-5.93v-1.87h5.93V.43h5.81v1.4h5.9Zm-16.88,3.9h4.13l-.75,7.35h-4.13l.75-7.35Zm16.16,0l.72,7.35h-4.13l-.72-7.35h4.13Z"/><path class="cls-1" d="m163.13,3.58h-7.81V.82h7.81v2.75Zm9.82-.33l-5.22,9.82h-5.81l5.23-9.82h5.81Z"/></g><path class="cls-1" d="m82.82,5.9c0,.93-.75,1.68-1.68,1.68s-1.68-.75-1.68-1.68.75-1.68,1.68-1.68,1.68.78,1.68,1.68Z"/></g><g><path class="cls-1" d="m184.26.14v.9h5.32v1.68h-5.32v.45h4.42v5.11h-1.62v.53h2.95v1.67h-2.95v1.35c0,1.8-.87,2.03-3.16,2.03-.06-.6-.21-1.31-.5-1.85h1.28c.16,0,.23-.09.23-.24v-1.29h-3.88c.33.35.87.87,1.22,1.2l-1.38,1.29c-.5-.59-.78-.87-1.97-1.94l.59-.56h-2.9v-1.67h8.33v-.53h-7.04V3.17h4.24v-.45h-5.29v-1.68h5.29V.14h2.15Zm-4.34,4.92h2.19v-.48h-2.19v.48Zm0,1.88h2.19v-.59h-2.19v.59Zm4.34-1.88h2.33v-.48h-2.33v.48Zm0,1.29v.59h2.33v-.59h-2.33Z"/><path class="cls-1" d="m197.78.41v6.1h-3.64v7.34h-2.02V.41h5.65Zm-3.64,2.38h1.76v-.62h-1.76v.62Zm0,2.07h1.76v-.66h-1.76v.66Zm10.4-4.44v11.28c0,1.31-.29,2.12-3.25,2.17-.12-.71-.33-1.37-.65-1.97h1.64c.14,0,.16-.09.16-.2v-5.17h-3.68V.42h5.77Zm-3.86,2.39h1.77v-.66h-1.77v.66Zm0,2.04h1.77v-.63h-1.77v.63Z"/><path class="cls-1" d="m215.07,0v1.04h4.93v1.86h-10.53c0,5.4-.11,6.56-.99,9.26-.09.36-.21.72-.78,1.73-.51-.66-1.04-1.28-1.65-1.82.51-1.01,1.22-2.47,1.34-5.38.03-.45.03-.99.03-5.65h5.22V0h2.44Zm.36,3.22v1.37h4.26v1.82h-4.26v1.35h3.88v5.8h-2.16v-.6h-4.98v.75h-2.18v-5.95h3.28V3.22h2.16Zm-3.26,7.86h4.98v-1.5h-4.98v1.5Z"/></g></g><g><path class="cls-1" d="m30.08,43.86H10.09c.18,1.61.61,2.81,1.3,3.6.97,1.14,2.23,1.7,3.79,1.7.99,0,1.92-.25,2.81-.75.54-.32,1.12-.88,1.75-1.68l9.82.96c-1.5,2.61-3.31,4.47-5.44,5.61-2.12,1.13-5.17,1.7-9.13,1.7-3.45,0-6.16-.49-8.13-1.46-1.98-.97-3.61-2.52-4.91-4.63-1.3-2.12-1.95-4.61-1.95-7.47,0-4.07,1.3-7.36,3.9-9.88,2.6-2.52,6.19-3.77,10.78-3.77,3.72,0,6.65.56,8.8,1.69,2.15,1.13,3.79,2.76,4.92,4.91,1.12,2.14,1.69,4.93,1.69,8.36v1.13Zm-10.09-4.78c-.2-1.93-.72-3.31-1.57-4.14-.85-.83-1.96-1.25-3.34-1.25-1.6,0-2.87.63-3.82,1.89-.61.79-1,1.95-1.16,3.51h9.89Z"/><path class="cls-1" d="m85.02,40.1h5.11v14.74h-12.47v-8.07l-4.81,4.36h-12.47l24.94-22.53,12.52-.09-12.82,11.61Z"/><path class="cls-1" d="m137.88,30.69l-3.3,16.98h-12.47l2.55-12.97h-7.36l4.01,20.15h-12.47l-4.01-20.15h-4.46v-4h3.65l-.45-2.19h12.47l.45,2.19h21.38Z"/><path class="cls-1" d="m198.56,34.44h-16.77v-5.95h16.77v5.95Zm21.08-.7l-11.22,21.08h-12.47s11.22-21.08,11.22-21.08h12.47Z"/><path class="cls-1" d="m33.12,38.08h9.67l3.15-9.56,3.04,9.56h9.45l-7.61,5.76,2.83,9.13-7.72-5.54-7.83,5.54,2.83-9.02-7.83-5.87Zm6.3,1.85l3.91,3.04-1.52,4.67,4.13-2.93,3.8,2.93-1.52-4.67,3.91-3.04h-4.67l-1.52-4.57-1.74,4.57h-4.78Z"/><g><polygon class="cls-1" points="178.76 30.69 178.76 34.67 166.12 34.67 166.12 54.82 153.6 54.82 153.6 34.67 140.91 34.67 140.91 30.69 153.6 30.69 153.6 27.71 166.12 27.71 166.12 30.69 178.76 30.69"/><path class="cls-1" d="m159.62,17.64c.11,0,.3-.01.7-.03,2.92-.09,14.96.34,18.69,13.14l.49.03.37,3.34-.66.17c.09.78.18,2.02.18,3.62.16-.1.35-.14.56-.11.43.06.76.3.63,1.2-.11.66-.28,2.31-.41,3.26.62,1.23.96,2.9.69,5.17-.88,7.3-7.97,7.28-7.97,7.28,0,0-.45,1.29-1.94.91-1.49-.38-1.58-.56-.07-9.82,1.51-9.26,2.22-8.82,3.28-8.74,1.65.14,1.58,1.51,1.81,1.74.08.08.72.25,1.53.7.05-.91.15-3.19-.04-5.17l-.47-.09-.36-3.04.28-.11c-.57-2.22-4-10.26-15.31-10.35-.36,0-.98-.01-1.42-.02-.28,0-.46,0-.6,0"/><path class="cls-1" d="m160.14,17.64c-.11,0-.13.01-.53,0-2.92-.08-15.15.34-18.88,13.14l-.49.03-.37,3.34.65.17c-.09.78-.19,2.02-.18,3.62-.16-.1-.35-.14-.56-.11-.43.06-.76.3-.62,1.2.1.66.28,2.31.41,3.26-.62,1.23-.96,2.9-.69,5.17.88,7.3,7.98,7.28,7.98,7.28,0,0,.45,1.29,1.94.91,1.49-.38,1.58-.56.07-9.82-1.51-9.26-2.22-8.82-3.28-8.74-1.65.14-1.58,1.51-1.81,1.74-.08.08-.72.25-1.53.7-.05-.91-.15-3.19.04-5.17l.46-.09.36-3.03-.28-.11c.57-2.22,4-10.25,15.32-10.35.36,0,.97-.03,1.41-.04.28,0,.5,0,.63,0"/></g></g></svg>