<svg xmlns="http://www.w3.org/2000/svg" xmlns:xlink="http://www.w3.org/1999/xlink" width="250" zoomAndPan="magnify" viewBox="0 0 187.5 44.999999" height="60" preserveAspectRatio="xMidYMid meet" version="1.0"><defs><g/><clipPath id="92a5e13037"><path d="M 37.609375 2.304688 L 47 2.304688 L 47 9 L 37.609375 9 Z M 37.609375 2.304688 " clip-rule="nonzero"/></clipPath><clipPath id="907dfb8ade"><path d="M 47 2.304688 L 57 2.304688 L 57 9 L 47 9 Z M 47 2.304688 " clip-rule="nonzero"/></clipPath><clipPath id="4c3390a21b"><path d="M 57 2.304688 L 66 2.304688 L 66 9 L 57 9 Z M 57 2.304688 " clip-rule="nonzero"/></clipPath><clipPath id="6f81f06349"><path d="M 66 2.304688 L 76 2.304688 L 76 9 L 66 9 Z M 66 2.304688 " clip-rule="nonzero"/></clipPath><clipPath id="20209c9236"><path d="M 81 2.304688 L 91 2.304688 L 91 9 L 81 9 Z M 81 2.304688 " clip-rule="nonzero"/></clipPath><clipPath id="1974cbd681"><path d="M 98 2.304688 L 106 2.304688 L 106 9 L 98 9 Z M 98 2.304688 " clip-rule="nonzero"/></clipPath><clipPath id="72fcff79cf"><path d="M 106 2.304688 L 116 2.304688 L 116 9 L 106 9 Z M 106 2.304688 " clip-rule="nonzero"/></clipPath><clipPath id="48a3dc87e7"><path d="M 116 2.304688 L 126 2.304688 L 126 9 L 116 9 Z M 116 2.304688 " clip-rule="nonzero"/></clipPath><clipPath id="383759cc4a"><path d="M 126 2.304688 L 134 2.304688 L 134 10 L 126 10 Z M 126 2.304688 " clip-rule="nonzero"/></clipPath><clipPath id="9fbff32844"><path d="M 134 2.304688 L 142 2.304688 L 142 10 L 134 10 Z M 134 2.304688 " clip-rule="nonzero"/></clipPath><clipPath id="019362b18c"><path d="M 141 2.304688 L 148.9375 2.304688 L 148.9375 10 L 141 10 Z M 141 2.304688 " clip-rule="nonzero"/></clipPath><clipPath id="9c2470bb8f"><path d="M 37.609375 16 L 53 16 L 53 30.457031 L 37.609375 30.457031 Z M 37.609375 16 " clip-rule="nonzero"/></clipPath><clipPath id="17cee25bd9"><path d="M 68 16 L 88 16 L 88 30.457031 L 68 30.457031 Z M 68 16 " clip-rule="nonzero"/></clipPath><clipPath id="821ad78057"><path d="M 88 16 L 108 16 L 108 30.457031 L 88 30.457031 Z M 88 16 " clip-rule="nonzero"/></clipPath><clipPath id="03ba68f5d6"><path d="M 129 16 L 148.9375 16 L 148.9375 30.457031 L 129 30.457031 Z M 129 16 " clip-rule="nonzero"/></clipPath><clipPath id="8a855b4d55"><path d="M 108 16 L 129 16 L 129 30.457031 L 108 30.457031 Z M 108 16 " clip-rule="nonzero"/></clipPath><clipPath id="cc87b4fcb0"><path d="M 118 11 L 130 11 L 130 30.457031 L 118 30.457031 Z M 118 11 " clip-rule="nonzero"/></clipPath><clipPath id="c31aabe78c"><path d="M 107 11 L 119 11 L 119 30.457031 L 107 30.457031 Z M 107 11 " clip-rule="nonzero"/></clipPath></defs><g clip-path="url(#92a5e13037)"><path fill="#f08300" d="M 43.507812 5.441406 L 44.714844 5.441406 L 44.714844 8.90625 L 41.777344 8.90625 L 41.777344 7.007812 L 40.644531 8.035156 L 37.699219 8.035156 L 43.578125 2.734375 L 46.527344 2.722656 L 43.503906 5.441406 Z M 43.507812 5.441406 " fill-opacity="1" fill-rule="nonzero"/></g><g clip-path="url(#907dfb8ade)"><path fill="#f08300" d="M 56.195312 3.226562 L 55.414062 7.21875 L 52.476562 7.21875 L 53.082031 4.167969 L 51.34375 4.167969 L 52.289062 8.90625 L 49.351562 8.90625 L 48.40625 4.167969 L 47.355469 4.167969 L 47.355469 3.226562 L 48.21875 3.226562 L 48.113281 2.71875 L 51.050781 2.71875 L 51.15625 3.226562 Z M 56.195312 3.226562 " fill-opacity="1" fill-rule="nonzero"/></g><g clip-path="url(#4c3390a21b)"><path fill="#f08300" d="M 65.941406 3.226562 L 65.941406 4.167969 L 62.957031 4.167969 L 62.957031 8.90625 L 60.019531 8.90625 L 60.019531 4.167969 L 57.019531 4.167969 L 57.019531 3.226562 L 60.019531 3.226562 L 60.019531 2.519531 L 62.957031 2.519531 L 62.957031 3.226562 Z M 57.398438 5.195312 L 59.488281 5.195312 L 59.109375 8.90625 L 57.019531 8.90625 Z M 65.578125 5.195312 L 65.945312 8.90625 L 63.855469 8.90625 L 63.488281 5.195312 Z M 65.578125 5.195312 " fill-opacity="1" fill-rule="nonzero"/></g><g clip-path="url(#6f81f06349)"><path fill="#f08300" d="M 70.722656 4.113281 L 66.769531 4.113281 L 66.769531 2.722656 L 70.722656 2.722656 Z M 75.691406 3.945312 L 73.050781 8.90625 L 70.113281 8.90625 L 72.753906 3.945312 Z M 75.691406 3.945312 " fill-opacity="1" fill-rule="nonzero"/></g><g clip-path="url(#20209c9236)"><path fill="#f08300" d="M 86.335938 2.722656 L 90.203125 8.90625 L 87.265625 8.90625 L 84.742188 4.878906 L 83.738281 7.398438 L 81.414062 7.398438 L 83.292969 2.722656 Z M 86.335938 2.722656 " fill-opacity="1" fill-rule="nonzero"/></g><path fill="#f08300" d="M 91.03125 4.277344 L 92.082031 4.277344 L 92.082031 7.234375 L 91.03125 7.234375 Z M 93.625 7.234375 L 92.574219 7.234375 L 92.574219 4.277344 L 93.625 4.277344 Z M 97.359375 4.464844 L 95.691406 8.90625 L 93.484375 8.90625 L 95.160156 4.464844 Z M 97.359375 4.464844 " fill-opacity="1" fill-rule="nonzero"/><g clip-path="url(#1974cbd681)"><path fill="#f08300" d="M 101.109375 4.863281 L 105.640625 4.863281 L 105.640625 6.257812 L 101.109375 6.257812 L 101.109375 8.90625 L 98.167969 8.90625 L 98.167969 2.722656 L 101.109375 2.722656 Z M 104.363281 3.996094 L 103.539062 3.996094 L 103.539062 2.496094 L 104.363281 2.496094 Z M 105.699219 2.496094 L 105.699219 3.996094 L 104.859375 3.996094 L 104.859375 2.496094 Z M 105.699219 2.496094 " fill-opacity="1" fill-rule="nonzero"/></g><g clip-path="url(#72fcff79cf)"><path fill="#f08300" d="M 115.378906 3.226562 L 115.378906 4.167969 L 112.394531 4.167969 L 112.394531 8.90625 L 109.457031 8.90625 L 109.457031 4.167969 L 106.457031 4.167969 L 106.457031 3.226562 L 109.457031 3.226562 L 109.457031 2.519531 L 112.394531 2.519531 L 112.394531 3.226562 Z M 106.832031 5.195312 L 108.921875 5.195312 L 108.542969 8.90625 L 106.453125 8.90625 Z M 115.011719 5.195312 L 115.378906 8.90625 L 113.289062 8.90625 L 112.921875 5.195312 Z M 115.011719 5.195312 " fill-opacity="1" fill-rule="nonzero"/></g><g clip-path="url(#48a3dc87e7)"><path fill="#f08300" d="M 120.160156 4.113281 L 116.207031 4.113281 L 116.207031 2.722656 L 120.160156 2.722656 Z M 125.128906 3.945312 L 122.484375 8.90625 L 119.542969 8.90625 L 122.1875 3.945312 Z M 125.128906 3.945312 " fill-opacity="1" fill-rule="nonzero"/></g><path fill="#f08300" d="M 79.519531 5.285156 C 79.519531 5.757812 79.136719 6.136719 78.667969 6.136719 C 78.199219 6.136719 77.816406 5.753906 77.816406 5.285156 C 77.816406 4.816406 78.199219 4.4375 78.667969 4.4375 C 79.136719 4.4375 79.519531 4.832031 79.519531 5.285156 Z M 79.519531 5.285156 " fill-opacity="1" fill-rule="nonzero"/><g clip-path="url(#383759cc4a)"><path fill="#f08300" d="M 130.855469 2.375 L 130.855469 2.828125 L 133.546875 2.828125 L 133.546875 3.679688 L 130.855469 3.679688 L 130.855469 3.90625 L 133.089844 3.90625 L 133.089844 6.488281 L 132.269531 6.488281 L 132.269531 6.753906 L 133.761719 6.753906 L 133.761719 7.597656 L 132.269531 7.597656 L 132.269531 8.28125 C 132.269531 9.195312 131.828125 9.308594 130.671875 9.308594 C 130.640625 9.003906 130.566406 8.644531 130.421875 8.371094 L 131.070312 8.371094 C 131.152344 8.371094 131.183594 8.328125 131.183594 8.25 L 131.183594 7.597656 L 129.222656 7.597656 C 129.390625 7.773438 129.664062 8.039062 129.839844 8.207031 L 129.140625 8.859375 C 128.886719 8.5625 128.746094 8.417969 128.144531 7.878906 L 128.441406 7.597656 L 126.972656 7.597656 L 126.972656 6.753906 L 131.1875 6.753906 L 131.1875 6.488281 L 127.625 6.488281 L 127.625 3.90625 L 129.773438 3.90625 L 129.773438 3.679688 L 127.09375 3.679688 L 127.09375 2.828125 L 129.773438 2.828125 L 129.773438 2.375 L 130.859375 2.375 Z M 128.65625 4.855469 L 129.765625 4.855469 L 129.765625 4.613281 L 128.65625 4.613281 Z M 128.65625 5.804688 L 129.765625 5.804688 L 129.765625 5.507812 L 128.65625 5.507812 Z M 130.855469 4.855469 L 132.03125 4.855469 L 132.03125 4.613281 L 130.855469 4.613281 Z M 130.855469 5.507812 L 130.855469 5.804688 L 132.03125 5.804688 L 132.03125 5.507812 Z M 130.855469 5.507812 " fill-opacity="1" fill-rule="nonzero"/></g><g clip-path="url(#9fbff32844)"><path fill="#f08300" d="M 137.695312 2.507812 L 137.695312 5.59375 L 135.855469 5.59375 L 135.855469 9.300781 L 134.832031 9.300781 L 134.832031 2.507812 Z M 135.855469 3.710938 L 136.742188 3.710938 L 136.742188 3.398438 L 135.855469 3.398438 Z M 135.855469 4.757812 L 136.742188 4.757812 L 136.742188 4.421875 L 135.855469 4.421875 Z M 141.121094 2.515625 L 141.121094 8.210938 C 141.121094 8.875 140.972656 9.28125 139.476562 9.308594 C 139.414062 8.949219 139.308594 8.613281 139.148438 8.3125 L 139.976562 8.3125 C 140.046875 8.3125 140.0625 8.265625 140.0625 8.210938 L 140.0625 5.601562 L 138.199219 5.601562 L 138.199219 2.515625 Z M 139.164062 3.726562 L 140.058594 3.726562 L 140.058594 3.390625 L 139.164062 3.390625 Z M 139.164062 4.757812 L 140.058594 4.757812 L 140.058594 4.4375 L 139.164062 4.4375 Z M 139.164062 4.757812 " fill-opacity="1" fill-rule="nonzero"/></g><g clip-path="url(#019362b18c)"><path fill="#f08300" d="M 146.445312 2.304688 L 146.445312 2.828125 L 148.9375 2.828125 L 148.9375 3.769531 L 143.613281 3.769531 C 143.613281 6.496094 143.558594 7.082031 143.109375 8.453125 C 143.0625 8.632812 143.003906 8.816406 142.710938 9.324219 C 142.457031 8.988281 142.1875 8.679688 141.875 8.40625 C 142.136719 7.898438 142.496094 7.160156 142.554688 5.683594 C 142.570312 5.457031 142.570312 5.183594 142.570312 2.828125 L 145.210938 2.828125 L 145.210938 2.304688 Z M 146.625 3.929688 L 146.625 4.621094 L 148.777344 4.621094 L 148.777344 5.539062 L 146.625 5.539062 L 146.625 6.222656 L 148.585938 6.222656 L 148.585938 9.15625 L 147.492188 9.15625 L 147.492188 8.855469 L 144.972656 8.855469 L 144.972656 9.234375 L 143.871094 9.234375 L 143.871094 6.226562 L 145.527344 6.226562 L 145.527344 3.929688 Z M 144.976562 7.902344 L 147.496094 7.902344 L 147.496094 7.144531 L 144.976562 7.144531 Z M 144.976562 7.902344 " fill-opacity="1" fill-rule="nonzero"/></g><g clip-path="url(#9c2470bb8f)"><path fill="#f08300" d="M 52.832031 24.46875 L 42.710938 24.46875 C 42.800781 25.28125 43.023438 25.890625 43.371094 26.289062 C 43.863281 26.863281 44.5 27.152344 45.292969 27.152344 C 45.792969 27.152344 46.265625 27.023438 46.710938 26.769531 C 46.984375 26.609375 47.28125 26.324219 47.597656 25.921875 L 52.566406 26.402344 C 51.804688 27.722656 50.886719 28.664062 49.816406 29.238281 C 48.742188 29.808594 47.199219 30.097656 45.195312 30.097656 C 43.449219 30.097656 42.078125 29.851562 41.078125 29.359375 C 40.078125 28.867188 39.25 28.085938 38.597656 27.019531 C 37.9375 25.949219 37.613281 24.691406 37.613281 23.242188 C 37.613281 21.1875 38.269531 19.523438 39.585938 18.25 C 40.902344 16.980469 42.71875 16.34375 45.039062 16.34375 C 46.921875 16.34375 48.40625 16.628906 49.496094 17.199219 C 50.582031 17.769531 51.410156 18.597656 51.984375 19.679688 C 52.554688 20.761719 52.839844 22.167969 52.839844 23.902344 L 52.839844 24.472656 Z M 47.730469 22.050781 C 47.628906 21.078125 47.367188 20.378906 46.9375 19.960938 C 46.507812 19.539062 45.941406 19.328125 45.246094 19.328125 C 44.4375 19.328125 43.796875 19.644531 43.3125 20.28125 C 43.003906 20.675781 42.808594 21.265625 42.722656 22.050781 Z M 47.730469 22.050781 " fill-opacity="1" fill-rule="nonzero"/></g><g clip-path="url(#17cee25bd9)"><path fill="#f08300" d="M 80.632812 22.566406 L 83.21875 22.566406 L 83.21875 30.015625 L 76.910156 30.015625 L 76.910156 25.933594 L 74.480469 28.136719 L 68.167969 28.136719 L 80.785156 16.75 L 87.121094 16.703125 L 80.636719 22.566406 Z M 80.632812 22.566406 " fill-opacity="1" fill-rule="nonzero"/></g><g clip-path="url(#821ad78057)"><path fill="#f08300" d="M 107.382812 17.808594 L 105.710938 26.390625 L 99.402344 26.390625 L 100.695312 19.832031 L 96.96875 19.832031 L 98.996094 30.011719 L 92.6875 30.011719 L 90.660156 19.832031 L 88.402344 19.832031 L 88.402344 17.808594 L 90.253906 17.808594 L 90.027344 16.699219 L 96.335938 16.699219 L 96.566406 17.808594 L 107.386719 17.808594 Z M 107.382812 17.808594 " fill-opacity="1" fill-rule="nonzero"/></g><g clip-path="url(#03ba68f5d6)"><path fill="#f08300" d="M 138.089844 19.707031 L 129.601562 19.707031 L 129.601562 16.699219 L 138.089844 16.699219 Z M 148.757812 19.351562 L 143.082031 30.003906 L 136.773438 30.011719 L 142.453125 19.351562 L 148.761719 19.351562 Z M 148.757812 19.351562 " fill-opacity="1" fill-rule="nonzero"/></g><path fill="#f08300" d="M 54.367188 21.546875 L 59.261719 21.546875 L 60.855469 16.714844 L 62.394531 21.546875 L 67.179688 21.546875 L 63.332031 24.457031 L 64.761719 29.070312 L 60.855469 26.269531 L 56.894531 29.070312 L 58.324219 24.515625 L 54.363281 21.546875 Z M 57.554688 22.480469 L 59.535156 24.019531 L 58.769531 26.378906 L 60.855469 24.898438 L 62.78125 26.378906 L 62.015625 24.019531 L 63.996094 22.480469 L 61.628906 22.480469 L 60.859375 20.175781 L 59.980469 22.480469 Z M 57.554688 22.480469 " fill-opacity="1" fill-rule="nonzero"/><g clip-path="url(#8a855b4d55)"><path fill="#f08300" d="M 128.074219 17.808594 L 128.074219 19.820312 L 121.671875 19.820312 L 121.671875 30.003906 L 115.335938 30.003906 L 115.335938 19.820312 L 108.914062 19.820312 L 108.914062 17.808594 L 115.335938 17.808594 L 115.335938 16.308594 L 121.671875 16.308594 L 121.671875 17.808594 Z M 128.074219 17.808594 " fill-opacity="1" fill-rule="nonzero"/></g><g clip-path="url(#cc87b4fcb0)"><path fill="#f08300" d="M 118.386719 11.214844 C 118.441406 11.214844 118.539062 11.210938 118.742188 11.203125 C 120.21875 11.160156 126.308594 11.371094 128.195312 17.84375 L 128.441406 17.859375 L 128.632812 19.542969 L 128.296875 19.628906 C 128.34375 20.019531 128.390625 20.648438 128.390625 21.453125 C 128.472656 21.402344 128.570312 21.382812 128.671875 21.398438 C 128.890625 21.429688 129.058594 21.550781 128.988281 22.003906 C 128.933594 22.335938 128.847656 23.167969 128.78125 23.652344 C 129.089844 24.273438 129.265625 25.117188 129.128906 26.265625 C 128.683594 29.953125 125.089844 29.945312 125.089844 29.945312 C 125.089844 29.945312 124.863281 30.59375 124.109375 30.40625 C 123.355469 30.214844 123.308594 30.125 124.078125 25.441406 C 124.839844 20.765625 125.195312 20.980469 125.738281 21.027344 C 126.574219 21.097656 126.539062 21.789062 126.65625 21.90625 C 126.695312 21.945312 127.023438 22.03125 127.429688 22.257812 C 127.457031 21.800781 127.503906 20.648438 127.40625 19.644531 L 127.171875 19.597656 L 126.988281 18.0625 L 127.132812 18.007812 C 126.84375 16.882812 125.109375 12.824219 119.382812 12.777344 C 119.199219 12.777344 118.886719 12.769531 118.660156 12.765625 C 118.523438 12.765625 118.429688 12.765625 118.359375 12.765625 " fill-opacity="1" fill-rule="nonzero"/></g><g clip-path="url(#c31aabe78c)"><path fill="#f08300" d="M 118.648438 11.214844 C 118.59375 11.214844 118.582031 11.222656 118.378906 11.214844 C 116.902344 11.171875 110.710938 11.386719 108.824219 17.859375 L 108.574219 17.871094 L 108.386719 19.554688 L 108.71875 19.640625 C 108.675781 20.03125 108.621094 20.660156 108.621094 21.464844 C 108.542969 21.414062 108.445312 21.398438 108.339844 21.410156 C 108.121094 21.441406 107.953125 21.5625 108.023438 22.015625 C 108.074219 22.347656 108.164062 23.179688 108.230469 23.664062 C 107.917969 24.289062 107.742188 25.128906 107.882812 26.277344 C 108.328125 29.964844 111.917969 29.957031 111.917969 29.957031 C 111.917969 29.957031 112.144531 30.605469 112.898438 30.417969 C 113.652344 30.226562 113.695312 30.136719 112.933594 25.453125 C 112.167969 20.777344 111.8125 20.996094 111.273438 21.039062 C 110.4375 21.109375 110.472656 21.800781 110.355469 21.917969 C 110.316406 21.957031 109.988281 22.042969 109.582031 22.269531 C 109.554688 21.8125 109.507812 20.660156 109.605469 19.65625 L 109.839844 19.609375 L 110.023438 18.078125 L 109.882812 18.019531 C 110.171875 16.894531 111.910156 12.835938 117.636719 12.789062 C 117.816406 12.789062 118.125 12.769531 118.347656 12.765625 C 118.484375 12.765625 118.597656 12.761719 118.667969 12.761719 " fill-opacity="1" fill-rule="nonzero"/></g><g fill="#545454" fill-opacity="1"><g transform="translate(1.645612, 40.906291)"><g><path d="M 4.578125 -3.265625 L 4.578125 -1.703125 L 3.375 -1.703125 L 3.375 -3.265625 Z M 5.0625 -1.265625 L 5.0625 -3.265625 L 6 -3.265625 L 6 -3.734375 L 5.0625 -3.734375 L 5.0625 -5.203125 L 4.578125 -5.203125 L 4.578125 -3.734375 L 3.375 -3.734375 L 3.375 -5.28125 L 2.90625 -5.28125 L 2.90625 -3.734375 L 1.75 -3.734375 L 1.75 -5.125 L 1.265625 -5.125 L 1.265625 -3.734375 L 0.34375 -3.734375 L 0.34375 -3.265625 L 1.265625 -3.265625 L 1.265625 0.078125 L 5.828125 0.078125 L 5.828125 -0.390625 L 1.75 -0.390625 L 1.75 -3.265625 L 2.90625 -3.265625 L 2.90625 -1.265625 Z M 5.0625 -1.265625 "/></g></g></g><g fill="#545454" fill-opacity="1"><g transform="translate(7.991858, 40.906291)"><g><path d="M 1.984375 -1.34375 C 1.984375 -0.875 1.875 -0.265625 0.765625 0.15625 C 0.875 0.234375 1.015625 0.40625 1.09375 0.53125 C 2.3125 0.03125 2.46875 -0.734375 2.46875 -1.328125 L 2.46875 -1.71875 L 1.984375 -1.71875 Z M 1.484375 -3.65625 L 2.9375 -3.65625 L 2.9375 -2.96875 L 1.484375 -2.96875 Z M 1.484375 -4.703125 L 2.9375 -4.703125 L 2.9375 -4.03125 L 1.484375 -4.03125 Z M 4.859375 -4.03125 L 3.390625 -4.03125 L 3.390625 -4.703125 L 4.859375 -4.703125 Z M 4.859375 -2.96875 L 3.390625 -2.96875 L 3.390625 -3.65625 L 4.859375 -3.65625 Z M 5.34375 -2.5625 L 5.34375 -5.09375 L 1.015625 -5.09375 L 1.015625 -2.5625 L 2.28125 -2.5625 C 1.796875 -2.078125 1.03125 -1.65625 0.296875 -1.4375 C 0.40625 -1.34375 0.546875 -1.171875 0.625 -1.046875 C 1.453125 -1.34375 2.328125 -1.90625 2.84375 -2.5625 L 3.546875 -2.5625 C 3.78125 -2.25 4.109375 -1.96875 4.453125 -1.71875 L 3.984375 -1.71875 L 3.984375 0.46875 L 4.46875 0.46875 L 4.46875 -1.71875 C 4.875 -1.4375 5.3125 -1.21875 5.765625 -1.078125 C 5.828125 -1.203125 5.96875 -1.390625 6.078125 -1.484375 C 5.328125 -1.671875 4.578125 -2.078125 4.09375 -2.5625 Z M 5.34375 -2.5625 "/></g></g></g><g fill="#545454" fill-opacity="1"><g transform="translate(14.338105, 40.906291)"><g><path d="M 3.40625 -2.03125 L 3.40625 -3.71875 L 5.21875 -3.71875 L 5.21875 -2.03125 Z M 1.09375 -2.03125 L 1.09375 -3.71875 L 2.90625 -3.71875 L 2.90625 -2.03125 Z M 3.40625 -4.1875 L 3.40625 -5.3125 L 2.90625 -5.3125 L 2.90625 -4.1875 L 0.640625 -4.1875 L 0.640625 -1.1875 L 1.09375 -1.1875 L 1.09375 -1.578125 L 2.90625 -1.578125 L 2.90625 0.484375 L 3.40625 0.484375 L 3.40625 -1.578125 L 5.21875 -1.578125 L 5.21875 -1.21875 L 5.703125 -1.21875 L 5.703125 -4.1875 Z M 3.40625 -4.1875 "/></g></g></g><g fill="#545454" fill-opacity="1"><g transform="translate(20.684352, 40.906291)"><g><path d="M 1.71875 -0.890625 C 1.453125 -0.890625 1.078125 -1.234375 1.078125 -2.03125 C 1.078125 -2.875 1.8125 -3.90625 3.015625 -4.0625 C 2.953125 -3.484375 2.828125 -2.890625 2.671875 -2.359375 C 2.34375 -1.3125 2 -0.890625 1.71875 -0.890625 Z M 3.375 0.171875 C 4.875 -0.03125 5.734375 -0.90625 5.734375 -2.234375 C 5.734375 -3.5 4.796875 -4.546875 3.328125 -4.546875 C 1.796875 -4.546875 0.578125 -3.34375 0.578125 -1.984375 C 0.578125 -0.953125 1.140625 -0.296875 1.703125 -0.296875 C 2.28125 -0.296875 2.78125 -0.96875 3.171875 -2.265625 C 3.34375 -2.84375 3.46875 -3.484375 3.546875 -4.0625 C 4.609375 -3.984375 5.21875 -3.203125 5.21875 -2.25 C 5.21875 -1.15625 4.421875 -0.5625 3.625 -0.390625 C 3.46875 -0.359375 3.28125 -0.328125 3.078125 -0.3125 Z M 3.375 0.171875 "/></g></g></g><g fill="#545454" fill-opacity="1"><g transform="translate(27.030599, 40.906291)"><g><path d="M 5.046875 -4.953125 C 4.6875 -4.5 4.015625 -3.953125 3.375 -3.546875 C 2.671875 -3.109375 1.59375 -2.625 0.546875 -2.390625 L 0.828125 -1.890625 C 1.65625 -2.140625 2.53125 -2.5 3.21875 -2.875 L 3.21875 -0.484375 C 3.21875 -0.234375 3.203125 0.078125 3.171875 0.203125 L 3.796875 0.203125 C 3.78125 0.0625 3.765625 -0.234375 3.765625 -0.484375 L 3.765625 -3.203125 C 4.421875 -3.609375 5.03125 -4.125 5.46875 -4.578125 Z M 5.046875 -4.953125 "/></g></g></g><g fill="#545454" fill-opacity="1"><g transform="translate(33.376846, 40.906291)"><g><path d="M 5.453125 -4.25 C 5.375 -4.21875 5.265625 -4.1875 5.171875 -4.171875 C 4.921875 -4.109375 3.59375 -3.859375 2.5 -3.640625 L 2.25 -4.546875 C 2.1875 -4.75 2.15625 -4.90625 2.140625 -5.03125 L 1.5625 -4.890625 C 1.625 -4.765625 1.671875 -4.625 1.734375 -4.421875 C 1.78125 -4.28125 1.859375 -3.96875 1.984375 -3.546875 L 1.046875 -3.375 C 0.8125 -3.34375 0.625 -3.3125 0.40625 -3.296875 L 0.546875 -2.75 C 0.75 -2.796875 1.390625 -2.9375 2.109375 -3.078125 C 2.40625 -1.984375 2.78125 -0.578125 2.875 -0.234375 C 2.9375 -0.0625 2.96875 0.140625 3 0.28125 L 3.578125 0.140625 C 3.53125 0 3.453125 -0.21875 3.421875 -0.359375 C 3.3125 -0.703125 2.9375 -2.046875 2.625 -3.1875 C 3.71875 -3.40625 4.859375 -3.640625 5.0625 -3.671875 C 4.828125 -3.265625 4.21875 -2.484375 3.6875 -2.0625 L 4.203125 -1.828125 C 4.71875 -2.328125 5.515625 -3.375 5.8125 -4 Z M 5.453125 -4.25 "/></g></g></g><g fill="#545454" fill-opacity="1"><g transform="translate(39.723092, 40.906291)"><g><path d="M 1.71875 -2.625 C 1.484375 -2.109375 0.9375 -1.359375 0.515625 -0.96875 L 0.953125 -0.671875 C 1.3125 -1.0625 1.90625 -1.875 2.171875 -2.40625 Z M 5.203125 -3.390625 C 5.359375 -3.390625 5.546875 -3.390625 5.71875 -3.375 L 5.71875 -3.90625 C 5.5625 -3.875 5.359375 -3.875 5.203125 -3.875 L 3.53125 -3.875 L 3.53125 -4.515625 C 3.53125 -4.65625 3.546875 -4.890625 3.5625 -4.96875 L 2.96875 -4.96875 C 3 -4.875 3.015625 -4.65625 3.015625 -4.515625 L 3.015625 -3.875 L 1.25 -3.875 C 1.046875 -3.875 0.890625 -3.875 0.703125 -3.90625 L 0.703125 -3.375 C 0.875 -3.390625 1.0625 -3.390625 1.25 -3.390625 L 3.015625 -3.390625 L 3.015625 -3.34375 C 3.015625 -3.046875 3.015625 -0.875 3.015625 -0.53125 C 3.015625 -0.359375 2.9375 -0.296875 2.765625 -0.296875 C 2.59375 -0.296875 2.3125 -0.3125 2.03125 -0.359375 L 2.078125 0.140625 C 2.34375 0.171875 2.71875 0.1875 2.984375 0.1875 C 3.375 0.1875 3.53125 0.015625 3.53125 -0.3125 L 3.53125 -3.390625 Z M 4.390625 -2.390625 C 4.71875 -1.984375 5.203125 -1.203125 5.453125 -0.703125 L 5.921875 -0.96875 C 5.671875 -1.421875 5.15625 -2.21875 4.828125 -2.625 Z M 4.390625 -2.390625 "/></g></g></g><g fill="#545454" fill-opacity="1"><g transform="translate(46.069339, 40.906291)"><g><path d="M 1.4375 -4.65625 L 1.078125 -4.265625 C 1.546875 -3.953125 2.34375 -3.265625 2.65625 -2.9375 L 3.0625 -3.34375 C 2.703125 -3.6875 1.890625 -4.359375 1.4375 -4.65625 Z M 0.890625 -0.40625 L 1.234375 0.125 C 2.296875 -0.078125 3.09375 -0.46875 3.71875 -0.875 C 4.6875 -1.46875 5.421875 -2.328125 5.859375 -3.125 L 5.546875 -3.65625 C 5.1875 -2.875 4.40625 -1.9375 3.4375 -1.328125 C 2.828125 -0.953125 2 -0.5625 0.890625 -0.40625 Z M 0.890625 -0.40625 "/></g></g></g><g fill="#545454" fill-opacity="1"><g transform="translate(52.415586, 40.906291)"><g><path d="M 2.5 -2.40625 C 2.5 -2.03125 2.796875 -1.734375 3.171875 -1.734375 C 3.546875 -1.734375 3.84375 -2.03125 3.84375 -2.40625 C 3.84375 -2.78125 3.546875 -3.078125 3.171875 -3.078125 C 2.796875 -3.078125 2.5 -2.78125 2.5 -2.40625 Z M 2.5 -2.40625 "/></g></g></g><g fill="#545454" fill-opacity="1"><g transform="translate(58.761833, 40.906291)"><g><path d="M 0.390625 -1.78125 L 0.875 -1.3125 C 0.96875 -1.4375 1.109375 -1.625 1.234375 -1.796875 C 1.515625 -2.140625 2.046875 -2.84375 2.359375 -3.203125 C 2.5625 -3.46875 2.65625 -3.46875 2.921875 -3.265625 C 3.203125 -3.03125 3.71875 -2.46875 4.15625 -1.96875 C 4.5625 -1.5 5.140625 -0.875 5.578125 -0.296875 L 6 -0.75 C 5.53125 -1.296875 4.890625 -1.984375 4.46875 -2.4375 C 4.0625 -2.875 3.546875 -3.4375 3.15625 -3.75 C 2.703125 -4.140625 2.4375 -4.09375 2.09375 -3.6875 C 1.6875 -3.21875 1.140625 -2.515625 0.84375 -2.203125 C 0.671875 -2.046875 0.5625 -1.921875 0.390625 -1.78125 Z M 0.390625 -1.78125 "/></g></g></g><g fill="#545454" fill-opacity="1"><g transform="translate(65.10808, 40.906291)"><g><path d="M 3.0625 -3.65625 L 2.59375 -3.5 C 2.734375 -3.203125 3.03125 -2.40625 3.09375 -2.125 L 3.5625 -2.28125 C 3.484375 -2.5625 3.171875 -3.40625 3.0625 -3.65625 Z M 4.8125 -3.46875 C 4.71875 -2.65625 4.390625 -1.859375 3.9375 -1.296875 C 3.421875 -0.640625 2.609375 -0.171875 1.875 0.046875 L 2.296875 0.46875 C 3 0.203125 3.78125 -0.296875 4.359375 -1.03125 C 4.828125 -1.609375 5.09375 -2.28125 5.265625 -2.984375 C 5.296875 -3.0625 5.3125 -3.171875 5.359375 -3.296875 Z M 1.59375 -3.34375 L 1.125 -3.15625 C 1.25 -2.9375 1.59375 -2.0625 1.6875 -1.71875 L 2.171875 -1.90625 C 2.046875 -2.234375 1.71875 -3.0625 1.59375 -3.34375 Z M 1.59375 -3.34375 "/></g></g></g><g fill="#545454" fill-opacity="1"><g transform="translate(71.454326, 40.906291)"><g><path d="M 5.53125 -3.953125 C 5.375 -4.234375 5.09375 -4.65625 4.921875 -4.890625 L 4.578125 -4.71875 C 4.796875 -4.4375 5 -4.09375 5.171875 -3.765625 Z M 4.734375 -3.609375 C 4.59375 -3.90625 4.328125 -4.328125 4.15625 -4.5625 L 3.8125 -4.40625 C 4.015625 -4.125 4.21875 -3.78125 4.375 -3.4375 Z M 2.46875 -4.171875 C 2.46875 -4.359375 2.484375 -4.625 2.5 -4.828125 L 1.890625 -4.828125 C 1.921875 -4.625 1.9375 -4.34375 1.9375 -4.171875 L 1.9375 -0.46875 C 1.9375 -0.234375 1.921875 0.0625 1.890625 0.265625 L 2.5 0.265625 C 2.484375 0.0625 2.46875 -0.265625 2.46875 -0.46875 L 2.46875 -2.5625 C 3.171875 -2.34375 4.265625 -1.921875 4.953125 -1.546875 L 5.171875 -2.09375 C 4.5 -2.421875 3.3125 -2.875 2.46875 -3.125 Z M 2.46875 -4.171875 "/></g></g></g><g fill="#545454" fill-opacity="1"><g transform="translate(77.800573, 40.906291)"><g><path d="M 1.71875 -2.625 C 1.484375 -2.109375 0.9375 -1.359375 0.515625 -0.96875 L 0.953125 -0.671875 C 1.3125 -1.0625 1.90625 -1.875 2.171875 -2.40625 Z M 5.203125 -3.390625 C 5.359375 -3.390625 5.546875 -3.390625 5.71875 -3.375 L 5.71875 -3.90625 C 5.5625 -3.875 5.359375 -3.875 5.203125 -3.875 L 3.53125 -3.875 L 3.53125 -4.515625 C 3.53125 -4.65625 3.546875 -4.890625 3.5625 -4.96875 L 2.96875 -4.96875 C 3 -4.875 3.015625 -4.65625 3.015625 -4.515625 L 3.015625 -3.875 L 1.25 -3.875 C 1.046875 -3.875 0.890625 -3.875 0.703125 -3.90625 L 0.703125 -3.375 C 0.875 -3.390625 1.0625 -3.390625 1.25 -3.390625 L 3.015625 -3.390625 L 3.015625 -3.34375 C 3.015625 -3.046875 3.015625 -0.875 3.015625 -0.53125 C 3.015625 -0.359375 2.9375 -0.296875 2.765625 -0.296875 C 2.59375 -0.296875 2.3125 -0.3125 2.03125 -0.359375 L 2.078125 0.140625 C 2.34375 0.171875 2.71875 0.1875 2.984375 0.1875 C 3.375 0.1875 3.53125 0.015625 3.53125 -0.3125 L 3.53125 -3.390625 Z M 4.390625 -2.390625 C 4.71875 -1.984375 5.203125 -1.203125 5.453125 -0.703125 L 5.921875 -0.96875 C 5.671875 -1.421875 5.15625 -2.21875 4.828125 -2.625 Z M 4.390625 -2.390625 "/></g></g></g><g fill="#545454" fill-opacity="1"><g transform="translate(84.14682, 40.906291)"><g><path d="M 1.4375 -4.65625 L 1.078125 -4.265625 C 1.546875 -3.953125 2.34375 -3.265625 2.65625 -2.9375 L 3.0625 -3.34375 C 2.703125 -3.6875 1.890625 -4.359375 1.4375 -4.65625 Z M 0.890625 -0.40625 L 1.234375 0.125 C 2.296875 -0.078125 3.09375 -0.46875 3.71875 -0.875 C 4.6875 -1.46875 5.421875 -2.328125 5.859375 -3.125 L 5.546875 -3.65625 C 5.1875 -2.875 4.40625 -1.9375 3.4375 -1.328125 C 2.828125 -0.953125 2 -0.5625 0.890625 -0.40625 Z M 0.890625 -0.40625 "/></g></g></g><g fill="#545454" fill-opacity="1"><g transform="translate(90.493067, 40.906291)"><g><path d="M 6.171875 -4.5 C 6.0625 -4.734375 5.8125 -5.140625 5.640625 -5.359375 L 5.3125 -5.234375 C 5.484375 -4.984375 5.703125 -4.625 5.84375 -4.359375 Z M 5.46875 -4.25 C 5.328125 -4.5 5.09375 -4.890625 4.9375 -5.109375 L 4.609375 -4.96875 C 4.78125 -4.734375 5 -4.34375 5.125 -4.09375 Z M 2.109375 -4.96875 C 2.109375 -4.546875 2.03125 -4.046875 1.953125 -3.609375 C 1.5625 -3.578125 1.203125 -3.546875 1 -3.53125 C 0.796875 -3.53125 0.640625 -3.53125 0.4375 -3.53125 L 0.484375 -2.984375 C 0.640625 -3.015625 0.90625 -3.03125 1.046875 -3.0625 C 1.21875 -3.078125 1.515625 -3.109375 1.84375 -3.140625 C 1.625 -2.296875 1.171875 -0.890625 0.53125 -0.03125 L 1.046875 0.171875 C 1.703125 -0.875 2.125 -2.296875 2.359375 -3.1875 C 2.625 -3.21875 2.875 -3.234375 3.03125 -3.234375 C 3.4375 -3.234375 3.703125 -3.140625 3.703125 -2.5625 C 3.703125 -1.890625 3.609375 -1.0625 3.40625 -0.640625 C 3.265625 -0.375 3.078125 -0.328125 2.859375 -0.328125 C 2.671875 -0.328125 2.34375 -0.375 2.078125 -0.46875 L 2.15625 0.078125 C 2.359375 0.125 2.671875 0.171875 2.90625 0.171875 C 3.3125 0.171875 3.625 0.0625 3.828125 -0.359375 C 4.078125 -0.875 4.1875 -1.875 4.1875 -2.625 C 4.1875 -3.46875 3.734375 -3.6875 3.171875 -3.6875 C 3.015625 -3.6875 2.75 -3.671875 2.46875 -3.640625 C 2.53125 -3.984375 2.59375 -4.359375 2.625 -4.53125 C 2.640625 -4.65625 2.671875 -4.796875 2.703125 -4.90625 Z M 4.390625 -3.984375 C 4.828125 -3.46875 5.328125 -2.359375 5.515625 -1.71875 L 6 -1.953125 C 5.796875 -2.546875 5.25 -3.6875 4.859375 -4.1875 Z M 4.390625 -3.984375 "/></g></g></g><g fill="#545454" fill-opacity="1"><g transform="translate(96.839314, 40.906291)"><g><path d="M 5.90625 -4.390625 C 5.796875 -4.609375 5.546875 -4.9375 5.328125 -5.171875 L 5 -4.984375 C 5.21875 -4.734375 5.453125 -4.390625 5.5625 -4.171875 Z M 1.75 -4.515625 C 1.671875 -4.75 1.453125 -5.078125 1.28125 -5.328125 L 0.90625 -5.15625 C 1.078125 -4.890625 1.28125 -4.53125 1.390625 -4.296875 Z M 1.875 -1.34375 L 1.875 -0.296875 L 0.984375 -0.296875 L 0.984375 -1.34375 Z M 2.28125 -1.734375 L 0.578125 -1.734375 L 0.578125 0.40625 L 0.984375 0.40625 L 0.984375 0.09375 L 2.28125 0.09375 Z M 0.59375 -2.203125 L 2.265625 -2.203125 L 2.265625 -2.578125 L 0.59375 -2.578125 Z M 2.265625 -3.40625 L 0.59375 -3.40625 L 0.59375 -3.03125 L 2.265625 -3.03125 Z M 0.328125 -3.84375 L 2.390625 -3.84375 L 2.390625 -4.234375 L 0.328125 -4.234375 Z M 3.59375 -2.296875 L 4.265625 -2.296875 L 4.265625 -2.734375 L 2.5 -2.734375 L 2.5 -2.296875 L 3.15625 -2.296875 L 3.15625 -0.625 C 2.875 -0.5625 2.609375 -0.5 2.390625 -0.4375 L 2.53125 0.015625 C 3.09375 -0.15625 3.828125 -0.359375 4.515625 -0.578125 L 4.484375 -0.96875 C 4.1875 -0.890625 3.875 -0.8125 3.59375 -0.734375 Z M 6.078125 -3.625 L 6.078125 -4.0625 L 4.859375 -4.0625 C 4.84375 -4.453125 4.828125 -4.859375 4.84375 -5.296875 L 4.375 -5.296875 C 4.390625 -4.875 4.390625 -4.46875 4.40625 -4.0625 L 2.546875 -4.0625 L 2.546875 -3.625 L 4.421875 -3.625 C 4.515625 -1.3125 4.8125 0.5 5.53125 0.5 C 5.921875 0.5 6.046875 0.203125 6.109375 -0.75 C 6 -0.796875 5.859375 -0.90625 5.765625 -1 C 5.734375 -0.296875 5.6875 0.03125 5.59375 0.03125 C 5.25 0.03125 4.953125 -1.5 4.859375 -3.625 Z M 6.078125 -3.625 "/></g></g></g><g fill="#545454" fill-opacity="1"><g transform="translate(103.185561, 40.906291)"><g><path d="M 4.4375 -2.515625 L 3.859375 -2.515625 L 3.859375 -3.359375 L 4.4375 -3.359375 Z M 4.796875 -3.359375 L 5.375 -3.359375 L 5.375 -2.515625 L 4.796875 -2.515625 Z M 3.515625 -2.515625 L 2.96875 -2.515625 L 2.96875 -3.359375 L 3.515625 -3.359375 Z M 2.5625 -3.75 L 2.5625 -2.140625 L 5.78125 -2.140625 L 5.78125 -3.75 L 4.328125 -3.75 C 4.34375 -3.890625 4.359375 -4.078125 4.375 -4.25 L 6.03125 -4.25 L 6.03125 -4.671875 L 4.40625 -4.671875 C 4.421875 -4.875 4.421875 -5.078125 4.421875 -5.265625 L 3.984375 -5.28125 C 3.96875 -5.09375 3.96875 -4.890625 3.953125 -4.671875 L 2.46875 -4.671875 L 2.46875 -4.25 L 3.9375 -4.25 C 3.921875 -4.078125 3.90625 -3.890625 3.890625 -3.75 Z M 3.671875 -1.890625 C 4.015625 -1.671875 4.390625 -1.34375 4.5625 -1.109375 L 4.859375 -1.359375 C 4.6875 -1.59375 4.296875 -1.90625 3.953125 -2.125 Z M 1.046875 -2.015625 L 1.71875 -2.015625 L 1.71875 -1.1875 C 1.484375 -1.125 1.25 -1.078125 1.046875 -1.03125 Z M 1.71875 -4.609375 L 1.71875 -3.71875 L 1.046875 -3.71875 L 1.046875 -4.609375 Z M 1.046875 -3.3125 L 1.71875 -3.3125 L 1.71875 -2.40625 L 1.046875 -2.40625 Z M 2.40625 -0.984375 L 2.390625 -1.328125 L 2.109375 -1.265625 L 2.109375 -4.609375 L 2.390625 -4.609375 L 2.390625 -5.03125 L 0.328125 -5.03125 L 0.328125 -4.609375 L 0.671875 -4.609375 L 0.671875 -0.953125 C 0.515625 -0.90625 0.390625 -0.890625 0.265625 -0.859375 L 0.359375 -0.421875 C 0.75 -0.53125 1.21875 -0.65625 1.71875 -0.796875 L 1.71875 0.484375 L 2.109375 0.484375 L 2.109375 -0.90625 Z M 2.625 0.046875 C 2.90625 -0.328125 3.046875 -0.9375 3.140625 -1.453125 L 2.78125 -1.53125 C 2.71875 -1.046875 2.546875 -0.46875 2.296875 -0.125 Z M 4.015625 -0.078125 C 3.84375 -0.078125 3.8125 -0.09375 3.8125 -0.234375 L 3.8125 -1.5625 L 3.40625 -1.5625 L 3.40625 -0.234375 C 3.40625 0.171875 3.515625 0.28125 3.96875 0.28125 L 4.6875 0.28125 C 5.0625 0.28125 5.1875 0.109375 5.234375 -0.59375 C 5.109375 -0.625 4.9375 -0.671875 4.859375 -0.75 C 4.84375 -0.15625 4.8125 -0.078125 4.640625 -0.078125 Z M 5.109375 -1.453125 C 5.40625 -1.03125 5.703125 -0.4375 5.78125 -0.078125 L 6.15625 -0.234375 C 6.046875 -0.59375 5.75 -1.171875 5.453125 -1.59375 Z M 5.109375 -1.453125 "/></g></g></g><g fill="#545454" fill-opacity="1"><g transform="translate(109.531807, 40.906291)"><g><path d="M 2.5 -2.40625 C 2.5 -2.03125 2.796875 -1.734375 3.171875 -1.734375 C 3.546875 -1.734375 3.84375 -2.03125 3.84375 -2.40625 C 3.84375 -2.78125 3.546875 -3.078125 3.171875 -3.078125 C 2.796875 -3.078125 2.5 -2.78125 2.5 -2.40625 Z M 2.5 -2.40625 "/></g></g></g><g fill="#545454" fill-opacity="1"><g transform="translate(115.878054, 40.906291)"><g><path d="M 4.09375 -4.640625 L 5.1875 -4.640625 L 5.1875 -3.984375 L 4.09375 -3.984375 Z M 2.625 -4.640625 L 3.6875 -4.640625 L 3.6875 -3.984375 L 2.625 -3.984375 Z M 1.1875 -4.640625 L 2.21875 -4.640625 L 2.21875 -3.984375 L 1.1875 -3.984375 Z M 0.765625 -5.015625 L 0.765625 -3.609375 L 5.640625 -3.609375 L 5.640625 -5.015625 Z M 1.59375 -2.125 L 4.796875 -2.125 L 4.796875 -1.65625 L 1.59375 -1.65625 Z M 1.59375 -1.34375 L 4.796875 -1.34375 L 4.796875 -0.859375 L 1.59375 -0.859375 Z M 1.59375 -2.921875 L 4.796875 -2.921875 L 4.796875 -2.453125 L 1.59375 -2.453125 Z M 1.140625 -3.25 L 1.140625 -0.53125 L 5.265625 -0.53125 L 5.265625 -3.25 Z M 3.703125 -0.203125 C 4.421875 0.015625 5.125 0.296875 5.546875 0.5 L 6.046875 0.234375 C 5.5625 0.03125 4.78125 -0.25 4.0625 -0.46875 Z M 2.21875 -0.46875 C 1.765625 -0.21875 1 0.015625 0.34375 0.140625 C 0.4375 0.234375 0.609375 0.40625 0.6875 0.5 C 1.328125 0.328125 2.125 0.03125 2.640625 -0.28125 Z M 2.21875 -0.46875 "/></g></g></g><g fill="#545454" fill-opacity="1"><g transform="translate(122.224301, 40.906291)"><g><path d="M 1.203125 -1.96875 L 2.265625 -1.96875 L 2.265625 -1.140625 C 1.890625 -1.078125 1.53125 -1.015625 1.203125 -0.96875 Z M 2.265625 -4.578125 L 2.265625 -3.703125 L 1.203125 -3.703125 L 1.203125 -4.578125 Z M 1.203125 -3.28125 L 2.265625 -3.28125 L 2.265625 -2.375 L 1.203125 -2.375 Z M 3.28125 -0.890625 L 3.265625 -1.296875 L 2.734375 -1.21875 L 2.734375 -4.578125 L 3.1875 -4.578125 L 3.1875 -5.015625 L 0.328125 -5.015625 L 0.328125 -4.578125 L 0.75 -4.578125 L 0.75 -0.90625 C 0.578125 -0.875 0.40625 -0.859375 0.265625 -0.84375 L 0.375 -0.375 C 0.90625 -0.46875 1.578125 -0.578125 2.265625 -0.703125 L 2.265625 0.46875 L 2.734375 0.46875 L 2.734375 -0.796875 Z M 5.375 -4.15625 C 5.234375 -3.21875 4.96875 -2.390625 4.625 -1.71875 C 4.296875 -2.421875 4.09375 -3.234375 3.953125 -4.15625 Z M 5.59375 -4.609375 L 5.5 -4.59375 L 3.203125 -4.59375 L 3.203125 -4.15625 L 3.515625 -4.15625 C 3.703125 -3.03125 3.953125 -2.046875 4.359375 -1.234375 C 3.984375 -0.640625 3.53125 -0.171875 3.046875 0.140625 C 3.15625 0.21875 3.28125 0.375 3.34375 0.484375 C 3.8125 0.171875 4.234375 -0.265625 4.609375 -0.796875 C 4.921875 -0.28125 5.3125 0.140625 5.78125 0.4375 C 5.859375 0.328125 6 0.15625 6.109375 0.0625 C 5.609375 -0.234375 5.203125 -0.671875 4.875 -1.21875 C 5.359375 -2.09375 5.703125 -3.171875 5.875 -4.53125 Z M 5.59375 -4.609375 "/></g></g></g><g fill="#545454" fill-opacity="1"><g transform="translate(128.570548, 40.906291)"><g><path d="M 2.5 -2.40625 C 2.5 -2.03125 2.796875 -1.734375 3.171875 -1.734375 C 3.546875 -1.734375 3.84375 -2.03125 3.84375 -2.40625 C 3.84375 -2.78125 3.546875 -3.078125 3.171875 -3.078125 C 2.796875 -3.078125 2.5 -2.78125 2.5 -2.40625 Z M 2.5 -2.40625 "/></g></g></g><g fill="#545454" fill-opacity="1"><g transform="translate(134.916795, 40.906291)"><g><path d="M 1.90625 -3.875 L 0.953125 -3.875 L 0.953125 -4.671875 L 1.90625 -4.671875 Z M 1.90625 -2.6875 L 0.953125 -2.6875 L 0.953125 -3.5 L 1.90625 -3.5 Z M 1.90625 -1.484375 L 0.953125 -1.484375 L 0.953125 -2.3125 L 1.90625 -2.3125 Z M 2.328125 -5.0625 L 0.546875 -5.0625 L 0.546875 -1.109375 L 2.328125 -1.109375 Z M 0.859375 -0.96875 C 0.734375 -0.515625 0.515625 -0.0625 0.21875 0.234375 C 0.328125 0.296875 0.5 0.421875 0.578125 0.484375 C 0.859375 0.15625 1.140625 -0.359375 1.28125 -0.875 Z M 1.65625 -0.8125 C 1.84375 -0.515625 2.0625 -0.09375 2.15625 0.171875 L 2.53125 0 C 2.4375 -0.265625 2.21875 -0.671875 2 -0.984375 Z M 4.453125 -0.921875 L 4.453125 -1.390625 L 5.265625 -1.390625 L 5.265625 -0.921875 Z M 3.25 -1.390625 L 4.03125 -1.390625 L 4.03125 -0.921875 L 3.25 -0.921875 Z M 4.03125 -2.171875 L 4.03125 -1.71875 L 3.25 -1.71875 L 3.25 -2.171875 Z M 5.265625 -2.171875 L 5.265625 -1.71875 L 4.453125 -1.71875 L 4.453125 -2.171875 Z M 3.78125 -3.671875 L 4.71875 -3.671875 L 4.71875 -3.25 L 3.78125 -3.25 Z M 3.78125 -4.40625 L 4.71875 -4.40625 L 4.71875 -4.015625 L 3.78125 -4.015625 Z M 6.078125 -0.921875 L 5.6875 -0.921875 L 5.6875 -2.53125 L 4.453125 -2.53125 L 4.453125 -2.90625 L 6.046875 -2.90625 L 6.046875 -3.25 L 5.140625 -3.25 L 5.140625 -3.671875 L 5.8125 -3.671875 L 5.8125 -4.015625 L 5.140625 -4.015625 L 5.140625 -4.40625 L 5.90625 -4.40625 L 5.90625 -4.765625 L 5.140625 -4.765625 L 5.140625 -5.296875 L 4.71875 -5.296875 L 4.71875 -4.765625 L 3.78125 -4.765625 L 3.78125 -5.296875 L 3.359375 -5.296875 L 3.359375 -4.765625 L 2.59375 -4.765625 L 2.59375 -4.40625 L 3.359375 -4.40625 L 3.359375 -4.015625 L 2.75 -4.015625 L 2.75 -3.671875 L 3.359375 -3.671875 L 3.359375 -3.25 L 2.4375 -3.25 L 2.4375 -2.90625 L 4.03125 -2.90625 L 4.03125 -2.53125 L 2.828125 -2.53125 L 2.828125 -0.921875 L 2.421875 -0.921875 L 2.421875 -0.5625 L 2.828125 -0.5625 L 2.828125 0.484375 L 3.25 0.484375 L 3.25 -0.5625 L 5.265625 -0.5625 L 5.265625 0 C 5.265625 0.078125 5.234375 0.09375 5.15625 0.09375 C 5.0625 0.09375 4.765625 0.09375 4.421875 0.09375 C 4.484375 0.203125 4.546875 0.375 4.5625 0.46875 C 5.015625 0.46875 5.296875 0.46875 5.484375 0.40625 C 5.640625 0.34375 5.6875 0.21875 5.6875 0 L 5.6875 -0.5625 L 6.078125 -0.5625 Z M 6.078125 -0.921875 "/></g></g></g><g fill="#545454" fill-opacity="1"><g transform="translate(141.263041, 40.906291)"><g><path d="M 1.890625 -4.765625 C 2.296875 -4.484375 2.625 -4.125 2.890625 -3.734375 C 2.484375 -1.953125 1.703125 -0.671875 0.28125 0.0625 C 0.40625 0.15625 0.625 0.34375 0.703125 0.4375 C 1.984375 -0.296875 2.796875 -1.46875 3.265625 -3.109375 C 3.96875 -1.84375 4.40625 -0.390625 5.859375 0.421875 C 5.890625 0.28125 6 0.015625 6.09375 -0.09375 C 3.984375 -1.359375 4.1875 -3.734375 2.171875 -5.171875 Z M 1.890625 -4.765625 "/></g></g></g><g fill="#545454" fill-opacity="1"><g transform="translate(147.609288, 40.906291)"><g><path d="M 4.640625 -3.296875 L 4.3125 -3.15625 C 4.515625 -2.890625 4.6875 -2.5625 4.84375 -2.265625 L 5.15625 -2.40625 C 5.03125 -2.6875 4.796875 -3.078125 4.640625 -3.296875 Z M 5.328125 -3.5625 L 5.015625 -3.40625 C 5.21875 -3.140625 5.40625 -2.828125 5.5625 -2.53125 L 5.890625 -2.6875 C 5.734375 -2.96875 5.484375 -3.34375 5.328125 -3.5625 Z M 0.53125 -4.171875 L 0.578125 -3.609375 C 1.265625 -3.75 2.96875 -3.921875 3.53125 -3.984375 C 2.953125 -3.640625 2.359375 -2.84375 2.359375 -1.859375 C 2.359375 -0.46875 3.6875 0.15625 4.84375 0.203125 L 5.03125 -0.328125 C 4.015625 -0.359375 2.875 -0.75 2.875 -1.96875 C 2.875 -2.71875 3.40625 -3.671875 4.296875 -3.953125 C 4.625 -4.046875 5.171875 -4.0625 5.53125 -4.0625 L 5.53125 -4.5625 C 5.109375 -4.546875 4.515625 -4.515625 3.84375 -4.453125 C 2.6875 -4.359375 1.5 -4.25 1.078125 -4.203125 C 0.96875 -4.1875 0.765625 -4.1875 0.53125 -4.171875 Z M 0.53125 -4.171875 "/></g></g></g><g fill="#545454" fill-opacity="1"><g transform="translate(153.955535, 40.906291)"><g><path d="M 1.34375 -1.703125 C 1.265625 -1.46875 1.1875 -1.1875 1.1875 -0.90625 C 1.1875 -0.125 1.859375 0.265625 2.96875 0.265625 C 3.484375 0.265625 4.09375 0.203125 4.484375 0.140625 L 4.5 -0.375 C 4.0625 -0.265625 3.46875 -0.234375 2.953125 -0.234375 C 2.0625 -0.234375 1.6875 -0.53125 1.6875 -1.015625 C 1.6875 -1.1875 1.75 -1.453125 1.828125 -1.65625 Z M 5.34375 -3.421875 C 5.0625 -3.3125 4.671875 -3.203125 4.1875 -3.109375 C 4.078125 -3.34375 3.984375 -3.546875 3.9375 -3.671875 L 3.8125 -3.9375 C 4.25 -4 4.65625 -4.09375 4.984375 -4.203125 L 4.890625 -4.65625 C 4.53125 -4.515625 4.078125 -4.421875 3.640625 -4.359375 C 3.546875 -4.59375 3.46875 -4.828125 3.40625 -5.046875 L 2.84375 -4.921875 C 2.921875 -4.796875 2.984375 -4.6875 3.078125 -4.484375 C 3.109375 -4.421875 3.125 -4.359375 3.15625 -4.296875 C 2.5625 -4.25 1.859375 -4.265625 1.109375 -4.34375 L 1.140625 -3.875 C 1.921875 -3.8125 2.703125 -3.8125 3.34375 -3.875 C 3.390625 -3.765625 3.4375 -3.65625 3.484375 -3.546875 L 3.703125 -3.03125 C 2.953125 -2.9375 2.03125 -2.9375 1.0625 -3.015625 L 1.078125 -2.5625 C 2.0625 -2.5 3.078125 -2.5 3.890625 -2.609375 C 4.046875 -2.28125 4.1875 -1.953125 4.3125 -1.703125 C 4.109375 -1.71875 3.8125 -1.75 3.515625 -1.796875 L 3.46875 -1.40625 C 3.859375 -1.359375 4.375 -1.28125 4.6875 -1.234375 L 4.9375 -1.546875 C 4.765625 -1.875 4.5625 -2.296875 4.375 -2.703125 C 4.796875 -2.78125 5.15625 -2.875 5.4375 -2.96875 Z M 5.34375 -3.421875 "/></g></g></g><g fill="#545454" fill-opacity="1"><g transform="translate(160.301782, 40.906291)"><g><path d="M 3.171875 -0.203125 C 2.703125 -0.203125 2.328125 -0.390625 2.328125 -0.703125 C 2.328125 -0.90625 2.546875 -1.078125 2.828125 -1.078125 C 3.3125 -1.078125 3.609375 -0.75 3.671875 -0.25 C 3.515625 -0.21875 3.34375 -0.203125 3.171875 -0.203125 Z M 4.453125 -4.765625 C 4.390625 -4.75 4.296875 -4.734375 4.109375 -4.71875 C 3.78125 -4.6875 2.296875 -4.640625 1.96875 -4.640625 C 1.84375 -4.640625 1.671875 -4.640625 1.53125 -4.65625 L 1.546875 -4.140625 C 1.671875 -4.15625 1.828125 -4.171875 1.96875 -4.171875 C 2.296875 -4.1875 3.53125 -4.25 3.859375 -4.265625 C 3.546875 -3.984375 2.765625 -3.328125 2.421875 -3.03125 C 2.046875 -2.734375 1.25 -2.0625 0.71875 -1.625 L 1.09375 -1.25 C 1.890625 -2.0625 2.46875 -2.5 3.5 -2.5 C 4.28125 -2.5 4.90625 -2.046875 4.90625 -1.4375 C 4.90625 -0.921875 4.625 -0.5625 4.125 -0.375 C 4.046875 -0.953125 3.625 -1.484375 2.828125 -1.484375 C 2.25 -1.484375 1.859375 -1.078125 1.859375 -0.65625 C 1.859375 -0.140625 2.390625 0.25 3.25 0.25 C 4.578125 0.25 5.421875 -0.40625 5.421875 -1.421875 C 5.421875 -2.28125 4.65625 -2.90625 3.609375 -2.90625 C 3.34375 -2.90625 3.046875 -2.875 2.765625 -2.78125 C 3.25 -3.1875 4.09375 -3.921875 4.40625 -4.15625 C 4.5 -4.234375 4.640625 -4.328125 4.75 -4.40625 Z M 4.453125 -4.765625 "/></g></g></g><g fill="#545454" fill-opacity="1"><g transform="translate(166.648029, 40.906291)"><g><path d="M 1.3125 -0.6875 C 1.6875 -0.4375 2.09375 -0.0625 2.296875 0.203125 L 2.671875 -0.078125 C 2.453125 -0.34375 2.03125 -0.703125 1.65625 -0.9375 Z M 1.421875 -2.765625 L 2.921875 -2.765625 L 2.921875 -2.265625 L 1.421875 -2.265625 Z M 1.421875 -3.625 L 2.921875 -3.625 L 2.921875 -3.109375 L 1.421875 -3.109375 Z M 4.9375 -3.625 L 4.9375 -3.109375 L 3.375 -3.109375 L 3.375 -3.625 Z M 4.9375 -2.265625 L 3.375 -2.265625 L 3.375 -2.765625 L 4.9375 -2.765625 Z M 6 -1.421875 L 4.5625 -1.421875 L 4.5625 -1.90625 L 5.40625 -1.90625 L 5.40625 -3.96875 L 3.375 -3.96875 L 3.375 -4.390625 L 5.859375 -4.390625 L 5.859375 -4.796875 L 3.375 -4.796875 L 3.375 -5.296875 L 2.921875 -5.296875 L 2.921875 -4.796875 L 0.5 -4.796875 L 0.5 -4.390625 L 2.921875 -4.390625 L 2.921875 -3.96875 L 0.96875 -3.96875 L 0.96875 -1.90625 L 4.109375 -1.90625 L 4.109375 -1.421875 L 0.34375 -1.421875 L 0.34375 -1.015625 L 4.109375 -1.015625 L 4.109375 -0.03125 C 4.109375 0.0625 4.078125 0.09375 3.96875 0.09375 C 3.859375 0.09375 3.46875 0.09375 3.046875 0.09375 C 3.109375 0.203125 3.1875 0.375 3.203125 0.5 C 3.75 0.5 4.09375 0.5 4.296875 0.4375 C 4.515625 0.375 4.5625 0.25 4.5625 -0.015625 L 4.5625 -1.015625 L 6 -1.015625 Z M 6 -1.421875 "/></g></g></g><g fill="#545454" fill-opacity="1"><g transform="translate(172.994275, 40.906291)"><g><path d="M 2.40625 -4.609375 L 2.40625 -4.0625 L 1.0625 -4.0625 L 1.0625 -4.609375 Z M 1.0625 -3.09375 L 1.0625 -3.703125 L 2.40625 -3.703125 L 2.40625 -3.09375 Z M 2.859375 -5.015625 L 0.609375 -5.015625 L 0.609375 0.484375 L 1.0625 0.484375 L 1.0625 -2.703125 L 2.859375 -2.703125 Z M 3.890625 -3.078125 L 3.890625 -3.703125 L 5.296875 -3.703125 L 5.296875 -3.078125 Z M 5.296875 -4.609375 L 5.296875 -4.0625 L 3.890625 -4.0625 L 3.890625 -4.609375 Z M 5.78125 -5.015625 L 3.4375 -5.015625 L 3.4375 -2.6875 L 5.296875 -2.6875 L 5.296875 -0.171875 C 5.296875 -0.03125 5.265625 0 5.140625 0 C 5.015625 0 4.578125 0.015625 4.15625 -0.015625 C 4.21875 0.125 4.296875 0.34375 4.3125 0.46875 C 4.890625 0.46875 5.265625 0.46875 5.484375 0.390625 C 5.703125 0.3125 5.78125 0.15625 5.78125 -0.171875 Z M 5.78125 -5.015625 "/></g></g></g><g fill="#545454" fill-opacity="1"><g transform="translate(179.340522, 40.906291)"><g><path d="M 5 -0.265625 L 2.3125 -0.265625 L 2.3125 -1.40625 L 5 -1.40625 Z M 3.71875 -3.875 L 3.234375 -3.875 L 3.234375 -1.84375 L 1.859375 -1.84375 L 1.859375 0.40625 L 2.3125 0.40625 L 2.3125 0.15625 L 5 0.15625 L 5 0.390625 L 5.46875 0.390625 L 5.46875 -1.84375 L 3.71875 -1.84375 L 3.71875 -2.6875 L 5.765625 -2.6875 L 5.765625 -3.125 L 3.71875 -3.125 Z M 3.8125 -4.53125 C 3.734375 -4.765625 3.578125 -5.0625 3.40625 -5.296875 L 2.96875 -5.171875 C 3.09375 -4.984375 3.203125 -4.75 3.296875 -4.53125 L 0.8125 -4.53125 L 0.8125 -2.890625 C 0.8125 -1.984375 0.765625 -0.6875 0.21875 0.21875 C 0.34375 0.265625 0.546875 0.40625 0.640625 0.484375 C 1.203125 -0.46875 1.296875 -1.921875 1.296875 -2.890625 L 1.296875 -4.078125 L 5.96875 -4.078125 L 5.96875 -4.53125 Z M 3.8125 -4.53125 "/></g></g></g></svg>