<svg width="562" height="47" viewBox="0 0 562 47" fill="none" xmlns="http://www.w3.org/2000/svg">
<path d="M35.9915 6C35.9915 6.736 36.2475 7.36 36.7595 7.872C37.2715 8.352 37.8955 8.592 38.6315 8.592C39.3355 8.592 39.9435 8.352 40.4555 7.872C40.9675 7.36 41.2235 6.736 41.2235 6C41.2235 5.296 40.9675 4.688 40.4555 4.176C39.9435 3.664 39.3355 3.408 38.6315 3.408C37.8955 3.408 37.2715 3.664 36.7595 4.176C36.2475 4.688 35.9915 5.296 35.9915 6ZM33.0635 6C33.0635 4.976 33.3035 4.048 33.7835 3.216C34.2955 2.384 34.9675 1.712 35.7995 1.2C36.6635 0.687998 37.6075 0.431997 38.6315 0.431997C39.6555 0.431997 40.5835 0.687998 41.4155 1.2C42.2475 1.712 42.9035 2.384 43.3835 3.216C43.8955 4.048 44.1515 4.976 44.1515 6C44.1515 7.024 43.8955 7.968 43.3835 8.832C42.9035 9.664 42.2475 10.336 41.4155 10.848C40.5835 11.328 39.6555 11.568 38.6315 11.568C37.6075 11.568 36.6635 11.328 35.7995 10.848C34.9675 10.336 34.2955 9.664 33.7835 8.832C33.3035 7.968 33.0635 7.024 33.0635 6ZM26.4395 4.128C26.4075 4.352 26.3595 4.72 26.2955 5.232C26.2315 5.744 26.1675 6.288 26.1035 6.864C26.0395 7.408 26.0075 7.888 26.0075 8.304C26.0075 9.264 26.0075 10.32 26.0075 11.472C26.0075 12.624 26.0075 13.776 26.0075 14.928C26.0075 16.048 26.0075 17.072 26.0075 18C26.0075 18.64 26.0075 19.536 26.0075 20.688C26.0075 21.84 26.0075 23.136 26.0075 24.576C26.0075 26.016 26.0075 27.52 26.0075 29.088C26.0075 30.624 26.0075 32.128 26.0075 33.6C26.0075 35.04 26.0075 36.352 26.0075 37.536C26.0075 38.688 26.0075 39.6 26.0075 40.272C26.0075 41.648 25.5915 42.736 24.7595 43.536C23.9595 44.368 22.7115 44.784 21.0155 44.784C20.1515 44.784 19.2715 44.768 18.3755 44.736C17.4795 44.704 16.5995 44.656 15.7355 44.592C14.8715 44.528 14.0235 44.448 13.1915 44.352L12.6155 38.4C13.6395 38.592 14.6315 38.736 15.5915 38.832C16.5835 38.928 17.3675 38.976 17.9435 38.976C18.5835 38.976 19.0315 38.848 19.2875 38.592C19.5435 38.304 19.6875 37.856 19.7195 37.248C19.7195 36.96 19.7195 36.336 19.7195 35.376C19.7515 34.416 19.7675 33.28 19.7675 31.968C19.7675 30.656 19.7675 29.264 19.7675 27.792C19.7675 26.32 19.7675 24.912 19.7675 23.568C19.7675 22.224 19.7675 21.056 19.7675 20.064C19.7675 19.072 19.7675 18.384 19.7675 18C19.7675 17.424 19.7675 16.56 19.7675 15.408C19.7675 14.224 19.7675 12.976 19.7675 11.664C19.7675 10.352 19.7675 9.232 19.7675 8.304C19.7675 7.664 19.7195 6.912 19.6235 6.048C19.5275 5.152 19.4315 4.512 19.3355 4.128H26.4395ZM2.9195 11.76C3.6555 11.856 4.4235 11.952 5.2235 12.048C6.0235 12.112 6.8075 12.144 7.5755 12.144C7.9595 12.144 8.7275 12.144 9.8795 12.144C11.0635 12.144 12.4715 12.144 14.1035 12.144C15.7355 12.144 17.4795 12.144 19.3355 12.144C21.2235 12.144 23.1115 12.144 24.9995 12.144C26.9195 12.144 28.6955 12.144 30.3275 12.144C31.9915 12.144 33.4315 12.144 34.6475 12.144C35.8635 12.144 36.7115 12.144 37.1915 12.144C37.8635 12.144 38.6475 12.112 39.5435 12.048C40.4715 11.984 41.2715 11.904 41.9435 11.808V18.096C41.2075 18.032 40.4075 18 39.5435 18C38.6795 17.968 37.9115 17.952 37.2395 17.952C36.7595 17.952 35.9115 17.952 34.6955 17.952C33.5115 17.952 32.0875 17.952 30.4235 17.952C28.7915 17.952 27.0315 17.952 25.1435 17.952C23.2555 17.952 21.3675 17.952 19.4795 17.952C17.5915 17.952 15.8315 17.952 14.1995 17.952C12.5675 17.952 11.1595 17.952 9.9755 17.952C8.8235 17.952 8.0235 17.952 7.5755 17.952C6.8715 17.952 6.0875 17.968 5.2235 18C4.3915 18.032 3.6235 18.08 2.9195 18.144V11.76ZM15.1595 24.768C14.6155 25.856 13.9595 27.024 13.1915 28.272C12.4235 29.52 11.5915 30.768 10.6955 32.016C9.8315 33.264 8.9835 34.432 8.1515 35.52C7.3195 36.576 6.5675 37.456 5.8955 38.16L0.711504 34.608C1.5115 33.872 2.3275 33.008 3.1595 32.016C4.0235 30.992 4.8555 29.92 5.6555 28.8C6.4875 27.68 7.2395 26.56 7.9115 25.44C8.6155 24.32 9.2235 23.248 9.7355 22.224L15.1595 24.768ZM35.7995 22.08C36.4075 22.848 37.0795 23.76 37.8155 24.816C38.5835 25.872 39.3515 27.008 40.1195 28.224C40.8875 29.408 41.6075 30.576 42.2795 31.728C42.9515 32.848 43.5275 33.84 44.0075 34.704L38.3435 37.776C37.8315 36.752 37.2395 35.648 36.5675 34.464C35.9275 33.28 35.2555 32.096 34.5515 30.912C33.8475 29.728 33.1435 28.624 32.4395 27.6C31.7675 26.544 31.1435 25.648 30.5675 24.912L35.7995 22.08ZM49.7675 23.328C54.0875 22.208 57.9915 20.912 61.4795 19.44C64.9995 17.936 68.0875 16.368 70.7435 14.736C72.4075 13.712 74.0715 12.544 75.7355 11.232C77.4315 9.888 79.0155 8.512 80.4875 7.104C81.9915 5.696 83.2555 4.352 84.2795 3.072L89.4635 8.016C87.9915 9.456 86.3755 10.912 84.6155 12.384C82.8875 13.856 81.0795 15.264 79.1915 16.608C77.3035 17.952 75.4315 19.184 73.5755 20.304C71.7515 21.36 69.7035 22.448 67.4315 23.568C65.1915 24.688 62.8235 25.744 60.3275 26.736C57.8315 27.728 55.3195 28.608 52.7915 29.376L49.7675 23.328ZM69.7355 17.808L76.5515 16.224V37.824C76.5515 38.528 76.5675 39.296 76.5995 40.128C76.6315 40.96 76.6795 41.728 76.7435 42.432C76.8075 43.168 76.8875 43.728 76.9835 44.112H69.3995C69.4635 43.728 69.5115 43.168 69.5435 42.432C69.6075 41.728 69.6555 40.96 69.6875 40.128C69.7195 39.296 69.7355 38.528 69.7355 37.824V17.808ZM106.36 5.52C107.192 6.096 108.168 6.8 109.288 7.632C110.408 8.464 111.56 9.376 112.744 10.368C113.96 11.328 115.096 12.272 116.152 13.2C117.208 14.128 118.072 14.96 118.744 15.696L113.848 20.688C113.24 20.016 112.44 19.216 111.448 18.288C110.456 17.36 109.384 16.4 108.232 15.408C107.08 14.416 105.944 13.472 104.824 12.576C103.704 11.68 102.712 10.928 101.848 10.32L106.36 5.52ZM100.36 37.488C102.856 37.136 105.208 36.64 107.416 36C109.624 35.36 111.672 34.624 113.56 33.792C115.448 32.96 117.176 32.096 118.744 31.2C121.464 29.568 123.96 27.712 126.232 25.632C128.504 23.552 130.488 21.392 132.184 19.152C133.88 16.88 135.224 14.672 136.216 12.528L139.96 19.296C138.744 21.44 137.24 23.584 135.448 25.728C133.688 27.872 131.688 29.92 129.448 31.872C127.208 33.792 124.792 35.52 122.2 37.056C120.568 38.048 118.808 38.992 116.92 39.888C115.032 40.752 113.032 41.52 110.92 42.192C108.84 42.896 106.664 43.44 104.392 43.824L100.36 37.488ZM157.864 37.392C157.864 36.784 157.864 35.792 157.864 34.416C157.864 33.008 157.864 31.392 157.864 29.568C157.864 27.712 157.864 25.776 157.864 23.76C157.864 21.744 157.864 19.808 157.864 17.952C157.864 16.064 157.864 14.4 157.864 12.96C157.864 11.52 157.864 10.464 157.864 9.792C157.864 8.96 157.816 8 157.72 6.912C157.656 5.824 157.544 4.864 157.384 4.032H164.872C164.776 4.864 164.68 5.792 164.584 6.816C164.488 7.808 164.44 8.8 164.44 9.792C164.44 10.688 164.44 11.904 164.44 13.44C164.44 14.976 164.44 16.688 164.44 18.576C164.44 20.432 164.44 22.336 164.44 24.288C164.44 26.208 164.44 28.064 164.44 29.856C164.44 31.648 164.44 33.216 164.44 34.56C164.44 35.872 164.44 36.816 164.44 37.392C164.44 37.84 164.456 38.48 164.488 39.312C164.52 40.112 164.584 40.944 164.68 41.808C164.776 42.672 164.84 43.44 164.872 44.112H157.384C157.512 43.152 157.624 42.032 157.72 40.752C157.816 39.472 157.864 38.352 157.864 37.392ZM163 16.464C164.6 16.88 166.392 17.424 168.376 18.096C170.36 18.736 172.36 19.424 174.376 20.16C176.392 20.896 178.28 21.632 180.04 22.368C181.832 23.072 183.32 23.728 184.504 24.336L181.768 30.96C180.424 30.256 178.936 29.552 177.304 28.848C175.672 28.112 174.008 27.408 172.312 26.736C170.648 26.064 169 25.44 167.368 24.864C165.768 24.288 164.312 23.776 163 23.328V16.464ZM203.56 19.92V37.632H198.04V25.248H192.616V19.92H203.56ZM203.56 35.328C204.488 36.928 205.8 38.112 207.496 38.88C209.192 39.616 211.256 40.032 213.688 40.128C215.128 40.192 216.856 40.24 218.872 40.272C220.92 40.272 223.048 40.256 225.256 40.224C227.496 40.192 229.672 40.144 231.784 40.08C233.928 39.984 235.848 39.856 237.544 39.696C237.32 40.112 237.08 40.672 236.824 41.376C236.6 42.048 236.376 42.736 236.152 43.44C235.96 44.144 235.816 44.768 235.72 45.312C234.248 45.408 232.552 45.472 230.632 45.504C228.712 45.536 226.728 45.552 224.68 45.552C222.632 45.584 220.648 45.584 218.728 45.552C216.808 45.552 215.112 45.52 213.64 45.456C210.76 45.328 208.312 44.864 206.296 44.064C204.28 43.264 202.552 41.936 201.112 40.08C200.184 41.04 199.192 41.984 198.136 42.912C197.112 43.872 195.992 44.864 194.776 45.888L192.04 40.176C193.064 39.504 194.136 38.752 195.256 37.92C196.408 37.088 197.512 36.224 198.568 35.328H203.56ZM192.808 5.712L197.176 2.448C198.104 3.152 199.064 3.952 200.056 4.848C201.048 5.744 201.96 6.64 202.792 7.536C203.624 8.432 204.296 9.28 204.808 10.08L200.056 13.728C199.608 12.928 198.984 12.064 198.184 11.136C197.416 10.176 196.552 9.232 195.592 8.304C194.632 7.344 193.704 6.48 192.808 5.712ZM204.328 13.728H236.632V17.712H204.328V13.728ZM213.448 22.368V24.864H227.272V22.368H213.448ZM208.12 19.2H232.984V28.08H208.12V19.2ZM218.44 25.296L223.24 26.976C222.056 28.512 220.616 29.968 218.92 31.344C217.256 32.72 215.464 33.952 213.544 35.04C211.656 36.128 209.768 37.056 207.88 37.824C207.656 37.472 207.336 37.04 206.92 36.528C206.536 35.984 206.136 35.44 205.72 34.896C205.304 34.352 204.92 33.92 204.568 33.6C206.392 33.024 208.168 32.32 209.896 31.488C211.656 30.656 213.272 29.712 214.744 28.656C216.248 27.568 217.48 26.448 218.44 25.296ZM231.784 26.064L235.816 28.848C234.6 29.712 233.368 30.544 232.12 31.344C230.872 32.144 229.736 32.832 228.712 33.408L225.688 31.056C226.328 30.64 227.016 30.144 227.752 29.568C228.52 28.992 229.256 28.4 229.96 27.792C230.696 27.152 231.304 26.576 231.784 26.064ZM222.232 27.216C223.128 28.4 224.296 29.472 225.736 30.432C227.208 31.392 228.872 32.208 230.728 32.88C232.616 33.552 234.6 34.064 236.68 34.416C236.136 34.896 235.56 35.568 234.952 36.432C234.344 37.264 233.864 38.016 233.512 38.688C231.272 38.176 229.176 37.44 227.224 36.48C225.272 35.52 223.528 34.368 221.992 33.024C220.488 31.648 219.192 30.112 218.104 28.416L222.232 27.216ZM226.264 5.712V9.024H229.336V5.712H226.264ZM218.872 5.712V9.024H221.896V5.712H218.872ZM211.576 5.712V9.024H214.504V5.712H211.576ZM206.728 2.496H234.424V12.24H206.728V2.496ZM217.144 26.256H222.616V39.216H217.144V26.256ZM265.72 21.312H271.672V37.968C271.672 38.896 271.768 39.488 271.96 39.744C272.184 39.968 272.696 40.08 273.496 40.08C273.656 40.08 273.928 40.08 274.312 40.08C274.696 40.08 275.112 40.08 275.56 40.08C276.04 40.08 276.472 40.08 276.856 40.08C277.272 40.08 277.608 40.08 277.864 40.08C278.408 40.08 278.808 39.888 279.064 39.504C279.352 39.088 279.56 38.304 279.688 37.152C279.816 35.968 279.912 34.224 279.976 31.92C280.392 32.24 280.92 32.56 281.56 32.88C282.2 33.2 282.856 33.488 283.528 33.744C284.2 34 284.792 34.192 285.304 34.32C285.112 37.2 284.776 39.456 284.296 41.088C283.848 42.688 283.16 43.808 282.232 44.448C281.304 45.12 280.024 45.456 278.392 45.456C278.104 45.456 277.688 45.456 277.144 45.456C276.632 45.456 276.072 45.456 275.464 45.456C274.856 45.456 274.28 45.456 273.736 45.456C273.224 45.456 272.824 45.456 272.536 45.456C270.744 45.456 269.352 45.216 268.36 44.736C267.368 44.288 266.68 43.52 266.296 42.432C265.912 41.344 265.72 39.872 265.72 38.016V21.312ZM241.336 17.664H284.392V23.232H241.336V17.664ZM245.704 4.608H279.976V10.128H245.704V4.608ZM252.328 22.08H258.52C258.328 24.704 258.008 27.2 257.56 29.568C257.112 31.936 256.392 34.16 255.4 36.24C254.408 38.288 252.984 40.16 251.128 41.856C249.272 43.52 246.84 44.96 243.832 46.176C243.512 45.44 243 44.608 242.296 43.68C241.592 42.784 240.92 42.048 240.28 41.472C242.904 40.512 244.984 39.36 246.52 38.016C248.056 36.64 249.224 35.136 250.024 33.504C250.824 31.84 251.368 30.048 251.656 28.128C251.944 26.176 252.168 24.16 252.328 22.08Z" fill="#F08300"/>
<path d="M289 20.048C289.64 20.0267 290.248 20.0053 290.824 19.984C291.4 19.9413 291.837 19.9093 292.136 19.888C292.797 19.8453 293.608 19.7813 294.568 19.696C295.549 19.5893 296.637 19.4827 297.832 19.376C299.048 19.2693 300.338 19.1627 301.704 19.056C303.069 18.9493 304.488 18.832 305.96 18.704C307.069 18.5973 308.168 18.512 309.256 18.448C310.365 18.3627 311.41 18.2987 312.392 18.256C313.394 18.192 314.269 18.1493 315.016 18.128L315.048 22.224C314.472 22.224 313.81 22.2347 313.064 22.256C312.317 22.2773 311.57 22.32 310.824 22.384C310.098 22.4267 309.448 22.5227 308.872 22.672C307.912 22.928 307.016 23.3653 306.184 23.984C305.352 24.5813 304.626 25.296 304.008 26.128C303.41 26.9387 302.941 27.824 302.6 28.784C302.258 29.7227 302.088 30.672 302.088 31.632C302.088 32.6773 302.269 33.6053 302.632 34.416C303.016 35.2053 303.528 35.888 304.168 36.464C304.829 37.0187 305.597 37.488 306.472 37.872C307.346 38.2347 308.285 38.512 309.288 38.704C310.312 38.896 311.368 39.024 312.456 39.088L310.952 43.472C309.608 43.3867 308.296 43.1733 307.016 42.832C305.757 42.4907 304.573 42.0213 303.464 41.424C302.354 40.8267 301.384 40.1013 300.552 39.248C299.741 38.3733 299.09 37.3813 298.6 36.272C298.13 35.1413 297.896 33.8827 297.896 32.496C297.896 30.96 298.141 29.552 298.632 28.272C299.122 26.9707 299.73 25.84 300.456 24.88C301.202 23.8987 301.938 23.1413 302.664 22.608C302.066 22.6933 301.341 22.7787 300.488 22.864C299.656 22.9493 298.749 23.056 297.768 23.184C296.808 23.2907 295.826 23.408 294.824 23.536C293.821 23.664 292.85 23.8133 291.912 23.984C290.994 24.1333 290.162 24.2827 289.416 24.432L289 20.048ZM310.472 25.36C310.749 25.744 311.037 26.2027 311.336 26.736C311.656 27.248 311.965 27.7707 312.264 28.304C312.562 28.816 312.818 29.2853 313.032 29.712L310.6 30.8C310.194 29.904 309.8 29.1147 309.416 28.432C309.053 27.7493 308.616 27.056 308.104 26.352L310.472 25.36ZM314.056 23.888C314.333 24.272 314.632 24.72 314.952 25.232C315.293 25.7227 315.624 26.2347 315.944 26.768C316.264 27.28 316.53 27.7387 316.744 28.144L314.344 29.296C313.917 28.4427 313.501 27.6853 313.096 27.024C312.712 26.3627 312.253 25.68 311.72 24.976L314.056 23.888ZM332.744 16.016C332.722 16.1867 332.69 16.4533 332.648 16.816C332.605 17.1573 332.562 17.5093 332.52 17.872C332.498 18.2133 332.477 18.5227 332.456 18.8C332.413 19.4187 332.37 20.1013 332.328 20.848C332.306 21.5733 332.285 22.3307 332.264 23.12C332.242 23.888 332.221 24.6667 332.2 25.456C332.2 26.2453 332.2 27.0133 332.2 27.76C332.2 28.6347 332.21 29.6053 332.232 30.672C332.253 31.7173 332.274 32.7627 332.296 33.808C332.338 34.832 332.36 35.7707 332.36 36.624C332.381 37.4773 332.392 38.1387 332.392 38.608C332.392 39.9307 332.242 40.9547 331.944 41.68C331.666 42.4053 331.261 42.9067 330.728 43.184C330.194 43.4827 329.576 43.632 328.872 43.632C328.104 43.632 327.282 43.472 326.408 43.152C325.533 42.8533 324.712 42.4267 323.944 41.872C323.197 41.3173 322.578 40.6773 322.088 39.952C321.618 39.2053 321.384 38.4053 321.384 37.552C321.384 36.528 321.768 35.5147 322.536 34.512C323.325 33.488 324.36 32.5493 325.64 31.696C326.941 30.8427 328.338 30.16 329.832 29.648C331.261 29.1147 332.733 28.7307 334.248 28.496C335.762 28.24 337.128 28.112 338.344 28.112C339.986 28.112 341.469 28.3893 342.792 28.944C344.114 29.4773 345.17 30.2667 345.96 31.312C346.749 32.3573 347.144 33.616 347.144 35.088C347.144 36.3253 346.909 37.4667 346.44 38.512C345.97 39.5573 345.213 40.464 344.168 41.232C343.144 41.9787 341.778 42.5653 340.072 42.992C339.346 43.1413 338.621 43.248 337.896 43.312C337.192 43.3973 336.52 43.4613 335.88 43.504L334.408 39.376C335.133 39.376 335.826 39.3653 336.488 39.344C337.17 39.3013 337.789 39.2373 338.344 39.152C339.218 38.9813 340.008 38.7253 340.712 38.384C341.416 38.0427 341.97 37.5947 342.376 37.04C342.781 36.4853 342.984 35.824 342.984 35.056C342.984 34.3307 342.781 33.712 342.376 33.2C341.992 32.688 341.448 32.2933 340.744 32.016C340.04 31.7387 339.218 31.6 338.28 31.6C336.936 31.6 335.57 31.7387 334.184 32.016C332.818 32.2933 331.506 32.6773 330.248 33.168C329.309 33.5307 328.466 33.9573 327.72 34.448C326.973 34.9173 326.386 35.408 325.96 35.92C325.533 36.432 325.32 36.9227 325.32 37.392C325.32 37.648 325.394 37.8933 325.544 38.128C325.714 38.3413 325.928 38.5333 326.184 38.704C326.44 38.8747 326.696 39.0133 326.952 39.12C327.229 39.2053 327.464 39.248 327.656 39.248C327.954 39.248 328.2 39.1627 328.392 38.992C328.584 38.8 328.68 38.4373 328.68 37.904C328.68 37.328 328.658 36.5067 328.616 35.44C328.594 34.352 328.562 33.1467 328.52 31.824C328.498 30.5013 328.488 29.1893 328.488 27.888C328.488 26.992 328.488 26.0853 328.488 25.168C328.509 24.2507 328.52 23.376 328.52 22.544C328.52 21.712 328.52 20.976 328.52 20.336C328.541 19.696 328.552 19.1947 328.552 18.832C328.552 18.5973 328.541 18.2987 328.52 17.936C328.498 17.5733 328.466 17.2107 328.424 16.848C328.402 16.464 328.37 16.1867 328.328 16.016H332.744ZM341.864 19.472C342.674 19.856 343.581 20.3253 344.584 20.88C345.608 21.4347 346.578 21.9893 347.496 22.544C348.434 23.0773 349.181 23.5573 349.736 23.984L347.816 27.248C347.41 26.9067 346.877 26.5227 346.216 26.096C345.576 25.6693 344.872 25.232 344.104 24.784C343.357 24.336 342.632 23.92 341.928 23.536C341.224 23.1307 340.616 22.8107 340.104 22.576L341.864 19.472ZM322.248 21.232C323.186 21.3387 324.008 21.4133 324.712 21.456C325.437 21.4773 326.088 21.488 326.664 21.488C327.496 21.488 328.413 21.456 329.416 21.392C330.418 21.3067 331.442 21.2 332.488 21.072C333.533 20.9227 334.546 20.752 335.528 20.56C336.53 20.368 337.437 20.1547 338.248 19.92L338.344 23.888C337.448 24.1013 336.477 24.2933 335.432 24.464C334.386 24.6133 333.33 24.752 332.264 24.88C331.218 25.008 330.216 25.104 329.256 25.168C328.317 25.232 327.496 25.264 326.792 25.264C325.725 25.264 324.85 25.2533 324.168 25.232C323.485 25.2107 322.866 25.168 322.312 25.104L322.248 21.232ZM367.432 22.576V24.176H375.816V22.576H367.432ZM367.432 18.448V20.016H375.816V18.448H367.432ZM363.752 15.728H379.688V26.896H363.752V15.728ZM362.12 28.304H380.712V31.44H362.12V28.304ZM361.32 33.232H381.384V36.496H361.32V33.232ZM373.096 31.056H376.968V41.072C376.968 41.9467 376.861 42.6293 376.648 43.12C376.456 43.632 376.05 44.016 375.432 44.272C374.834 44.5493 374.12 44.7093 373.288 44.752C372.477 44.816 371.528 44.848 370.44 44.848C370.376 44.336 370.226 43.76 369.992 43.12C369.757 42.48 369.512 41.9147 369.256 41.424C369.917 41.4453 370.568 41.4667 371.208 41.488C371.869 41.488 372.306 41.488 372.52 41.488C372.754 41.4667 372.904 41.424 372.968 41.36C373.053 41.2747 373.096 41.1467 373.096 40.976V31.056ZM363.432 38.096L366.12 36.304C366.802 36.9227 367.517 37.6267 368.264 38.416C369.01 39.2053 369.586 39.9093 369.992 40.528L367.144 42.544C366.909 42.1387 366.578 41.68 366.152 41.168C365.746 40.656 365.298 40.1333 364.808 39.6C364.338 39.0453 363.88 38.544 363.432 38.096ZM359.048 21.872L362.408 23.28C361.64 24.6027 360.733 25.9253 359.688 27.248C358.642 28.5707 357.544 29.8293 356.392 31.024C355.24 32.1973 354.109 33.2213 353 34.096C352.893 33.7973 352.733 33.4027 352.52 32.912C352.328 32.4 352.104 31.888 351.848 31.376C351.613 30.864 351.389 30.4587 351.176 30.16C352.136 29.4773 353.096 28.6987 354.056 27.824C355.016 26.928 355.933 25.9787 356.808 24.976C357.682 23.952 358.429 22.9173 359.048 21.872ZM358.216 14.864L361.864 16.336C361.16 17.3173 360.338 18.3093 359.4 19.312C358.482 20.2933 357.512 21.2213 356.488 22.096C355.464 22.9707 354.44 23.7387 353.416 24.4C353.288 24.1013 353.106 23.7493 352.872 23.344C352.658 22.9387 352.424 22.5333 352.168 22.128C351.933 21.7227 351.72 21.392 351.528 21.136C352.36 20.624 353.202 20.016 354.056 19.312C354.909 18.608 355.698 17.872 356.424 17.104C357.17 16.3147 357.768 15.568 358.216 14.864ZM355.88 29.04L359.432 25.488L359.624 25.552V44.848H355.88V29.04ZM385.448 21.04C386.13 21.1253 386.856 21.1893 387.624 21.232C388.413 21.2533 389.106 21.264 389.704 21.264C391.026 21.264 392.36 21.1893 393.704 21.04C395.069 20.8907 396.381 20.6987 397.64 20.464C398.898 20.208 400.04 19.92 401.064 19.6L401.192 23.312C400.274 23.5467 399.176 23.792 397.896 24.048C396.637 24.2827 395.304 24.4853 393.896 24.656C392.488 24.8053 391.101 24.88 389.736 24.88C389.096 24.88 388.445 24.8693 387.784 24.848C387.122 24.8267 386.44 24.7947 385.736 24.752L385.448 21.04ZM397.896 16.24C397.768 16.7733 397.597 17.4667 397.384 18.32C397.17 19.1733 396.925 20.0693 396.648 21.008C396.392 21.9467 396.114 22.8747 395.816 23.792C395.346 25.328 394.728 26.96 393.96 28.688C393.192 30.416 392.36 32.1013 391.464 33.744C390.568 35.3867 389.661 36.848 388.744 38.128L384.872 36.144C385.597 35.248 386.312 34.256 387.016 33.168C387.72 32.08 388.381 30.96 389 29.808C389.618 28.656 390.173 27.5467 390.664 26.48C391.176 25.392 391.581 24.4107 391.88 23.536C392.285 22.4053 392.637 21.1467 392.936 19.76C393.256 18.352 393.437 17.0293 393.48 15.792L397.896 16.24ZM405.384 26.192C405.341 26.8747 405.32 27.5573 405.32 28.24C405.341 28.9013 405.362 29.584 405.384 30.288C405.405 30.7787 405.426 31.408 405.448 32.176C405.49 32.9227 405.533 33.7227 405.576 34.576C405.618 35.408 405.65 36.208 405.672 36.976C405.714 37.7227 405.736 38.32 405.736 38.768C405.736 39.7493 405.533 40.6453 405.128 41.456C404.722 42.2453 404.072 42.8747 403.176 43.344C402.301 43.8133 401.096 44.048 399.56 44.048C398.237 44.048 397.042 43.8453 395.976 43.44C394.909 43.056 394.056 42.48 393.416 41.712C392.776 40.9227 392.456 39.9413 392.456 38.768C392.456 37.7227 392.733 36.784 393.288 35.952C393.842 35.0987 394.642 34.4373 395.688 33.968C396.754 33.4773 398.034 33.232 399.528 33.232C401.405 33.232 403.133 33.4987 404.712 34.032C406.29 34.544 407.709 35.2053 408.968 36.016C410.226 36.8267 411.304 37.6373 412.2 38.448L410.056 41.872C409.48 41.36 408.818 40.784 408.072 40.144C407.346 39.504 406.525 38.9067 405.608 38.352C404.712 37.7973 403.73 37.3387 402.664 36.976C401.618 36.6133 400.488 36.432 399.272 36.432C398.354 36.432 397.618 36.6133 397.064 36.976C396.509 37.3387 396.232 37.808 396.232 38.384C396.232 38.9813 396.466 39.4613 396.936 39.824C397.426 40.1867 398.109 40.368 398.984 40.368C399.709 40.368 400.285 40.2507 400.712 40.016C401.138 39.76 401.437 39.408 401.608 38.96C401.778 38.4907 401.864 37.968 401.864 37.392C401.864 36.9013 401.842 36.208 401.8 35.312C401.757 34.416 401.704 33.424 401.64 32.336C401.597 31.248 401.554 30.16 401.512 29.072C401.469 27.984 401.426 27.024 401.384 26.192H405.384ZM410.888 27.888C410.269 27.376 409.501 26.832 408.584 26.256C407.666 25.68 406.717 25.136 405.736 24.624C404.776 24.0907 403.933 23.664 403.208 23.344L405.256 20.176C405.832 20.432 406.482 20.752 407.208 21.136C407.954 21.4987 408.701 21.8827 409.448 22.288C410.216 22.6933 410.92 23.0987 411.56 23.504C412.221 23.888 412.754 24.2293 413.16 24.528L410.888 27.888ZM435.848 18.992V21.2H439.88V18.992H435.848ZM428.744 18.992V21.2H432.648V18.992H428.744ZM421.736 18.992V21.2H425.544V18.992H421.736ZM418.184 16.144H443.624V24.048H418.184V16.144ZM423.784 31.632V33.2H437.832V31.632H423.784ZM423.784 35.472V37.072H437.832V35.472H423.784ZM423.784 27.824V29.36H437.832V27.824H423.784ZM419.912 25.392H441.864V39.472H419.912V25.392ZM432.584 41.168L435.656 39.216C436.85 39.6 438.066 40.016 439.304 40.464C440.562 40.912 441.757 41.36 442.888 41.808C444.018 42.2347 444.989 42.6293 445.8 42.992L441.64 44.912C440.978 44.5493 440.157 44.1547 439.176 43.728C438.216 43.3013 437.17 42.864 436.04 42.416C434.909 41.968 433.757 41.552 432.584 41.168ZM425.512 39.184L429 40.752C428.125 41.328 427.101 41.8827 425.928 42.416C424.754 42.9493 423.538 43.4293 422.28 43.856C421.042 44.304 419.869 44.688 418.76 45.008C418.546 44.7307 418.269 44.4107 417.928 44.048C417.586 43.7067 417.234 43.3653 416.872 43.024C416.509 42.6827 416.189 42.4053 415.912 42.192C417.064 41.9787 418.237 41.7227 419.432 41.424C420.626 41.104 421.746 40.752 422.792 40.368C423.858 39.984 424.765 39.5893 425.512 39.184ZM455.112 19.12C455.026 19.504 454.952 19.9413 454.888 20.432C454.845 20.9227 454.802 21.4027 454.76 21.872C454.738 22.3413 454.728 22.7253 454.728 23.024C454.706 23.728 454.696 24.4533 454.696 25.2C454.717 25.9467 454.738 26.7147 454.76 27.504C454.802 28.272 454.856 29.04 454.92 29.808C455.069 31.344 455.282 32.6987 455.56 33.872C455.837 35.0453 456.2 35.9627 456.648 36.624C457.096 37.264 457.661 37.584 458.344 37.584C458.706 37.584 459.058 37.3813 459.4 36.976C459.762 36.5707 460.082 36.048 460.36 35.408C460.658 34.7467 460.914 34.0533 461.128 33.328C461.362 32.6027 461.565 31.92 461.736 31.28L464.936 35.184C464.232 37.04 463.528 38.5227 462.824 39.632C462.141 40.72 461.426 41.5093 460.68 42C459.933 42.4693 459.122 42.704 458.248 42.704C457.096 42.704 455.997 42.32 454.952 41.552C453.928 40.784 453.053 39.5467 452.328 37.84C451.602 36.112 451.09 33.8187 450.792 30.96C450.685 29.9787 450.6 28.944 450.536 27.856C450.493 26.768 450.461 25.7333 450.44 24.752C450.44 23.7707 450.44 22.96 450.44 22.32C450.44 21.872 450.418 21.3387 450.376 20.72C450.333 20.1013 450.269 19.5467 450.184 19.056L455.112 19.12ZM471.112 19.856C471.709 20.5813 472.285 21.4667 472.84 22.512C473.394 23.5573 473.906 24.6773 474.376 25.872C474.845 27.0667 475.261 28.2933 475.624 29.552C475.986 30.7893 476.274 32.0053 476.488 33.2C476.722 34.3733 476.872 35.4507 476.936 36.432L472.712 38.064C472.605 36.7627 472.413 35.344 472.136 33.808C471.858 32.272 471.485 30.7253 471.016 29.168C470.546 27.6107 469.981 26.1387 469.32 24.752C468.68 23.3653 467.922 22.1707 467.048 21.168L471.112 19.856ZM495.304 14.8L498.792 15.472C498.386 17.2427 497.896 18.9707 497.32 20.656C496.744 22.32 496.082 23.8773 495.336 25.328C494.589 26.7573 493.778 28.016 492.904 29.104C492.712 28.8907 492.434 28.656 492.072 28.4C491.709 28.1227 491.336 27.856 490.952 27.6C490.589 27.3227 490.28 27.0987 490.024 26.928C490.877 25.9893 491.634 24.88 492.296 23.6C492.978 22.32 493.565 20.9333 494.056 19.44C494.568 17.9253 494.984 16.3787 495.304 14.8ZM506.056 19.792H509.704C509.704 19.792 509.693 19.9093 509.672 20.144C509.672 20.3573 509.672 20.6027 509.672 20.88C509.672 21.1573 509.661 21.3707 509.64 21.52C509.49 25.1253 509.33 28.1867 509.16 30.704C509.01 33.2213 508.84 35.3013 508.648 36.944C508.477 38.5653 508.274 39.8453 508.04 40.784C507.805 41.7013 507.538 42.3627 507.24 42.768C506.856 43.3013 506.472 43.6853 506.088 43.92C505.704 44.1547 505.245 44.3253 504.712 44.432C504.264 44.5173 503.72 44.56 503.08 44.56C502.44 44.5813 501.768 44.5707 501.064 44.528C501.021 43.9733 500.904 43.344 500.712 42.64C500.541 41.936 500.306 41.3173 500.008 40.784C500.605 40.848 501.16 40.8907 501.672 40.912C502.184 40.912 502.589 40.912 502.888 40.912C503.144 40.912 503.346 40.8693 503.496 40.784C503.666 40.6987 503.848 40.5387 504.04 40.304C504.253 40.048 504.456 39.5147 504.648 38.704C504.84 37.872 505.021 36.688 505.192 35.152C505.362 33.616 505.512 31.664 505.64 29.296C505.789 26.9067 505.928 24.016 506.056 20.624V19.792ZM496.264 19.792H507.688V23.344H494.536L496.264 19.792ZM498.536 20.944L501.32 22.32C500.893 24.1547 500.306 26.032 499.56 27.952C498.813 29.8507 497.938 31.632 496.936 33.296C495.954 34.96 494.888 36.336 493.736 37.424C493.373 37.0827 492.914 36.7093 492.36 36.304C491.805 35.8773 491.272 35.536 490.76 35.28C491.698 34.5547 492.573 33.6587 493.384 32.592C494.194 31.504 494.93 30.32 495.592 29.04C496.253 27.7387 496.829 26.4053 497.32 25.04C497.81 23.6533 498.216 22.288 498.536 20.944ZM502.984 21.328L505.96 22.704C505.554 24.7733 505.042 26.8427 504.424 28.912C503.826 30.9813 503.101 32.9653 502.248 34.864C501.416 36.7627 500.456 38.512 499.368 40.112C498.28 41.6907 497.064 43.024 495.72 44.112C495.357 43.7493 494.877 43.3547 494.28 42.928C493.704 42.5013 493.149 42.1493 492.616 41.872C494.002 40.8693 495.25 39.632 496.36 38.16C497.49 36.6667 498.482 35.0133 499.336 33.2C500.189 31.3653 500.914 29.4453 501.512 27.44C502.109 25.4133 502.6 23.376 502.984 21.328ZM479.656 32.272C480.701 32.016 481.885 31.7173 483.208 31.376C484.552 31.0347 485.96 30.6613 487.432 30.256C488.925 29.8293 490.408 29.4133 491.88 29.008L492.36 32.368C490.354 33.008 488.306 33.648 486.216 34.288C484.146 34.9067 482.269 35.4613 480.584 35.952L479.656 32.272ZM485.384 14.832H488.904V44.88H485.384V14.832ZM481.16 16.656L484.392 17.168C484.242 18.576 484.061 19.9947 483.848 21.424C483.634 22.832 483.378 24.1653 483.08 25.424C482.781 26.6827 482.44 27.792 482.056 28.752C481.864 28.6027 481.597 28.4213 481.256 28.208C480.914 27.9733 480.573 27.7493 480.232 27.536C479.89 27.3013 479.592 27.1307 479.336 27.024C479.677 26.1493 479.965 25.1573 480.2 24.048C480.456 22.9173 480.658 21.7227 480.808 20.464C480.978 19.184 481.096 17.9147 481.16 16.656ZM482.056 21.008H491.592V24.656H481.32L482.056 21.008ZM525.128 19.632C526.109 19.76 527.208 19.856 528.424 19.92C529.661 19.9627 530.909 19.984 532.168 19.984C533.448 19.9627 534.674 19.92 535.848 19.856C537.021 19.7707 538.034 19.6853 538.888 19.6V23.728C537.906 23.8133 536.829 23.888 535.656 23.952C534.482 23.9947 533.277 24.016 532.04 24.016C530.802 24.016 529.586 23.9947 528.392 23.952C527.218 23.888 526.13 23.8133 525.128 23.728V19.632ZM527.688 33.296C527.56 33.8293 527.464 34.3093 527.4 34.736C527.336 35.1413 527.304 35.5573 527.304 35.984C527.304 36.3253 527.389 36.6453 527.56 36.944C527.73 37.2213 527.986 37.4667 528.328 37.68C528.69 37.872 529.149 38.0213 529.704 38.128C530.28 38.2133 530.973 38.256 531.784 38.256C533.213 38.256 534.557 38.192 535.816 38.064C537.074 37.9147 538.408 37.7013 539.816 37.424L539.88 41.744C538.856 41.936 537.672 42.0853 536.328 42.192C535.005 42.2987 533.437 42.352 531.624 42.352C528.872 42.352 526.824 41.8933 525.48 40.976C524.136 40.0373 523.464 38.7467 523.464 37.104C523.464 36.4853 523.506 35.8453 523.592 35.184C523.698 34.5013 523.837 33.7547 524.008 32.944L527.688 33.296ZM520.2 17.488C520.114 17.7013 520.018 18 519.912 18.384C519.805 18.768 519.698 19.1413 519.592 19.504C519.506 19.8667 519.442 20.144 519.4 20.336C519.336 20.784 519.229 21.3707 519.08 22.096C518.952 22.8 518.813 23.6 518.664 24.496C518.536 25.3707 518.408 26.2667 518.28 27.184C518.152 28.1013 518.045 28.9867 517.96 29.84C517.896 30.6933 517.864 31.44 517.864 32.08C517.864 32.3787 517.864 32.72 517.864 33.104C517.885 33.488 517.928 33.84 517.992 34.16C518.141 33.7973 518.301 33.4347 518.472 33.072C518.642 32.7093 518.813 32.3467 518.984 31.984C519.154 31.6 519.304 31.2373 519.432 30.896L521.416 32.464C521.117 33.3387 520.808 34.2773 520.488 35.28C520.189 36.2827 519.912 37.232 519.656 38.128C519.421 39.0027 519.24 39.728 519.112 40.304C519.069 40.5387 519.026 40.8053 518.984 41.104C518.962 41.4027 518.952 41.6373 518.952 41.808C518.952 41.9787 518.952 42.1813 518.952 42.416C518.973 42.672 518.994 42.9067 519.016 43.12L515.304 43.376C514.984 42.2667 514.696 40.7947 514.44 38.96C514.184 37.104 514.056 35.088 514.056 32.912C514.056 31.7173 514.109 30.5013 514.216 29.264C514.322 28.0267 514.45 26.8427 514.6 25.712C514.749 24.56 514.888 23.5147 515.016 22.576C515.165 21.6373 515.293 20.8587 515.4 20.24C515.442 19.792 515.496 19.2907 515.56 18.736C515.645 18.16 515.698 17.616 515.72 17.104L520.2 17.488ZM557.16 33.776L556.296 22.832L556.136 18.064H561.448L561.288 22.832L560.424 33.776H557.16ZM558.792 42.288C557.981 42.288 557.309 42.0213 556.776 41.488C556.242 40.9547 555.976 40.2827 555.976 39.472C555.976 38.64 556.242 37.9573 556.776 37.424C557.309 36.8907 557.981 36.624 558.792 36.624C559.602 36.624 560.274 36.8907 560.808 37.424C561.341 37.9573 561.608 38.64 561.608 39.472C561.608 40.2827 561.341 40.9547 560.808 41.488C560.274 42.0213 559.602 42.288 558.792 42.288Z" fill="black"/>
</svg>
